{"glyphs":{"0":{"ha":942,"x_min":28,"x_max":914,"o":"m 28 394 q 85 182 28 276 q 242 34 142 88 q 469 -19 343 -19 q 699 34 597 -19 q 857 183 800 88 q 914 397 914 278 q 857 607 914 514 q 699 752 800 700 q 471 804 597 804 q 243 751 344 804 q 85 605 142 699 q 28 394 28 511 m 289 399 q 340 542 289 486 q 469 599 392 599 q 601 541 550 599 q 653 393 653 483 q 601 244 653 303 q 471 186 550 186 q 340 246 392 186 q 289 399 289 306 z "},"1":{"ha":610,"x_min":14,"x_max":526,"o":"m 358 786 l 14 638 l 113 435 l 274 504 l 274 0 l 526 0 l 526 786 l 358 786 z "},"2":{"ha":690,"x_min":35,"x_max":663,"o":"m 321 804 q 53 732 174 804 l 85 526 q 194 575 132 553 q 313 597 257 597 q 397 581 367 597 q 428 531 428 564 q 403 473 428 501 q 329 401 379 444 q 297 375 307 385 l 35 147 l 35 0 l 663 0 l 646 199 l 393 199 l 450 247 q 603 406 554 335 q 653 560 653 478 q 565 745 653 686 q 321 804 476 804 z "},"3":{"ha":744,"x_min":0,"x_max":710,"o":"m 354 804 q 29 701 160 804 l 150 531 q 329 599 250 599 q 407 581 381 599 q 433 536 433 564 q 397 480 433 501 q 303 458 361 458 l 189 458 l 210 260 l 353 260 q 422 238 396 260 q 449 175 449 215 q 417 117 449 139 q 339 96 386 96 q 241 112 289 96 q 135 165 193 128 l 0 -3 q 169 -81 78 -53 q 338 -108 260 -108 q 532 -73 447 -108 q 663 25 617 -37 q 710 168 710 88 q 675 288 710 228 q 590 378 640 349 q 662 454 629 399 q 694 558 694 510 q 652 686 694 631 q 533 773 610 742 q 354 804 456 804 z "},"4":{"ha":849,"x_min":14,"x_max":821,"o":"m 682 793 l 493 793 l 14 260 l 43 75 l 429 75 l 429 -87 l 682 -87 l 682 75 l 808 75 l 821 274 l 682 274 l 682 793 m 311 274 l 429 413 l 429 274 l 311 274 z "},"5":{"ha":740,"x_min":28,"x_max":713,"o":"m 311 250 q 343 292 321 274 q 396 310 365 310 q 460 284 435 310 q 485 214 485 258 q 451 135 485 165 q 364 106 417 106 q 268 122 315 106 q 154 175 221 139 l 28 -4 q 189 -81 96 -51 q 360 -110 282 -110 q 547 -69 467 -110 q 669 46 626 -28 q 713 214 713 119 q 678 367 713 297 q 579 478 644 436 q 424 519 514 519 q 338 497 376 519 l 338 588 l 647 588 l 672 786 l 125 786 l 99 250 l 311 250 z "},"6":{"ha":813,"x_min":28,"x_max":785,"o":"m 443 553 q 619 517 542 553 q 741 417 697 482 q 785 271 785 353 q 742 122 785 188 q 620 19 700 56 q 433 -18 540 -18 q 223 29 315 -18 q 79 160 131 76 q 28 350 28 244 q 133 660 28 544 q 380 823 238 775 q 667 881 522 871 l 692 649 l 642 642 q 469 608 539 628 q 353 536 400 588 q 443 553 396 553 m 426 186 q 494 216 465 186 q 524 290 524 246 q 491 361 524 333 q 410 389 458 389 q 293 344 356 389 q 333 230 297 274 q 426 186 368 186 z "},"7":{"ha":719,"x_min":14,"x_max":692,"o":"m 644 786 l 14 786 l 38 588 l 415 588 l 150 -42 l 401 -107 l 692 686 l 644 786 z "},"8":{"ha":794,"x_min":28,"x_max":767,"o":"m 399 893 q 226 861 304 893 q 103 770 149 829 q 58 635 58 711 q 83 548 58 590 q 143 474 107 506 q 60 385 93 439 q 28 274 28 331 q 128 60 28 138 q 399 -18 229 -18 q 596 19 513 -18 q 723 122 679 56 q 767 274 767 188 q 735 384 767 331 q 653 472 703 438 q 713 547 689 503 q 736 635 736 590 q 690 770 736 711 q 567 861 644 829 q 399 893 490 893 m 396 686 q 453 665 433 686 q 474 621 474 644 q 453 569 474 593 q 399 540 433 546 q 342 569 363 546 q 321 619 321 592 q 341 665 321 643 q 396 686 361 686 m 399 393 q 477 351 447 385 q 507 285 507 318 q 473 217 507 247 q 397 188 439 188 q 322 217 356 188 q 289 285 289 247 q 318 351 289 318 q 399 393 347 385 z "},"9":{"ha":813,"x_min":28,"x_max":785,"o":"m 379 804 q 590 757 497 804 q 733 626 682 710 q 785 436 785 542 q 680 126 785 242 q 433 -37 575 11 q 146 -94 290 -85 l 121 138 l 171 144 q 343 178 274 158 q 460 250 413 199 q 369 233 417 233 q 193 269 271 233 q 72 369 115 304 q 28 515 28 433 q 70 665 28 599 q 192 767 113 731 q 379 804 272 804 m 289 496 q 322 425 289 453 q 403 397 354 397 q 519 442 457 397 q 479 556 515 513 q 386 600 443 600 q 318 570 347 600 q 289 496 289 540 z "},"\r":{"ha":0,"x_min":0,"x_max":0,"o":""}," ":{"ha":306,"x_min":0,"x_max":0,"o":""},"\u0000":{"ha":0,"x_min":0,"x_max":0,"o":""}," ":{"ha":306,"x_min":0,"x_max":0,"o":""},"‌":{"ha":0,"x_min":-42,"x_max":42,"o":"m 42 1718 l -42 1718 l -42 -94 l 42 -94 l 42 1718 z "},"‍":{"ha":0,"x_min":-157,"x_max":158,"o":"m -157 1778 l -54 1675 l -157 1572 l -103 1518 l -42 1578 l -42 -94 l 42 -94 l 42 1579 l 104 1518 l 158 1572 l 56 1675 l 158 1778 l 103 1833 l 0 1731 l -101 1833 l -157 1778 z "},"◌":{"ha":840,"x_min":63,"x_max":778,"o":"m 419 638 q 449 649 438 638 q 460 678 460 660 q 449 708 460 696 q 419 719 438 719 q 390 708 401 719 q 379 678 379 696 q 390 649 379 660 q 419 638 401 638 m 296 697 q 267 686 278 697 q 256 657 256 675 q 267 628 256 639 q 296 617 278 617 q 325 628 314 617 q 336 657 336 639 q 325 686 336 675 q 296 697 314 697 m 544 617 q 574 628 563 617 q 585 657 585 639 q 574 686 585 675 q 544 697 563 697 q 515 686 526 697 q 504 657 504 675 q 515 628 504 639 q 544 617 526 617 m 190 628 q 160 616 172 628 q 149 586 149 604 q 160 557 149 568 q 190 546 172 546 q 219 557 208 546 q 231 586 231 568 q 219 616 231 604 q 190 628 208 628 m 650 546 q 680 557 668 546 q 692 586 692 568 q 680 616 692 604 q 650 628 668 628 q 621 616 632 628 q 610 586 610 604 q 621 557 610 568 q 650 546 632 546 m 124 518 q 94 506 106 518 q 82 476 82 494 q 94 447 82 458 q 124 436 106 436 q 153 447 142 436 q 164 476 164 458 q 153 506 164 494 q 124 518 142 518 m 717 436 q 746 447 735 436 q 757 476 757 458 q 746 506 757 494 q 717 518 735 518 q 688 506 699 518 q 676 476 676 494 q 688 447 676 458 q 717 436 699 436 m 104 399 q 74 387 86 399 q 63 357 63 375 q 74 328 63 339 q 104 318 86 318 q 133 328 122 318 q 144 357 144 339 q 133 387 144 375 q 104 399 122 399 m 736 318 q 766 328 754 318 q 778 357 778 339 q 766 387 778 375 q 736 399 754 399 q 707 387 718 399 q 696 357 696 375 q 707 328 696 339 q 736 318 718 318 m 124 282 q 94 271 106 282 q 82 242 82 260 q 94 213 82 224 q 124 201 106 201 q 153 213 142 201 q 164 242 164 224 q 153 271 164 260 q 124 282 142 282 m 717 201 q 746 213 735 201 q 757 242 757 224 q 746 271 757 260 q 717 282 735 282 q 688 271 699 282 q 676 242 676 260 q 688 213 676 224 q 717 201 699 201 m 189 171 q 159 160 171 171 q 147 131 147 149 q 159 101 147 113 q 189 90 171 90 q 218 101 207 90 q 229 131 229 113 q 218 160 229 149 q 189 171 207 171 m 651 90 q 681 101 669 90 q 693 131 693 113 q 681 160 693 149 q 651 171 669 171 q 622 160 633 171 q 611 131 611 149 q 622 101 611 113 q 651 90 633 90 m 296 103 q 267 91 278 103 q 256 61 256 79 q 267 32 256 43 q 296 21 278 21 q 325 32 314 21 q 336 61 336 43 q 325 91 336 79 q 296 103 314 103 m 544 21 q 574 32 563 21 q 585 61 585 43 q 574 91 585 79 q 544 103 563 103 q 515 91 526 103 q 504 61 504 79 q 515 32 504 43 q 544 21 526 21 m 419 0 q 449 11 438 0 q 460 40 460 22 q 449 70 460 58 q 419 82 438 82 q 390 70 401 82 q 379 40 379 58 q 390 11 379 22 q 419 0 401 0 z "},"A":{"ha":988,"x_min":14,"x_max":974,"o":"m 265 0 l 331 186 l 657 186 l 725 -14 l 974 11 l 621 944 l 368 944 l 14 0 l 265 0 m 490 642 l 585 385 l 400 385 l 490 642 z "},"B":{"ha":896,"x_min":111,"x_max":868,"o":"m 468 0 q 755 66 642 0 q 868 282 868 132 q 834 404 868 347 q 742 501 800 461 q 806 582 782 542 q 829 672 829 622 q 719 876 829 808 q 440 944 608 944 l 111 944 l 111 0 l 468 0 m 432 746 q 532 724 496 746 q 568 660 568 701 q 526 605 568 624 q 421 586 483 586 l 364 586 l 364 746 l 432 746 m 471 388 q 571 361 535 388 q 607 288 607 335 q 571 222 607 244 q 474 199 535 199 l 364 199 l 364 388 l 471 388 z "},"C":{"ha":828,"x_min":42,"x_max":814,"o":"m 804 885 q 674 942 750 921 q 526 963 599 963 q 277 899 388 963 q 104 724 167 836 q 42 468 42 611 q 101 215 42 325 q 271 44 160 106 q 532 -18 382 -18 q 683 1 606 -18 q 814 51 760 19 l 718 240 q 539 189 632 189 q 424 223 479 189 q 336 321 369 257 q 303 469 303 385 q 335 618 303 553 q 420 719 368 683 q 529 756 472 756 q 616 747 576 756 q 729 714 656 739 l 804 885 z "},"D":{"ha":1026,"x_min":111,"x_max":985,"o":"m 533 0 q 768 58 665 0 q 928 225 871 117 q 985 478 985 333 q 933 719 985 614 q 781 885 882 825 q 539 944 681 944 l 111 944 l 111 0 l 533 0 m 526 746 q 672 672 619 746 q 724 478 724 597 q 666 271 724 343 q 517 199 608 199 l 364 199 l 364 746 l 526 746 z "},"E":{"ha":831,"x_min":111,"x_max":803,"o":"m 364 199 l 364 375 l 678 375 l 654 574 l 364 574 l 364 746 l 761 746 l 738 944 l 111 944 l 111 0 l 803 0 l 779 199 l 364 199 z "},"F":{"ha":775,"x_min":111,"x_max":747,"o":"m 364 744 l 747 744 l 724 943 l 111 943 l 111 0 l 364 0 l 364 357 l 678 357 l 654 556 l 364 556 l 364 744 z "},"G":{"ha":925,"x_min":42,"x_max":869,"o":"m 642 197 q 553 189 594 189 q 432 218 489 189 q 339 310 375 247 q 303 469 303 374 q 341 626 303 561 q 438 723 379 690 q 557 756 497 756 q 663 747 610 756 q 785 714 715 738 l 860 885 q 719 942 807 921 q 554 963 631 963 q 297 903 414 963 q 110 731 179 843 q 42 468 42 618 q 103 207 42 317 q 279 40 165 97 q 546 -18 393 -18 q 722 1 625 -18 q 869 51 818 19 l 869 544 l 501 544 l 479 360 l 642 360 l 642 197 z "},"H":{"ha":1058,"x_min":111,"x_max":947,"o":"m 694 944 l 694 568 l 364 568 l 364 953 l 111 944 l 111 0 l 364 0 l 364 369 l 694 369 l 694 0 l 947 0 l 947 944 l 694 944 z "},"I":{"ha":475,"x_min":111,"x_max":364,"o":"m 111 944 l 111 0 l 364 0 l 364 944 l 111 944 z "},"J":{"ha":479,"x_min":14,"x_max":382,"o":"m 129 190 q 106 113 129 146 q 14 53 83 81 l 117 -147 q 274 -81 218 -115 q 356 -1 331 -47 q 382 117 382 46 l 382 944 l 129 944 l 129 190 z "},"K":{"ha":1014,"x_min":111,"x_max":1000,"o":"m 364 283 l 364 0 l 111 0 l 111 944 l 364 944 l 364 617 l 743 965 l 939 824 l 618 524 l 1000 0 l 679 0 l 438 353 l 364 283 z "},"L":{"ha":803,"x_min":111,"x_max":789,"o":"m 364 944 l 111 944 l 111 0 l 789 0 l 765 199 l 364 199 l 364 944 z "},"M":{"ha":1110,"x_min":111,"x_max":999,"o":"m 746 0 l 999 0 l 999 944 l 831 944 l 569 585 l 285 944 l 111 944 l 111 0 l 364 0 l 364 457 l 517 271 l 618 285 l 746 457 l 746 0 z "},"N":{"ha":1074,"x_min":111,"x_max":963,"o":"m 726 0 l 963 0 l 963 944 l 710 944 l 710 432 l 346 944 l 111 944 l 111 0 l 364 0 l 364 497 l 726 0 z "},"O":{"ha":1060,"x_min":42,"x_max":1018,"o":"m 529 964 q 278 901 389 964 q 104 724 167 838 q 42 468 42 611 q 101 221 42 332 q 272 45 161 110 q 529 -19 382 -19 q 783 44 672 -19 q 956 220 894 107 q 1018 478 1018 333 q 959 725 1018 614 q 790 900 900 836 q 529 964 679 964 m 301 469 q 333 617 301 553 q 416 717 364 682 q 532 753 468 753 q 697 676 635 753 q 758 478 758 599 q 694 266 758 340 q 528 192 629 192 q 362 269 422 192 q 301 469 301 347 z "},"P":{"ha":925,"x_min":111,"x_max":897,"o":"m 497 275 q 695 311 604 275 q 842 422 786 347 q 897 604 897 496 q 845 791 897 714 q 705 906 793 868 q 508 944 617 944 l 111 944 l 111 0 l 364 0 l 364 275 l 497 275 m 500 746 q 599 707 563 746 q 636 604 636 668 q 599 511 636 549 q 503 474 561 474 l 364 474 l 364 746 l 500 746 z "},"Q":{"ha":1060,"x_min":42,"x_max":1018,"o":"m 1018 478 q 991 301 1018 383 q 913 154 964 219 l 996 63 l 840 -72 l 747 25 q 529 -19 650 -19 q 272 45 382 -19 q 101 221 161 110 q 42 468 42 332 q 104 724 42 611 q 278 901 167 838 q 529 964 389 964 q 790 900 679 964 q 959 725 900 836 q 1018 478 1018 614 m 528 192 q 582 197 560 192 l 467 318 l 633 460 l 738 346 q 758 478 758 400 q 697 676 758 599 q 532 753 635 753 q 416 717 468 753 q 333 617 364 682 q 301 469 301 553 q 362 269 301 347 q 528 192 422 192 z "},"R":{"ha":992,"x_min":111,"x_max":978,"o":"m 364 0 l 364 297 l 532 297 l 685 0 l 978 0 l 769 372 q 863 476 829 413 q 897 622 897 539 q 788 864 897 783 q 508 944 678 944 l 111 944 l 111 0 l 364 0 m 500 746 q 601 715 565 746 q 636 622 636 683 q 599 531 636 567 q 503 496 561 496 l 364 496 l 364 746 l 500 746 z "},"S":{"ha":760,"x_min":42,"x_max":732,"o":"m 46 58 q 191 4 100 26 q 356 -18 282 -18 q 555 18 469 -18 q 686 117 640 54 q 732 260 732 179 q 691 390 732 332 q 592 490 650 447 q 446 582 533 532 l 396 610 q 324 652 346 636 q 303 689 303 668 q 328 736 303 717 q 396 756 354 756 q 483 747 443 756 q 596 714 522 739 l 671 885 q 541 942 617 921 q 393 963 465 963 q 208 928 288 963 q 85 831 129 893 q 42 692 42 769 q 83 560 42 618 q 178 465 125 501 q 325 372 231 428 l 368 347 q 447 298 422 315 q 471 263 471 281 q 438 212 471 235 q 349 189 404 189 q 233 208 299 189 q 129 249 167 226 l 46 58 z "},"T":{"ha":860,"x_min":14,"x_max":846,"o":"m 14 746 l 292 746 l 292 0 l 544 0 l 544 746 l 846 746 l 822 944 l 14 944 l 14 746 z "},"U":{"ha":1042,"x_min":97,"x_max":944,"o":"m 97 361 q 150 155 97 240 q 299 25 203 69 q 521 -19 394 -19 q 743 25 647 -19 q 892 155 839 69 q 944 361 944 240 l 944 944 l 692 944 l 692 374 q 644 240 692 288 q 521 192 597 192 q 397 240 444 192 q 350 374 350 288 l 350 944 l 97 944 l 97 361 z "},"V":{"ha":988,"x_min":14,"x_max":974,"o":"m 367 0 l 619 0 l 974 944 l 722 944 l 497 303 l 263 958 l 14 933 l 367 0 z "},"W":{"ha":1389,"x_min":14,"x_max":1375,"o":"m 851 0 l 696 593 l 550 0 l 297 0 l 14 933 l 263 958 l 428 303 l 569 944 l 821 944 l 982 303 l 1124 944 l 1375 944 l 1104 0 l 851 0 z "},"X":{"ha":993,"x_min":14,"x_max":979,"o":"m 656 0 l 979 0 l 663 479 l 978 944 l 664 944 l 503 692 l 313 979 l 40 900 l 343 469 l 14 0 l 313 0 l 503 258 l 656 0 z "},"Y":{"ha":908,"x_min":14,"x_max":894,"o":"m 894 944 l 635 944 l 439 604 l 256 964 l 14 897 l 314 372 l 314 0 l 567 0 l 567 369 l 894 944 z "},"Z":{"ha":811,"x_min":14,"x_max":797,"o":"m 797 765 l 771 944 l 54 944 l 78 746 l 496 746 l 14 178 l 42 0 l 793 0 l 769 199 l 306 199 l 797 765 z "},"a":{"ha":707,"x_min":44,"x_max":643,"o":"m 133 451 q 220 480 172 468 q 301 492 268 492 q 360 472 338 492 q 389 414 383 453 l 308 414 q 44 217 44 414 q 108 47 44 110 q 297 -15 172 -15 q 449 69 382 -15 l 521 0 l 643 0 l 643 417 q 571 622 643 547 q 364 697 499 697 q 206 678 286 697 q 67 633 125 660 l 133 451 m 256 221 q 272 260 256 244 q 313 275 288 275 l 390 275 l 390 211 q 301 174 344 174 q 269 187 282 174 q 256 221 256 200 z "},"b":{"ha":810,"x_min":83,"x_max":782,"o":"m 436 697 q 687 608 592 697 q 782 346 782 519 q 685 77 782 169 q 425 -15 589 -15 q 254 43 332 -15 l 211 0 l 83 0 l 83 965 l 336 981 l 336 679 q 436 697 388 697 m 408 179 q 489 224 457 179 q 521 344 521 268 q 489 462 521 421 q 397 503 457 503 q 336 482 367 503 l 336 197 q 408 179 376 179 z "},"c":{"ha":635,"x_min":28,"x_max":626,"o":"m 626 629 q 396 697 540 697 q 204 654 288 697 q 74 529 121 611 q 28 336 28 447 q 128 77 28 169 q 396 -15 229 -15 q 626 53 540 -15 l 556 226 q 486 198 517 206 q 421 190 456 190 q 328 229 367 190 q 289 336 289 268 q 328 449 289 406 q 421 492 368 492 q 486 484 457 492 q 556 456 515 476 l 626 629 z "},"d":{"ha":810,"x_min":28,"x_max":726,"o":"m 726 0 l 599 0 l 561 49 q 472 2 519 19 q 374 -15 424 -15 q 123 74 218 -15 q 28 336 28 163 q 124 605 28 513 q 385 697 221 697 q 474 683 432 697 l 474 965 l 726 981 l 726 0 m 289 338 q 321 220 289 261 q 413 179 353 179 q 474 200 443 179 l 474 485 q 401 503 433 503 q 321 458 353 503 q 289 338 289 414 z "},"e":{"ha":740,"x_min":28,"x_max":713,"o":"m 713 347 q 676 524 713 444 q 567 650 639 603 q 390 697 494 697 q 205 653 288 697 q 75 528 122 610 q 28 336 28 446 q 79 145 28 225 q 222 25 131 65 q 431 -15 313 -15 q 591 6 513 -15 q 711 57 669 26 l 640 228 q 456 182 551 182 q 355 206 393 182 q 303 274 317 231 l 713 274 l 713 347 m 296 399 q 322 465 294 436 q 383 494 349 494 q 449 464 426 494 q 471 399 471 433 l 296 399 z "},"f":{"ha":626,"x_min":14,"x_max":626,"o":"m 125 0 l 378 0 l 378 447 l 588 447 l 564 646 l 378 646 l 378 681 q 399 747 378 722 q 457 771 421 771 q 554 744 507 771 l 626 917 q 544 958 600 939 q 440 976 488 976 q 285 946 357 976 q 169 855 213 915 q 125 708 125 794 l 125 646 l 14 646 l 14 447 l 125 447 l 125 0 z "},"g":{"ha":804,"x_min":28,"x_max":726,"o":"m 726 -22 q 680 -176 726 -108 q 549 -281 633 -243 q 356 -319 465 -319 q 201 -299 297 -319 q 47 -242 106 -279 l 124 -64 q 236 -105 185 -94 q 338 -115 288 -115 q 435 -88 397 -115 q 474 -21 474 -61 l 474 3 q 374 -15 422 -15 q 123 74 218 -15 q 28 336 28 163 q 124 605 28 513 q 385 697 221 697 q 567 631 485 697 l 600 672 l 726 672 l 726 -22 m 413 179 q 474 200 443 179 l 474 485 q 401 503 433 503 q 321 458 353 503 q 289 338 289 414 q 321 220 289 261 q 413 179 353 179 z "},"h":{"ha":861,"x_min":83,"x_max":797,"o":"m 553 696 q 736 624 675 696 q 797 435 797 553 l 797 0 l 544 0 l 544 411 q 472 492 544 492 q 410 480 450 492 q 336 453 369 468 l 336 0 l 83 0 l 83 965 l 336 981 l 336 638 q 553 696 453 696 z "},"i":{"ha":392,"x_min":58,"x_max":333,"o":"m 194 765 q 292 806 251 765 q 333 901 333 846 q 292 999 333 958 q 194 1040 251 1040 q 99 999 139 1040 q 58 901 58 958 q 99 806 58 846 q 194 765 139 765 m 69 674 l 69 0 l 322 0 l 322 674 l 69 674 z "},"j":{"ha":419,"x_min":-14,"x_max":356,"o":"m 217 765 q 123 806 165 765 q 81 901 81 847 q 121 999 81 958 q 217 1040 161 1040 q 315 999 274 1040 q 356 901 356 958 q 315 806 356 846 q 217 765 274 765 m 344 3 q 321 -119 344 -71 q 242 -202 297 -167 q 86 -269 186 -237 l -14 -87 q 56 -52 33 -71 q 85 -12 79 -33 q 92 40 92 8 l 92 674 l 344 674 l 344 3 z "},"k":{"ha":788,"x_min":83,"x_max":788,"o":"m 382 251 l 515 0 l 788 0 l 560 385 l 739 519 l 588 693 l 336 481 l 336 981 l 83 965 l 83 0 l 336 0 l 336 217 l 382 251 z "},"l":{"ha":419,"x_min":83,"x_max":336,"o":"m 83 965 l 83 0 l 336 0 l 336 981 l 83 965 z "},"m":{"ha":1279,"x_min":69,"x_max":1215,"o":"m 978 696 q 1215 435 1215 696 l 1215 0 l 963 0 l 963 411 q 951 471 963 450 q 897 492 939 492 q 840 479 879 492 q 769 453 801 467 l 769 435 l 769 0 l 517 0 l 517 411 q 505 471 517 450 q 451 492 493 492 q 394 479 433 492 q 322 453 354 467 l 322 0 l 69 0 l 69 674 l 219 674 l 264 604 q 532 696 411 696 q 724 613 665 696 q 978 696 861 696 z "},"n":{"ha":847,"x_min":69,"x_max":783,"o":"m 322 453 q 396 480 356 468 q 458 492 436 492 q 514 469 497 492 q 531 411 531 446 l 531 0 l 783 0 l 783 435 q 722 624 783 553 q 539 696 661 696 q 264 604 411 696 l 219 674 l 69 674 l 69 0 l 322 0 l 322 453 z "},"o":{"ha":819,"x_min":28,"x_max":792,"o":"m 792 333 q 741 144 792 224 q 602 25 690 65 q 404 -15 514 -15 q 131 76 235 -15 q 28 340 28 167 q 78 531 28 450 q 216 655 129 613 q 410 697 303 697 q 608 656 522 697 q 743 532 694 614 q 792 333 792 450 m 407 190 q 499 226 467 190 q 531 333 531 263 q 499 447 531 403 q 413 492 468 492 q 322 451 354 492 q 289 340 289 411 q 319 231 289 271 q 407 190 350 190 z "},"p":{"ha":804,"x_min":78,"x_max":776,"o":"m 431 697 q 681 608 586 697 q 776 346 776 519 q 680 77 776 169 q 419 -15 583 -15 q 331 -1 372 -15 l 331 -290 l 78 -304 l 78 672 l 204 672 l 243 633 q 333 680 285 663 q 431 697 381 697 m 403 179 q 483 224 451 179 q 515 344 515 268 q 483 462 515 421 q 392 503 451 503 q 331 482 363 503 l 331 197 q 403 179 371 179 z "},"q":{"ha":804,"x_min":28,"x_max":726,"o":"m 726 -289 l 474 -304 l 474 3 q 374 -15 422 -15 q 123 74 218 -15 q 28 336 28 163 q 124 605 28 513 q 385 697 221 697 q 564 633 482 697 l 600 672 l 726 672 l 726 -289 m 413 179 q 474 200 443 179 l 474 485 q 401 503 433 503 q 321 458 353 503 q 289 338 289 414 q 321 220 289 261 q 413 179 353 179 z "},"r":{"ha":549,"x_min":69,"x_max":535,"o":"m 322 396 q 425 450 365 429 q 535 471 485 471 l 483 674 q 368 649 431 674 q 257 590 306 624 l 196 672 l 69 672 l 69 0 l 322 0 l 322 396 z "},"s":{"ha":626,"x_min":31,"x_max":599,"o":"m 31 64 q 170 4 82 24 q 318 -15 258 -15 q 528 44 457 -15 q 599 210 599 103 q 533 345 599 293 q 363 433 467 397 q 311 456 331 444 q 292 475 292 467 q 311 497 292 489 q 361 506 331 506 q 441 494 397 506 q 526 465 485 483 l 597 625 q 474 681 546 665 q 343 697 403 697 q 124 638 203 697 q 44 472 44 578 q 112 338 44 389 q 285 249 179 286 q 333 227 314 239 q 351 207 351 215 q 335 185 351 193 q 293 176 318 176 q 199 190 257 176 q 101 224 142 204 l 31 64 z "},"t":{"ha":633,"x_min":14,"x_max":619,"o":"m 371 863 l 118 828 l 118 646 l 14 646 l 14 447 l 118 447 l 118 253 q 162 106 118 167 q 278 15 206 46 q 433 -15 350 -15 q 537 3 481 -15 q 619 44 593 22 l 547 217 q 450 190 500 190 q 392 215 414 190 q 371 281 371 239 l 371 447 l 571 447 l 547 646 l 371 646 l 371 863 z "},"u":{"ha":847,"x_min":64,"x_max":778,"o":"m 525 219 q 451 192 492 204 q 389 181 411 181 q 333 203 350 181 q 317 261 317 226 l 317 672 l 64 672 l 64 238 q 125 48 64 119 q 308 -24 186 -24 q 583 68 436 -24 l 656 -1 l 778 -1 l 778 672 l 525 672 l 525 219 z "},"v":{"ha":790,"x_min":28,"x_max":776,"o":"m 525 674 l 396 293 l 261 699 l 28 632 l 272 0 l 511 0 l 776 674 l 525 674 z "},"w":{"ha":1128,"x_min":14,"x_max":1114,"o":"m 863 674 l 775 292 l 675 674 l 438 674 l 344 292 l 247 699 l 14 632 l 219 0 l 450 0 l 554 349 l 660 0 l 890 0 l 1114 674 l 863 674 z "},"x":{"ha":774,"x_min":14,"x_max":760,"o":"m 476 0 l 760 0 l 531 321 l 760 674 l 481 674 l 378 511 l 260 694 l 15 636 l 233 335 l 14 0 l 299 0 l 386 144 l 476 0 z "},"y":{"ha":779,"x_min":14,"x_max":765,"o":"m 250 -3 q 195 -53 240 -29 q 78 -108 150 -78 l 163 -304 q 351 -221 265 -282 q 469 -79 438 -160 l 765 674 l 514 674 l 385 293 l 247 699 l 14 632 l 256 13 l 250 -3 z "},"z":{"ha":628,"x_min":11,"x_max":617,"o":"m 65 475 l 288 475 l 11 131 l 42 0 l 617 0 l 593 199 l 319 199 l 592 533 l 579 674 l 42 674 l 65 475 z "},"ﬁ":{"ha":1018,"x_min":14,"x_max":960,"o":"m 125 0 l 378 0 l 378 447 l 588 447 l 564 646 l 378 646 l 378 681 q 399 747 378 722 q 457 771 421 771 q 554 744 507 771 l 626 917 q 544 958 600 939 q 440 976 488 976 q 285 946 357 976 q 169 855 213 915 q 125 708 125 794 l 125 646 l 14 646 l 14 447 l 125 447 l 125 0 m 821 765 q 919 806 878 765 q 960 901 960 846 q 919 999 960 958 q 821 1040 878 1040 q 725 999 765 1040 q 685 901 685 958 q 725 806 685 846 q 821 765 765 765 m 696 674 l 696 0 l 949 0 l 949 674 l 696 674 z "},"ﬂ":{"ha":1046,"x_min":14,"x_max":963,"o":"m 125 0 l 378 0 l 378 447 l 588 447 l 564 646 l 378 646 l 378 681 q 399 747 378 722 q 457 771 421 771 q 554 744 507 771 l 626 917 q 544 958 600 939 q 440 976 488 976 q 285 946 357 976 q 169 855 213 915 q 125 708 125 794 l 125 646 l 14 646 l 14 447 l 125 447 l 125 0 m 710 965 l 710 0 l 963 0 l 963 981 l 710 965 z "},"`":{"ha":369,"x_min":14,"x_max":356,"o":"m 264 1093 l 14 1093 l 172 817 l 356 847 l 264 1093 z "},"¨":{"ha":553,"x_min":14,"x_max":539,"o":"m 129 838 q 213 871 179 838 q 246 953 246 904 q 213 1034 246 1000 q 129 1068 179 1068 q 49 1034 83 1068 q 14 953 14 1000 q 48 871 14 904 q 129 838 82 838 m 422 838 q 506 871 472 838 q 539 953 539 904 q 506 1034 539 1000 q 422 1068 472 1068 q 342 1034 376 1068 q 307 953 307 1000 q 341 871 307 904 q 422 838 375 838 z "},"¯":{"ha":431,"x_min":14,"x_max":417,"o":"m 403 1050 l 14 1050 l 14 851 l 417 851 l 403 1050 z "},"´":{"ha":369,"x_min":14,"x_max":356,"o":"m 106 1093 l 14 847 l 197 817 l 356 1093 l 106 1093 z "},"ˆ":{"ha":660,"x_min":14,"x_max":646,"o":"m 646 844 l 404 1093 l 256 1093 l 14 844 l 260 817 l 333 903 l 406 817 l 646 844 z "},"ˇ":{"ha":660,"x_min":14,"x_max":646,"o":"m 14 1065 l 256 817 l 404 817 l 646 1065 l 406 1093 l 333 1007 l 260 1093 l 14 1065 z "},"˘":{"ha":528,"x_min":14,"x_max":514,"o":"m 335 1079 q 316 1023 335 1044 q 264 1001 297 1001 q 212 1023 231 1001 q 193 1079 193 1044 l 14 1079 q 82 889 14 960 q 264 817 150 818 q 446 889 378 818 q 514 1079 514 960 l 335 1079 z "},"˙":{"ha":281,"x_min":14,"x_max":267,"o":"m 142 825 q 232 861 197 825 q 267 953 267 897 q 231 1044 267 1007 q 142 1081 196 1081 q 51 1043 89 1081 q 14 953 14 1006 q 51 862 14 899 q 142 825 88 825 z "},"˚":{"ha":369,"x_min":14,"x_max":356,"o":"m 185 1147 q 65 1100 115 1147 q 14 985 14 1053 q 64 870 14 915 q 185 825 114 825 q 305 870 254 825 q 356 985 356 915 q 332 1067 356 1029 q 269 1126 308 1104 q 185 1147 229 1147 m 188 943 q 158 956 171 943 q 146 985 146 968 q 158 1013 146 1001 q 188 1024 171 1024 q 215 1013 204 1024 q 226 985 226 1001 q 215 956 226 968 q 188 943 204 943 z "},"˜":{"ha":543,"x_min":14,"x_max":529,"o":"m 360 1049 q 350 1022 360 1036 q 329 1008 340 1008 q 298 1014 311 1008 q 264 1031 285 1019 q 228 1049 244 1043 q 190 1056 213 1056 q 65 1002 117 1056 q 14 833 14 949 l 189 833 q 199 860 189 846 q 219 874 208 874 q 251 868 239 874 q 283 851 264 863 q 319 833 303 839 q 358 826 335 826 q 480 880 431 826 q 529 1049 529 933 l 360 1049 z "},"˝":{"ha":713,"x_min":14,"x_max":699,"o":"m 106 1093 l 14 847 l 197 817 l 356 1093 l 106 1093 m 449 1093 l 357 847 l 540 817 l 699 1093 l 449 1093 z "},"˛":{"ha":404,"x_min":14,"x_max":390,"o":"m 49 7 q 24 -61 35 -19 q 14 -129 14 -103 q 38 -230 14 -183 q 108 -305 61 -276 q 219 -333 154 -333 q 319 -315 274 -333 q 390 -268 365 -297 l 306 -126 q 274 -149 288 -143 q 244 -154 260 -154 q 216 -140 228 -154 q 204 -110 204 -126 q 219 -49 204 -85 q 249 7 233 -12 l 49 7 z "},"¸":{"ha":385,"x_min":14,"x_max":371,"o":"m 69 -131 q 188 -183 188 -143 q 175 -202 188 -196 q 144 -208 163 -208 q 67 -187 121 -208 l 14 -307 q 92 -349 49 -333 q 175 -364 135 -364 q 313 -319 254 -364 q 371 -197 371 -274 q 347 -112 371 -154 q 276 -54 324 -69 l 304 18 l 129 18 l 69 -131 z "},"":{"ha":0,"x_min":14,"x_max":282,"o":"m 154 -29 q 64 -69 101 -29 q 26 -157 26 -108 q 43 -219 26 -190 q 86 -265 60 -249 q 59 -303 82 -282 q 14 -336 36 -324 l 64 -447 q 219 -336 157 -412 q 282 -178 282 -260 q 245 -71 282 -112 q 154 -29 208 -29 z "},"Þ":{"ha":925,"x_min":111,"x_max":897,"o":"m 508 833 q 705 795 617 833 q 845 680 793 757 q 897 493 897 603 q 842 310 897 385 q 695 200 786 236 q 497 164 604 164 l 364 164 l 364 0 l 111 0 l 111 944 l 364 944 l 364 833 l 508 833 m 503 363 q 599 400 561 363 q 636 493 636 438 q 599 596 636 557 q 500 635 563 635 l 364 635 l 364 363 l 503 363 z "},"Ð":{"ha":1026,"x_min":0,"x_max":985,"o":"m 539 944 q 781 885 681 944 q 933 719 882 825 q 985 478 985 614 q 928 225 985 333 q 768 58 871 117 q 533 0 665 0 l 111 0 l 111 375 l 24 375 l 0 574 l 111 574 l 111 944 l 539 944 m 517 199 q 666 271 608 199 q 724 478 724 343 q 672 672 724 597 q 526 746 619 746 l 364 746 l 364 574 l 513 574 l 536 375 l 364 375 l 364 199 l 517 199 z "},"Æ":{"ha":1371,"x_min":14,"x_max":1343,"o":"m 651 178 l 651 0 l 1343 0 l 1319 199 l 904 199 l 904 375 l 1218 375 l 1194 574 l 904 574 l 904 746 l 1301 746 l 1278 944 l 651 944 l 14 18 l 257 -18 l 385 178 l 651 178 m 525 376 l 651 554 l 651 376 l 525 376 z "},"Đ":{"ha":1026,"x_min":0,"x_max":985,"o":"m 539 944 q 781 885 681 944 q 933 719 882 825 q 985 478 985 614 q 928 225 985 333 q 768 58 871 117 q 533 0 665 0 l 111 0 l 111 375 l 24 375 l 0 574 l 111 574 l 111 944 l 539 944 m 517 199 q 666 271 608 199 q 724 478 724 343 q 672 672 724 597 q 526 746 619 746 l 364 746 l 364 574 l 513 574 l 536 375 l 364 375 l 364 199 l 517 199 z "},"Ł":{"ha":803,"x_min":0,"x_max":789,"o":"m 78 232 l 0 425 l 111 493 l 111 944 l 364 944 l 364 647 l 547 760 l 649 575 l 364 404 l 364 199 l 765 199 l 789 0 l 111 0 l 111 251 l 78 232 z "},"Œ":{"ha":1433,"x_min":42,"x_max":1406,"o":"m 714 8 q 532 -18 622 -18 q 271 44 382 -18 q 101 215 160 106 q 42 468 42 325 q 104 724 42 611 q 277 899 167 836 q 526 963 388 963 q 714 929 624 963 l 714 944 l 1340 944 l 1364 746 l 967 746 l 967 574 l 1257 574 l 1281 375 l 967 375 l 967 199 l 1382 199 l 1406 0 l 714 0 l 714 8 m 539 189 q 714 238 629 189 l 714 719 q 612 749 649 742 q 529 756 575 756 q 420 719 472 756 q 335 618 368 683 q 303 469 303 553 q 336 321 303 385 q 424 223 369 257 q 539 189 479 189 z "},"Ø":{"ha":1060,"x_min":42,"x_max":1018,"o":"m 529 964 q 790 900 679 964 q 959 725 900 836 q 1018 478 1018 614 q 956 220 1018 333 q 783 44 894 107 q 529 -19 672 -19 q 272 45 382 -19 q 101 221 161 110 q 42 468 42 332 q 104 724 42 611 q 278 901 167 838 q 529 964 389 964 m 532 753 q 416 717 468 753 q 333 617 364 682 q 301 469 301 553 q 357 276 301 351 l 553 751 l 532 753 m 528 192 q 694 266 629 192 q 758 478 758 340 q 710 657 758 582 l 510 192 l 528 192 z "},"ß":{"ha":917,"x_min":83,"x_max":875,"o":"m 336 635 q 374 728 336 694 q 457 763 411 763 q 542 736 510 763 q 575 674 575 710 q 538 608 575 639 q 454 578 501 578 l 417 578 l 417 397 l 526 397 q 592 371 565 397 q 618 297 618 344 q 588 231 618 256 q 515 207 558 207 l 410 207 l 410 0 l 539 0 q 715 34 639 0 q 833 131 790 68 q 875 278 875 193 q 835 416 875 350 q 735 506 794 482 q 805 592 782 538 q 828 699 828 646 q 779 844 828 781 q 644 941 731 907 q 449 975 557 975 q 256 931 339 975 q 128 808 174 886 q 83 628 83 729 l 83 0 l 336 0 l 336 635 z "},"ð":{"ha":819,"x_min":28,"x_max":792,"o":"m 553 847 q 730 617 668 747 q 792 353 792 488 q 744 158 792 242 q 613 30 697 75 q 419 -15 528 -15 q 219 24 308 -15 q 79 144 131 64 q 28 340 28 224 q 77 530 28 449 q 208 654 126 611 q 382 697 289 697 l 406 696 q 349 753 381 725 l 147 658 l 78 806 l 176 853 q 74 886 131 871 l 158 1042 q 392 957 283 1014 l 572 1044 l 647 892 l 553 847 m 407 190 q 499 226 467 190 q 531 333 531 263 q 517 467 531 406 q 413 492 463 492 q 322 451 354 492 q 289 340 289 411 q 319 231 289 271 q 407 190 350 190 z "},"þ":{"ha":804,"x_min":78,"x_max":776,"o":"m 431 697 q 681 608 586 697 q 776 346 776 519 q 680 77 776 169 q 419 -15 583 -15 q 331 3 381 -15 l 331 -290 l 78 -304 l 78 965 l 331 981 l 331 675 q 431 697 389 697 m 403 179 q 483 224 451 179 q 515 344 515 268 q 483 462 515 421 q 392 503 451 503 q 331 482 363 503 l 331 197 q 403 179 371 179 z "},"ƒ":{"ha":778,"x_min":0,"x_max":778,"o":"m 263 428 l 263 125 q 238 59 263 83 q 169 35 214 35 q 122 42 150 35 q 72 61 94 49 l 0 -111 q 83 -152 26 -133 q 186 -171 139 -171 q 350 -140 275 -171 q 470 -49 425 -110 q 515 97 515 11 l 515 428 l 725 428 l 701 626 l 515 626 l 515 681 q 540 747 515 722 q 608 771 564 771 q 656 764 628 771 q 706 744 683 757 l 778 917 q 695 958 751 939 q 592 976 639 976 q 428 946 503 976 q 308 855 353 915 q 263 708 263 794 l 263 626 l 151 626 l 151 428 l 263 428 z "},"æ":{"ha":1101,"x_min":44,"x_max":1074,"o":"m 664 274 q 716 206 678 231 q 817 182 754 182 q 1001 228 913 182 l 1072 57 q 952 6 1031 26 q 792 -15 874 -15 q 514 67 621 -15 q 426 8 476 31 q 297 -15 376 -15 q 108 47 172 -15 q 44 217 44 110 q 308 414 44 414 l 389 414 q 360 472 383 453 q 301 492 338 492 q 220 480 268 492 q 133 451 172 468 l 67 633 q 206 678 125 660 q 364 697 286 697 q 547 643 478 697 q 751 697 639 697 q 928 650 856 697 q 1037 524 1000 603 q 1074 347 1074 444 l 1074 274 l 664 274 m 832 399 q 810 464 832 433 q 744 494 788 494 q 683 465 710 494 q 657 399 656 436 l 832 399 m 256 221 q 269 187 256 200 q 301 174 282 174 q 359 184 335 174 q 408 213 383 194 q 393 275 397 244 l 313 275 q 272 260 288 275 q 256 221 256 244 z "},"đ":{"ha":810,"x_min":28,"x_max":810,"o":"m 726 764 l 726 0 l 599 0 l 560 51 q 463 3 514 22 q 374 -15 411 -15 q 123 74 218 -15 q 28 336 28 163 q 124 605 28 513 q 385 697 221 697 q 474 679 424 697 l 474 764 l 353 764 l 329 921 l 474 921 l 474 965 l 726 981 l 726 921 l 786 921 l 810 764 l 726 764 m 289 338 q 321 220 289 261 q 413 179 353 179 q 474 200 443 179 l 474 485 q 401 503 433 503 q 321 458 353 503 q 289 338 289 414 z "},"œ":{"ha":1189,"x_min":28,"x_max":1161,"o":"m 751 274 q 803 206 765 231 q 904 182 842 182 q 1089 228 1000 182 l 1160 57 q 1040 6 1118 26 q 879 -15 961 -15 q 624 50 726 -15 q 396 -15 536 -15 q 128 77 229 -15 q 28 336 28 169 q 74 529 28 447 q 204 654 121 611 q 396 697 288 697 q 621 633 535 697 q 839 697 713 697 q 1015 650 943 697 q 1124 524 1088 603 q 1161 347 1161 444 l 1161 274 l 751 274 m 919 399 q 897 464 919 433 q 832 494 875 494 q 770 465 797 494 q 744 399 743 436 l 919 399 m 289 336 q 328 229 289 268 q 421 190 367 190 q 500 203 464 190 q 476 336 476 263 q 501 479 476 417 q 421 492 468 492 q 328 449 368 492 q 289 336 289 406 z "},"ĺ":{"ha":419,"x_min":83,"x_max":458,"o":"m 208 1294 l 117 1049 l 300 1018 l 458 1294 l 208 1294 m 83 965 l 83 0 l 336 0 l 336 981 l 83 965 z "},"ł":{"ha":536,"x_min":0,"x_max":536,"o":"m 389 981 l 136 965 l 136 533 l 0 439 l 56 217 l 136 272 l 136 0 l 389 0 l 389 447 l 536 549 l 479 771 l 389 708 l 389 981 z "},"ı":{"ha":392,"x_min":69,"x_max":322,"o":"m 69 674 l 69 0 l 322 0 l 322 674 l 69 674 z "},"ø":{"ha":819,"x_min":28,"x_max":792,"o":"m 410 697 q 608 656 522 697 q 743 532 694 614 q 792 333 792 450 q 741 144 792 224 q 602 25 690 65 q 404 -15 514 -15 q 131 76 235 -15 q 28 340 28 167 q 78 531 28 450 q 216 655 129 613 q 410 697 303 697 m 413 492 q 322 451 354 492 q 289 340 289 411 q 299 271 289 299 l 419 492 l 413 492 m 407 190 q 499 226 467 190 q 531 333 531 263 q 521 401 531 374 l 401 190 l 407 190 z "},"À":{"ha":988,"x_min":14,"x_max":974,"o":"m 265 0 l 331 186 l 657 186 l 725 -14 l 974 11 l 621 944 l 368 944 l 14 0 l 265 0 m 490 642 l 585 385 l 400 385 l 490 642 m 536 1294 l 286 1294 l 444 1018 l 628 1049 l 536 1294 z "},"Á":{"ha":988,"x_min":14,"x_max":974,"o":"m 265 0 l 331 186 l 657 186 l 725 -14 l 974 11 l 621 944 l 368 944 l 14 0 l 265 0 m 490 642 l 585 385 l 400 385 l 490 642 m 469 1294 l 378 1049 l 561 1018 l 719 1294 l 469 1294 z "},"Â":{"ha":988,"x_min":14,"x_max":974,"o":"m 265 0 l 331 186 l 657 186 l 725 -14 l 974 11 l 621 944 l 368 944 l 14 0 l 265 0 m 490 642 l 585 385 l 400 385 l 490 642 m 814 1054 l 572 1303 l 424 1303 l 182 1054 l 428 1026 l 501 1113 l 574 1026 l 814 1054 z "},"Ã":{"ha":988,"x_min":14,"x_max":974,"o":"m 265 0 l 331 186 l 657 186 l 725 -14 l 974 11 l 621 944 l 368 944 l 14 0 l 265 0 m 490 642 l 585 385 l 400 385 l 490 642 m 581 1257 q 571 1231 581 1244 q 550 1217 561 1217 q 519 1222 532 1217 q 485 1239 506 1228 q 449 1258 465 1251 q 411 1264 433 1264 q 286 1210 338 1264 q 235 1042 235 1157 l 410 1042 q 419 1068 410 1054 q 440 1082 429 1082 q 472 1076 460 1082 q 504 1060 485 1071 q 540 1041 524 1047 q 579 1035 556 1035 q 701 1088 651 1035 q 750 1257 750 1142 l 581 1257 z "},"Ä":{"ha":988,"x_min":14,"x_max":974,"o":"m 265 0 l 331 186 l 657 186 l 725 -14 l 974 11 l 621 944 l 368 944 l 14 0 l 265 0 m 490 642 l 585 385 l 400 385 l 490 642 m 354 1046 q 438 1079 404 1046 q 471 1161 471 1113 q 438 1242 471 1208 q 354 1276 404 1276 q 274 1242 308 1276 q 239 1161 239 1208 q 273 1079 239 1113 q 354 1046 307 1046 m 647 1046 q 731 1079 697 1046 q 764 1161 764 1113 q 731 1242 764 1208 q 647 1276 697 1276 q 567 1242 601 1276 q 532 1161 532 1208 q 566 1079 532 1113 q 647 1046 600 1046 z "},"Å":{"ha":988,"x_min":14,"x_max":974,"o":"m 265 0 l 331 186 l 657 186 l 725 -14 l 974 11 l 621 944 l 368 944 l 14 0 l 265 0 m 490 642 l 585 385 l 400 385 l 490 642 m 497 1356 q 377 1308 428 1356 q 326 1193 326 1261 q 376 1078 326 1124 q 497 1033 426 1033 q 617 1078 567 1033 q 668 1193 668 1124 q 644 1275 668 1238 q 581 1334 621 1313 q 497 1356 542 1356 m 500 1151 q 471 1164 483 1151 q 458 1193 458 1176 q 471 1221 458 1210 q 500 1232 483 1232 q 528 1221 517 1232 q 539 1193 539 1210 q 528 1164 539 1176 q 500 1151 517 1151 z "},"Ă":{"ha":988,"x_min":14,"x_max":974,"o":"m 265 0 l 331 186 l 657 186 l 725 -14 l 974 11 l 621 944 l 368 944 l 14 0 l 265 0 m 490 642 l 585 385 l 400 385 l 490 642 m 571 1289 q 552 1233 571 1254 q 500 1211 533 1211 q 448 1233 467 1211 q 429 1289 429 1254 l 250 1289 q 318 1099 250 1169 q 500 1026 386 1028 q 682 1099 614 1028 q 750 1289 750 1169 l 571 1289 z "},"Ą":{"ha":988,"x_min":14,"x_max":1094,"o":"m 1094 -268 q 1024 -315 1069 -297 q 924 -333 978 -333 q 812 -305 858 -333 q 742 -230 765 -276 q 718 -129 718 -183 q 726 -73 718 -107 q 744 -12 733 -39 l 725 -14 l 657 186 l 331 186 l 265 0 l 14 0 l 368 944 l 621 944 l 974 11 l 932 7 l 953 7 q 923 -49 938 -12 q 908 -110 908 -85 q 920 -140 908 -126 q 949 -154 932 -154 q 978 -149 964 -154 q 1010 -126 992 -143 l 1094 -268 m 490 642 l 400 385 l 585 385 l 490 642 z "},"Ā":{"ha":988,"x_min":14,"x_max":974,"o":"m 265 0 l 331 186 l 657 186 l 725 -14 l 974 11 l 621 944 l 368 944 l 14 0 l 265 0 m 490 642 l 585 385 l 400 385 l 490 642 m 683 1258 l 294 1258 l 294 1060 l 697 1060 l 683 1258 z "},"Ç":{"ha":828,"x_min":42,"x_max":814,"o":"m 603 -54 q 674 -112 650 -69 q 697 -197 697 -154 q 639 -319 697 -274 q 501 -364 581 -364 q 418 -349 461 -364 q 340 -307 375 -333 l 393 -187 q 471 -208 447 -208 q 501 -202 489 -208 q 514 -183 514 -196 q 396 -131 514 -143 l 443 -12 q 228 71 318 6 q 90 238 138 136 q 42 468 42 340 q 104 724 42 611 q 277 899 167 836 q 526 963 388 963 q 674 942 599 963 q 804 885 750 921 l 729 714 q 616 747 656 739 q 529 756 576 756 q 420 719 472 756 q 335 618 368 683 q 303 469 303 553 q 336 321 303 385 q 424 223 369 257 q 539 189 479 189 q 718 240 632 189 l 814 51 q 619 -11 740 6 l 603 -54 z "},"Ć":{"ha":828,"x_min":42,"x_max":814,"o":"m 804 885 q 674 942 750 921 q 526 963 599 963 q 277 899 388 963 q 104 724 167 836 q 42 468 42 611 q 101 215 42 325 q 271 44 160 106 q 532 -18 382 -18 q 683 1 606 -18 q 814 51 760 19 l 718 240 q 539 189 632 189 q 424 223 479 189 q 336 321 369 257 q 303 469 303 385 q 335 618 303 553 q 420 719 368 683 q 529 756 472 756 q 616 747 576 756 q 729 714 656 739 l 804 885 m 497 1294 l 406 1049 l 589 1018 l 747 1294 l 497 1294 z "},"Č":{"ha":828,"x_min":42,"x_max":839,"o":"m 804 885 q 674 942 750 921 q 526 963 599 963 q 277 899 388 963 q 104 724 167 836 q 42 468 42 611 q 101 215 42 325 q 271 44 160 106 q 532 -18 382 -18 q 683 1 606 -18 q 814 51 760 19 l 718 240 q 539 189 632 189 q 424 223 479 189 q 336 321 369 257 q 303 469 303 385 q 335 618 303 553 q 420 719 368 683 q 529 756 472 756 q 616 747 576 756 q 729 714 656 739 l 804 885 m 207 1275 l 449 1026 l 597 1026 l 839 1275 l 599 1303 l 526 1217 l 453 1303 l 207 1275 z "},"Ď":{"ha":1026,"x_min":111,"x_max":985,"o":"m 533 0 q 768 58 665 0 q 928 225 871 117 q 985 478 985 333 q 933 719 985 614 q 781 885 882 825 q 539 944 681 944 l 111 944 l 111 0 l 533 0 m 526 746 q 672 672 619 746 q 724 478 724 597 q 666 271 724 343 q 517 199 608 199 l 364 199 l 364 746 l 526 746 m 179 1275 l 421 1026 l 569 1026 l 811 1275 l 571 1303 l 499 1217 l 425 1303 l 179 1275 z "},"È":{"ha":831,"x_min":111,"x_max":803,"o":"m 364 199 l 364 375 l 678 375 l 654 574 l 364 574 l 364 746 l 761 746 l 738 944 l 111 944 l 111 0 l 803 0 l 779 199 l 364 199 m 503 1294 l 253 1294 l 411 1018 l 594 1049 l 503 1294 z "},"É":{"ha":831,"x_min":111,"x_max":803,"o":"m 364 199 l 364 375 l 678 375 l 654 574 l 364 574 l 364 746 l 761 746 l 738 944 l 111 944 l 111 0 l 803 0 l 779 199 l 364 199 m 436 1294 l 344 1049 l 528 1018 l 686 1294 l 436 1294 z "},"Ê":{"ha":831,"x_min":111,"x_max":803,"o":"m 364 199 l 364 375 l 678 375 l 654 574 l 364 574 l 364 746 l 761 746 l 738 944 l 111 944 l 111 0 l 803 0 l 779 199 l 364 199 m 781 1054 l 539 1303 l 390 1303 l 149 1054 l 394 1026 l 468 1113 l 540 1026 l 781 1054 z "},"Ë":{"ha":831,"x_min":111,"x_max":803,"o":"m 364 199 l 364 375 l 678 375 l 654 574 l 364 574 l 364 746 l 761 746 l 738 944 l 111 944 l 111 0 l 803 0 l 779 199 l 364 199 m 321 1046 q 404 1079 371 1046 q 438 1161 438 1113 q 404 1242 438 1208 q 321 1276 371 1276 q 240 1242 275 1276 q 206 1161 206 1208 q 240 1079 206 1113 q 321 1046 274 1046 m 614 1046 q 697 1079 664 1046 q 731 1161 731 1113 q 697 1242 731 1208 q 614 1276 664 1276 q 533 1242 568 1276 q 499 1161 499 1208 q 533 1079 499 1113 q 614 1046 567 1046 z "},"Ē":{"ha":831,"x_min":111,"x_max":803,"o":"m 364 199 l 364 375 l 678 375 l 654 574 l 364 574 l 364 746 l 761 746 l 738 944 l 111 944 l 111 0 l 803 0 l 779 199 l 364 199 m 650 1258 l 261 1258 l 261 1060 l 664 1060 l 650 1258 z "},"Ė":{"ha":831,"x_min":111,"x_max":803,"o":"m 364 199 l 364 375 l 678 375 l 654 574 l 364 574 l 364 746 l 761 746 l 738 944 l 111 944 l 111 0 l 803 0 l 779 199 l 364 199 m 468 1033 q 558 1069 524 1033 q 593 1161 593 1106 q 558 1252 593 1215 q 468 1289 522 1289 q 378 1251 415 1289 q 340 1161 340 1214 q 377 1070 340 1107 q 468 1033 414 1033 z "},"Ę":{"ha":831,"x_min":111,"x_max":822,"o":"m 822 -268 q 751 -315 797 -297 q 651 -333 706 -333 q 540 -305 586 -333 q 469 -230 493 -276 q 446 -129 446 -183 q 456 -67 446 -106 q 478 0 465 -28 l 111 0 l 111 944 l 738 944 l 761 746 l 364 746 l 364 574 l 654 574 l 678 375 l 364 375 l 364 199 l 779 199 l 803 0 l 675 0 q 649 -55 661 -22 q 636 -110 636 -87 q 648 -140 636 -126 q 676 -154 660 -154 q 706 -149 692 -154 q 738 -126 719 -143 l 822 -268 z "},"Ě":{"ha":831,"x_min":111,"x_max":803,"o":"m 364 199 l 364 375 l 678 375 l 654 574 l 364 574 l 364 746 l 761 746 l 738 944 l 111 944 l 111 0 l 803 0 l 779 199 l 364 199 m 146 1275 l 388 1026 l 536 1026 l 778 1275 l 538 1303 l 465 1217 l 392 1303 l 146 1275 z "},"Ğ":{"ha":925,"x_min":42,"x_max":869,"o":"m 642 197 q 553 189 594 189 q 432 218 489 189 q 339 310 375 247 q 303 469 303 374 q 341 626 303 561 q 438 723 379 690 q 557 756 497 756 q 663 747 610 756 q 785 714 715 738 l 860 885 q 719 942 807 921 q 554 963 631 963 q 297 903 414 963 q 110 731 179 843 q 42 468 42 618 q 103 207 42 317 q 279 40 165 97 q 546 -18 393 -18 q 722 1 625 -18 q 869 51 818 19 l 869 544 l 501 544 l 479 360 l 642 360 l 642 197 m 624 1289 q 605 1233 624 1254 q 553 1211 586 1211 q 501 1233 519 1211 q 482 1289 482 1254 l 303 1289 q 371 1099 303 1169 q 553 1026 439 1028 q 735 1099 667 1028 q 803 1289 803 1169 l 624 1289 z "},"Ì":{"ha":475,"x_min":29,"x_max":371,"o":"m 111 944 l 111 0 l 364 0 l 364 944 l 111 944 m 279 1294 l 29 1294 l 188 1018 l 371 1049 l 279 1294 z "},"Í":{"ha":475,"x_min":111,"x_max":463,"o":"m 111 944 l 111 0 l 364 0 l 364 944 l 111 944 m 213 1294 l 121 1049 l 304 1018 l 463 1294 l 213 1294 z "},"Î":{"ha":475,"x_min":-75,"x_max":557,"o":"m 111 944 l 111 0 l 364 0 l 364 944 l 111 944 m 557 1054 l 315 1303 l 167 1303 l -75 1054 l 171 1026 l 244 1113 l 317 1026 l 557 1054 z "},"Ï":{"ha":475,"x_min":-18,"x_max":507,"o":"m 111 944 l 111 0 l 364 0 l 364 944 l 111 944 m 97 1046 q 181 1079 147 1046 q 214 1161 214 1113 q 181 1242 214 1208 q 97 1276 147 1276 q 17 1242 51 1276 q -18 1161 -18 1208 q 16 1079 -18 1113 q 97 1046 50 1046 m 390 1046 q 474 1079 440 1046 q 507 1161 507 1113 q 474 1242 507 1208 q 390 1276 440 1276 q 310 1242 344 1276 q 275 1161 275 1208 q 309 1079 275 1113 q 390 1046 343 1046 z "},"Ī":{"ha":475,"x_min":38,"x_max":440,"o":"m 111 944 l 111 0 l 364 0 l 364 944 l 111 944 m 426 1258 l 38 1258 l 38 1060 l 440 1060 l 426 1258 z "},"Į":{"ha":475,"x_min":86,"x_max":463,"o":"m 463 -268 q 392 -315 438 -297 q 292 -333 346 -333 q 180 -305 226 -333 q 110 -230 133 -276 q 86 -129 86 -183 q 96 -67 86 -106 q 118 0 106 -28 l 111 0 l 111 944 l 364 944 l 364 0 l 315 0 q 289 -55 301 -22 q 276 -110 276 -87 q 288 -140 276 -126 q 317 -154 300 -154 q 346 -149 332 -154 q 378 -126 360 -143 l 463 -268 z "},"İ":{"ha":475,"x_min":111,"x_max":369,"o":"m 111 944 l 111 0 l 364 0 l 364 944 l 111 944 m 244 1033 q 335 1069 300 1033 q 369 1161 369 1106 q 334 1252 369 1215 q 244 1289 299 1289 q 154 1251 192 1289 q 117 1161 117 1214 q 153 1070 117 1107 q 244 1033 190 1033 z "},"Ĺ":{"ha":803,"x_min":111,"x_max":789,"o":"m 364 944 l 111 944 l 111 0 l 789 0 l 765 199 l 364 199 l 364 944 m 386 1294 l 294 1049 l 478 1018 l 636 1294 l 386 1294 z "},"Ľ":{"ha":803,"x_min":111,"x_max":789,"o":"m 364 944 l 111 944 l 111 0 l 789 0 l 765 199 l 364 199 l 364 944 m 660 1031 q 569 991 607 1031 q 532 903 532 951 q 549 840 532 869 q 592 794 565 811 q 565 757 588 778 q 519 724 542 736 l 569 613 q 725 724 663 647 q 788 882 788 800 q 751 989 788 947 q 660 1031 714 1031 z "},"Ñ":{"ha":1074,"x_min":111,"x_max":963,"o":"m 726 0 l 963 0 l 963 944 l 710 944 l 710 432 l 346 944 l 111 944 l 111 0 l 364 0 l 364 497 l 726 0 m 611 1257 q 601 1231 611 1244 q 581 1217 592 1217 q 549 1222 563 1217 q 515 1239 536 1228 q 480 1258 496 1251 q 442 1264 464 1264 q 317 1210 368 1264 q 265 1042 265 1157 l 440 1042 q 450 1068 440 1054 q 471 1082 460 1082 q 503 1076 490 1082 q 535 1060 515 1071 q 570 1041 554 1047 q 610 1035 586 1035 q 731 1088 682 1035 q 781 1257 781 1142 l 611 1257 z "},"Ń":{"ha":1074,"x_min":111,"x_max":963,"o":"m 726 0 l 963 0 l 963 944 l 710 944 l 710 432 l 346 944 l 111 944 l 111 0 l 364 0 l 364 497 l 726 0 m 500 1294 l 408 1049 l 592 1018 l 750 1294 l 500 1294 z "},"Ň":{"ha":1074,"x_min":111,"x_max":963,"o":"m 726 0 l 963 0 l 963 944 l 710 944 l 710 432 l 346 944 l 111 944 l 111 0 l 364 0 l 364 497 l 726 0 m 210 1275 l 451 1026 l 600 1026 l 842 1275 l 601 1303 l 529 1217 l 456 1303 l 210 1275 z "},"Ò":{"ha":1060,"x_min":42,"x_max":1018,"o":"m 529 964 q 278 901 389 964 q 104 724 167 838 q 42 468 42 611 q 101 221 42 332 q 272 45 161 110 q 529 -19 382 -19 q 783 44 672 -19 q 956 220 894 107 q 1018 478 1018 333 q 959 725 1018 614 q 790 900 900 836 q 529 964 679 964 m 301 469 q 333 617 301 553 q 416 717 364 682 q 532 753 468 753 q 697 676 635 753 q 758 478 758 599 q 694 266 758 340 q 528 192 629 192 q 362 269 422 192 q 301 469 301 347 m 565 1294 l 315 1294 l 474 1018 l 657 1049 l 565 1294 z "},"Ó":{"ha":1060,"x_min":42,"x_max":1018,"o":"m 529 964 q 278 901 389 964 q 104 724 167 838 q 42 468 42 611 q 101 221 42 332 q 272 45 161 110 q 529 -19 382 -19 q 783 44 672 -19 q 956 220 894 107 q 1018 478 1018 333 q 959 725 1018 614 q 790 900 900 836 q 529 964 679 964 m 301 469 q 333 617 301 553 q 416 717 364 682 q 532 753 468 753 q 697 676 635 753 q 758 478 758 599 q 694 266 758 340 q 528 192 629 192 q 362 269 422 192 q 301 469 301 347 m 499 1294 l 407 1049 l 590 1018 l 749 1294 l 499 1294 z "},"Ô":{"ha":1060,"x_min":42,"x_max":1018,"o":"m 529 964 q 278 901 389 964 q 104 724 167 838 q 42 468 42 611 q 101 221 42 332 q 272 45 161 110 q 529 -19 382 -19 q 783 44 672 -19 q 956 220 894 107 q 1018 478 1018 333 q 959 725 1018 614 q 790 900 900 836 q 529 964 679 964 m 301 469 q 333 617 301 553 q 416 717 364 682 q 532 753 468 753 q 697 676 635 753 q 758 478 758 599 q 694 266 758 340 q 528 192 629 192 q 362 269 422 192 q 301 469 301 347 m 843 1054 l 601 1303 l 453 1303 l 211 1054 l 457 1026 l 531 1113 l 603 1026 l 843 1054 z "},"Õ":{"ha":1060,"x_min":42,"x_max":1018,"o":"m 529 964 q 278 901 389 964 q 104 724 167 838 q 42 468 42 611 q 101 221 42 332 q 272 45 161 110 q 529 -19 382 -19 q 783 44 672 -19 q 956 220 894 107 q 1018 478 1018 333 q 959 725 1018 614 q 790 900 900 836 q 529 964 679 964 m 301 469 q 333 617 301 553 q 416 717 364 682 q 532 753 468 753 q 697 676 635 753 q 758 478 758 599 q 694 266 758 340 q 528 192 629 192 q 362 269 422 192 q 301 469 301 347 m 610 1257 q 600 1231 610 1244 q 579 1217 590 1217 q 548 1222 561 1217 q 514 1239 535 1228 q 478 1258 494 1251 q 440 1264 463 1264 q 315 1210 367 1264 q 264 1042 264 1157 l 439 1042 q 449 1068 439 1054 q 469 1082 458 1082 q 501 1076 489 1082 q 533 1060 514 1071 q 569 1041 553 1047 q 608 1035 585 1035 q 730 1088 681 1035 q 779 1257 779 1142 l 610 1257 z "},"Ö":{"ha":1060,"x_min":42,"x_max":1018,"o":"m 529 964 q 278 901 389 964 q 104 724 167 838 q 42 468 42 611 q 101 221 42 332 q 272 45 161 110 q 529 -19 382 -19 q 783 44 672 -19 q 956 220 894 107 q 1018 478 1018 333 q 959 725 1018 614 q 790 900 900 836 q 529 964 679 964 m 301 469 q 333 617 301 553 q 416 717 364 682 q 532 753 468 753 q 697 676 635 753 q 758 478 758 599 q 694 266 758 340 q 528 192 629 192 q 362 269 422 192 q 301 469 301 347 m 383 1046 q 467 1079 433 1046 q 500 1161 500 1113 q 467 1242 500 1208 q 383 1276 433 1276 q 303 1242 338 1276 q 268 1161 268 1208 q 302 1079 268 1113 q 383 1046 336 1046 m 676 1046 q 760 1079 726 1046 q 793 1161 793 1113 q 760 1242 793 1208 q 676 1276 726 1276 q 596 1242 631 1276 q 561 1161 561 1208 q 595 1079 561 1113 q 676 1046 629 1046 z "},"Ō":{"ha":1060,"x_min":42,"x_max":1018,"o":"m 529 964 q 278 901 389 964 q 104 724 167 838 q 42 468 42 611 q 101 221 42 332 q 272 45 161 110 q 529 -19 382 -19 q 783 44 672 -19 q 956 220 894 107 q 1018 478 1018 333 q 959 725 1018 614 q 790 900 900 836 q 529 964 679 964 m 301 469 q 333 617 301 553 q 416 717 364 682 q 532 753 468 753 q 697 676 635 753 q 758 478 758 599 q 694 266 758 340 q 528 192 629 192 q 362 269 422 192 q 301 469 301 347 m 713 1258 l 324 1258 l 324 1060 l 726 1060 l 713 1258 z "},"Ő":{"ha":1060,"x_min":42,"x_max":1018,"o":"m 529 964 q 278 901 389 964 q 104 724 167 838 q 42 468 42 611 q 101 221 42 332 q 272 45 161 110 q 529 -19 382 -19 q 783 44 672 -19 q 956 220 894 107 q 1018 478 1018 333 q 959 725 1018 614 q 790 900 900 836 q 529 964 679 964 m 301 469 q 333 617 301 553 q 416 717 364 682 q 532 753 468 753 q 697 676 635 753 q 758 478 758 599 q 694 266 758 340 q 528 192 629 192 q 362 269 422 192 q 301 469 301 347 m 340 1294 l 249 1049 l 432 1018 l 590 1294 l 340 1294 m 683 1294 l 592 1049 l 775 1018 l 933 1294 l 683 1294 z "},"Ŕ":{"ha":992,"x_min":111,"x_max":978,"o":"m 364 0 l 364 297 l 532 297 l 685 0 l 978 0 l 769 372 q 863 476 829 413 q 897 622 897 539 q 788 864 897 783 q 508 944 678 944 l 111 944 l 111 0 l 364 0 m 500 746 q 601 715 565 746 q 636 622 636 683 q 599 531 636 567 q 503 496 561 496 l 364 496 l 364 746 l 500 746 m 469 1294 l 378 1049 l 561 1018 l 719 1294 l 469 1294 z "},"Ř":{"ha":992,"x_min":111,"x_max":978,"o":"m 364 0 l 364 297 l 532 297 l 685 0 l 978 0 l 769 372 q 863 476 829 413 q 897 622 897 539 q 788 864 897 783 q 508 944 678 944 l 111 944 l 111 0 l 364 0 m 500 746 q 601 715 565 746 q 636 622 636 683 q 599 531 636 567 q 503 496 561 496 l 364 496 l 364 746 l 500 746 m 179 1275 l 421 1026 l 569 1026 l 811 1275 l 571 1303 l 499 1217 l 425 1303 l 179 1275 z "},"Ś":{"ha":760,"x_min":42,"x_max":732,"o":"m 46 58 q 191 4 100 26 q 356 -18 282 -18 q 555 18 469 -18 q 686 117 640 54 q 732 260 732 179 q 691 390 732 332 q 592 490 650 447 q 446 582 533 532 l 396 610 q 324 652 346 636 q 303 689 303 668 q 328 736 303 717 q 396 756 354 756 q 483 747 443 756 q 596 714 522 739 l 671 885 q 541 942 617 921 q 393 963 465 963 q 208 928 288 963 q 85 831 129 893 q 42 692 42 769 q 83 560 42 618 q 178 465 125 501 q 325 372 231 428 l 368 347 q 447 298 422 315 q 471 263 471 281 q 438 212 471 235 q 349 189 404 189 q 233 208 299 189 q 129 249 167 226 l 46 58 m 364 1294 l 272 1049 l 456 1018 l 614 1294 l 364 1294 z "},"Š":{"ha":760,"x_min":42,"x_max":732,"o":"m 46 58 q 191 4 100 26 q 356 -18 282 -18 q 555 18 469 -18 q 686 117 640 54 q 732 260 732 179 q 691 390 732 332 q 592 490 650 447 q 446 582 533 532 l 396 610 q 324 652 346 636 q 303 689 303 668 q 328 736 303 717 q 396 756 354 756 q 483 747 443 756 q 596 714 522 739 l 671 885 q 541 942 617 921 q 393 963 465 963 q 208 928 288 963 q 85 831 129 893 q 42 692 42 769 q 83 560 42 618 q 178 465 125 501 q 325 372 231 428 l 368 347 q 447 298 422 315 q 471 263 471 281 q 438 212 471 235 q 349 189 404 189 q 233 208 299 189 q 129 249 167 226 l 46 58 m 74 1275 l 315 1026 l 464 1026 l 706 1275 l 465 1303 l 393 1217 l 319 1303 l 74 1275 z "},"Ť":{"ha":860,"x_min":14,"x_max":846,"o":"m 14 746 l 292 746 l 292 0 l 544 0 l 544 746 l 846 746 l 822 944 l 14 944 l 14 746 m 107 1275 l 349 1026 l 497 1026 l 739 1275 l 499 1303 l 426 1217 l 353 1303 l 107 1275 z "},"Ù":{"ha":1042,"x_min":97,"x_max":944,"o":"m 97 361 q 150 155 97 240 q 299 25 203 69 q 521 -19 394 -19 q 743 25 647 -19 q 892 155 839 69 q 944 361 944 240 l 944 944 l 692 944 l 692 374 q 644 240 692 288 q 521 192 597 192 q 397 240 444 192 q 350 374 350 288 l 350 944 l 97 944 l 97 361 m 557 1294 l 307 1294 l 465 1018 l 649 1049 l 557 1294 z "},"Ú":{"ha":1042,"x_min":97,"x_max":944,"o":"m 97 361 q 150 155 97 240 q 299 25 203 69 q 521 -19 394 -19 q 743 25 647 -19 q 892 155 839 69 q 944 361 944 240 l 944 944 l 692 944 l 692 374 q 644 240 692 288 q 521 192 597 192 q 397 240 444 192 q 350 374 350 288 l 350 944 l 97 944 l 97 361 m 490 1294 l 399 1049 l 582 1018 l 740 1294 l 490 1294 z "},"Û":{"ha":1042,"x_min":97,"x_max":944,"o":"m 97 361 q 150 155 97 240 q 299 25 203 69 q 521 -19 394 -19 q 743 25 647 -19 q 892 155 839 69 q 944 361 944 240 l 944 944 l 692 944 l 692 374 q 644 240 692 288 q 521 192 597 192 q 397 240 444 192 q 350 374 350 288 l 350 944 l 97 944 l 97 361 m 835 1054 l 593 1303 l 444 1303 l 203 1054 l 449 1026 l 522 1113 l 594 1026 l 835 1054 z "},"Ü":{"ha":1042,"x_min":97,"x_max":944,"o":"m 97 361 q 150 155 97 240 q 299 25 203 69 q 521 -19 394 -19 q 743 25 647 -19 q 892 155 839 69 q 944 361 944 240 l 944 944 l 692 944 l 692 374 q 644 240 692 288 q 521 192 597 192 q 397 240 444 192 q 350 374 350 288 l 350 944 l 97 944 l 97 361 m 375 1046 q 458 1079 425 1046 q 492 1161 492 1113 q 458 1242 492 1208 q 375 1276 425 1276 q 294 1242 329 1276 q 260 1161 260 1208 q 294 1079 260 1113 q 375 1046 328 1046 m 668 1046 q 751 1079 718 1046 q 785 1161 785 1113 q 751 1242 785 1208 q 668 1276 718 1276 q 588 1242 622 1276 q 553 1161 553 1208 q 587 1079 553 1113 q 668 1046 621 1046 z "},"Ū":{"ha":1042,"x_min":97,"x_max":944,"o":"m 97 361 q 150 155 97 240 q 299 25 203 69 q 521 -19 394 -19 q 743 25 647 -19 q 892 155 839 69 q 944 361 944 240 l 944 944 l 692 944 l 692 374 q 644 240 692 288 q 521 192 597 192 q 397 240 444 192 q 350 374 350 288 l 350 944 l 97 944 l 97 361 m 704 1258 l 315 1258 l 315 1060 l 718 1060 l 704 1258 z "},"Ů":{"ha":1042,"x_min":97,"x_max":944,"o":"m 97 361 q 150 155 97 240 q 299 25 203 69 q 521 -19 394 -19 q 743 25 647 -19 q 892 155 839 69 q 944 361 944 240 l 944 944 l 692 944 l 692 374 q 644 240 692 288 q 521 192 597 192 q 397 240 444 192 q 350 374 350 288 l 350 944 l 97 944 l 97 361 m 518 1356 q 398 1308 449 1356 q 347 1193 347 1261 q 397 1078 347 1124 q 518 1033 447 1033 q 638 1078 588 1033 q 689 1193 689 1124 q 665 1275 689 1238 q 602 1334 642 1313 q 518 1356 563 1356 m 521 1151 q 492 1164 504 1151 q 479 1193 479 1176 q 492 1221 479 1210 q 521 1232 504 1232 q 549 1221 538 1232 q 560 1193 560 1210 q 549 1164 560 1176 q 521 1151 538 1151 z "},"Ű":{"ha":1042,"x_min":97,"x_max":944,"o":"m 97 361 q 150 155 97 240 q 299 25 203 69 q 521 -19 394 -19 q 743 25 647 -19 q 892 155 839 69 q 944 361 944 240 l 944 944 l 692 944 l 692 374 q 644 240 692 288 q 521 192 597 192 q 397 240 444 192 q 350 374 350 288 l 350 944 l 97 944 l 97 361 m 332 1294 l 240 1049 l 424 1018 l 582 1294 l 332 1294 m 675 1294 l 583 1049 l 767 1018 l 925 1294 l 675 1294 z "},"Ų":{"ha":1042,"x_min":97,"x_max":944,"o":"m 944 361 q 854 106 944 203 q 610 -14 764 8 q 588 -63 597 -36 q 578 -110 578 -90 q 590 -140 578 -126 q 618 -154 601 -154 q 647 -149 633 -154 q 679 -126 661 -143 l 764 -268 q 693 -315 739 -297 q 593 -333 647 -333 q 481 -305 528 -333 q 411 -230 435 -276 q 388 -129 388 -183 q 395 -74 388 -108 q 414 -11 403 -39 q 182 111 267 15 q 97 361 97 207 l 97 944 l 350 944 l 350 374 q 397 240 350 288 q 521 192 444 192 q 644 240 597 192 q 692 374 692 288 l 692 944 l 944 944 l 944 361 z "},"Ý":{"ha":908,"x_min":14,"x_max":894,"o":"m 894 944 l 635 944 l 439 604 l 256 964 l 14 897 l 314 372 l 314 0 l 567 0 l 567 369 l 894 944 m 408 1294 l 317 1049 l 500 1018 l 658 1294 l 408 1294 z "},"Ÿ":{"ha":908,"x_min":14,"x_max":894,"o":"m 894 944 l 635 944 l 439 604 l 256 964 l 14 897 l 314 372 l 314 0 l 567 0 l 567 369 l 894 944 m 293 1046 q 376 1079 343 1046 q 410 1161 410 1113 q 376 1242 410 1208 q 293 1276 343 1276 q 213 1242 247 1276 q 178 1161 178 1208 q 212 1079 178 1113 q 293 1046 246 1046 m 586 1046 q 669 1079 636 1046 q 703 1161 703 1113 q 669 1242 703 1208 q 586 1276 636 1276 q 506 1242 540 1276 q 471 1161 471 1208 q 505 1079 471 1113 q 586 1046 539 1046 z "},"Ź":{"ha":811,"x_min":14,"x_max":797,"o":"m 797 765 l 771 944 l 54 944 l 78 746 l 496 746 l 14 178 l 42 0 l 793 0 l 769 199 l 306 199 l 797 765 m 375 1294 l 283 1049 l 467 1018 l 625 1294 l 375 1294 z "},"Ż":{"ha":811,"x_min":14,"x_max":797,"o":"m 797 765 l 771 944 l 54 944 l 78 746 l 496 746 l 14 178 l 42 0 l 793 0 l 769 199 l 306 199 l 797 765 m 407 1033 q 497 1069 463 1033 q 532 1161 532 1106 q 497 1252 532 1215 q 407 1289 461 1289 q 317 1251 354 1289 q 279 1161 279 1214 q 316 1070 279 1107 q 407 1033 353 1033 z "},"Ž":{"ha":811,"x_min":14,"x_max":797,"o":"m 797 765 l 771 944 l 54 944 l 78 746 l 496 746 l 14 178 l 42 0 l 793 0 l 769 199 l 306 199 l 797 765 m 85 1275 l 326 1026 l 475 1026 l 717 1275 l 476 1303 l 404 1217 l 331 1303 l 85 1275 z "},"Ş":{"ha":760,"x_min":42,"x_max":732,"o":"m 732 260 q 655 81 732 154 q 443 -12 578 7 l 426 -54 q 497 -112 474 -69 q 521 -197 521 -154 q 463 -319 521 -274 q 325 -364 404 -364 q 242 -349 285 -364 q 164 -307 199 -333 l 217 -187 q 294 -208 271 -208 q 325 -202 313 -208 q 338 -183 338 -196 q 219 -131 338 -143 l 268 -11 q 144 17 204 -1 q 46 58 83 35 l 129 249 q 233 208 167 226 q 349 189 299 189 q 438 212 404 189 q 471 263 471 235 q 447 298 471 281 q 368 347 422 315 l 325 372 q 178 465 231 428 q 83 560 125 501 q 42 692 42 618 q 85 831 42 769 q 208 928 129 893 q 393 963 288 963 q 541 942 465 963 q 671 885 617 921 l 596 714 q 483 747 522 739 q 396 756 443 756 q 328 736 354 756 q 303 689 303 717 q 324 652 303 668 q 396 610 346 636 l 446 582 q 592 490 533 532 q 691 390 650 447 q 732 260 732 332 z "},"Ţ":{"ha":860,"x_min":14,"x_max":846,"o":"m 496 -54 q 567 -112 543 -69 q 590 -197 590 -154 q 532 -319 590 -274 q 394 -364 474 -364 q 311 -349 354 -364 q 233 -307 268 -333 l 286 -187 q 364 -208 340 -208 q 394 -202 382 -208 q 407 -183 407 -196 q 289 -131 407 -143 l 342 0 l 292 0 l 292 746 l 14 746 l 14 944 l 822 944 l 846 746 l 544 746 l 544 0 l 517 0 l 496 -54 z "},"Ș":{"ha":760,"x_min":42,"x_max":732,"o":"m 46 58 q 191 4 100 26 q 356 -18 282 -18 q 555 18 469 -18 q 686 117 640 54 q 732 260 732 179 q 691 390 732 332 q 592 490 650 447 q 446 582 533 532 l 396 610 q 324 652 346 636 q 303 689 303 668 q 328 736 303 717 q 396 756 354 756 q 483 747 443 756 q 596 714 522 739 l 671 885 q 541 942 617 921 q 393 963 465 963 q 208 928 288 963 q 85 831 129 893 q 42 692 42 769 q 83 560 42 618 q 178 465 125 501 q 325 372 231 428 l 368 347 q 447 298 422 315 q 471 263 471 281 q 438 212 471 235 q 349 189 404 189 q 233 208 299 189 q 129 249 167 226 l 46 58 m 358 -29 q 268 -69 306 -29 q 231 -157 231 -108 q 247 -219 231 -190 q 290 -265 264 -249 q 263 -303 286 -282 q 218 -336 240 -324 l 268 -447 q 424 -336 361 -412 q 486 -178 486 -260 q 449 -71 486 -112 q 358 -29 413 -29 z "},"à":{"ha":707,"x_min":44,"x_max":643,"o":"m 133 451 q 220 480 172 468 q 301 492 268 492 q 360 472 338 492 q 389 414 383 453 l 308 414 q 44 217 44 414 q 108 47 44 110 q 297 -15 172 -15 q 449 69 382 -15 l 521 0 l 643 0 l 643 417 q 571 622 643 547 q 364 697 499 697 q 206 678 286 697 q 67 633 125 660 l 133 451 m 256 221 q 272 260 256 244 q 313 275 288 275 l 390 275 l 390 211 q 301 174 344 174 q 269 187 282 174 q 256 221 256 200 m 393 1093 l 143 1093 l 301 817 l 485 847 l 393 1093 z "},"á":{"ha":707,"x_min":44,"x_max":643,"o":"m 133 451 q 220 480 172 468 q 301 492 268 492 q 360 472 338 492 q 389 414 383 453 l 308 414 q 44 217 44 414 q 108 47 44 110 q 297 -15 172 -15 q 449 69 382 -15 l 521 0 l 643 0 l 643 417 q 571 622 643 547 q 364 697 499 697 q 206 678 286 697 q 67 633 125 660 l 133 451 m 256 221 q 272 260 256 244 q 313 275 288 275 l 390 275 l 390 211 q 301 174 344 174 q 269 187 282 174 q 256 221 256 200 m 326 1093 l 235 847 l 418 817 l 576 1093 l 326 1093 z "},"â":{"ha":707,"x_min":43,"x_max":675,"o":"m 133 451 q 220 480 172 468 q 301 492 268 492 q 360 472 338 492 q 389 414 383 453 l 308 414 q 44 217 44 414 q 108 47 44 110 q 297 -15 172 -15 q 449 69 382 -15 l 521 0 l 643 0 l 643 417 q 571 622 643 547 q 364 697 499 697 q 206 678 286 697 q 67 633 125 660 l 133 451 m 256 221 q 272 260 256 244 q 313 275 288 275 l 390 275 l 390 211 q 301 174 344 174 q 269 187 282 174 q 256 221 256 200 m 675 844 l 433 1093 l 285 1093 l 43 844 l 289 817 l 363 903 l 435 817 l 675 844 z "},"ã":{"ha":707,"x_min":44,"x_max":643,"o":"m 133 451 q 220 480 172 468 q 301 492 268 492 q 360 472 338 492 q 389 414 383 453 l 308 414 q 44 217 44 414 q 108 47 44 110 q 297 -15 172 -15 q 449 69 382 -15 l 521 0 l 643 0 l 643 417 q 571 622 643 547 q 364 697 499 697 q 206 678 286 697 q 67 633 125 660 l 133 451 m 256 221 q 272 260 256 244 q 313 275 288 275 l 390 275 l 390 211 q 301 174 344 174 q 269 187 282 174 q 256 221 256 200 m 435 1049 q 425 1022 435 1036 q 404 1008 415 1008 q 373 1014 386 1008 q 339 1031 360 1019 q 303 1049 319 1043 q 265 1056 288 1056 q 140 1002 192 1056 q 89 833 89 949 l 264 833 q 274 860 264 846 q 294 874 283 874 q 326 868 314 874 q 358 851 339 863 q 394 833 378 839 q 433 826 410 826 q 555 880 506 826 q 604 1049 604 933 l 435 1049 z "},"ä":{"ha":707,"x_min":44,"x_max":643,"o":"m 133 451 q 220 480 172 468 q 301 492 268 492 q 360 472 338 492 q 389 414 383 453 l 308 414 q 44 217 44 414 q 108 47 44 110 q 297 -15 172 -15 q 449 69 382 -15 l 521 0 l 643 0 l 643 417 q 571 622 643 547 q 364 697 499 697 q 206 678 286 697 q 67 633 125 660 l 133 451 m 256 221 q 272 260 256 244 q 313 275 288 275 l 390 275 l 390 211 q 301 174 344 174 q 269 187 282 174 q 256 221 256 200 m 210 838 q 293 871 260 838 q 326 953 326 904 q 293 1034 326 1000 q 210 1068 260 1068 q 129 1034 164 1068 q 94 953 94 1000 q 128 871 94 904 q 210 838 163 838 m 503 838 q 586 871 553 838 q 619 953 619 904 q 586 1034 619 1000 q 503 1068 553 1068 q 422 1034 457 1068 q 388 953 388 1000 q 422 871 388 904 q 503 838 456 838 z "},"å":{"ha":707,"x_min":44,"x_max":643,"o":"m 133 451 q 220 480 172 468 q 301 492 268 492 q 360 472 338 492 q 389 414 383 453 l 308 414 q 44 217 44 414 q 108 47 44 110 q 297 -15 172 -15 q 449 69 382 -15 l 521 0 l 643 0 l 643 417 q 571 622 643 547 q 364 697 499 697 q 206 678 286 697 q 67 633 125 660 l 133 451 m 256 221 q 272 260 256 244 q 313 275 288 275 l 390 275 l 390 211 q 301 174 344 174 q 269 187 282 174 q 256 221 256 200 m 361 1147 q 241 1100 292 1147 q 190 985 190 1053 q 240 870 190 915 q 361 825 290 825 q 481 870 431 825 q 532 985 532 915 q 508 1067 532 1029 q 445 1126 485 1104 q 361 1147 406 1147 m 364 943 q 335 956 347 943 q 322 985 322 968 q 335 1013 322 1001 q 364 1024 347 1024 q 392 1013 381 1024 q 403 985 403 1001 q 392 956 403 968 q 364 943 381 943 z "},"ā":{"ha":707,"x_min":44,"x_max":643,"o":"m 133 451 q 220 480 172 468 q 301 492 268 492 q 360 472 338 492 q 389 414 383 453 l 308 414 q 44 217 44 414 q 108 47 44 110 q 297 -15 172 -15 q 449 69 382 -15 l 521 0 l 643 0 l 643 417 q 571 622 643 547 q 364 697 499 697 q 206 678 286 697 q 67 633 125 660 l 133 451 m 256 221 q 272 260 256 244 q 313 275 288 275 l 390 275 l 390 211 q 301 174 344 174 q 269 187 282 174 q 256 221 256 200 m 540 1050 l 151 1050 l 151 851 l 554 851 l 540 1050 z "},"ă":{"ha":707,"x_min":44,"x_max":643,"o":"m 133 451 q 220 480 172 468 q 301 492 268 492 q 360 472 338 492 q 389 414 383 453 l 308 414 q 44 217 44 414 q 108 47 44 110 q 297 -15 172 -15 q 449 69 382 -15 l 521 0 l 643 0 l 643 417 q 571 622 643 547 q 364 697 499 697 q 206 678 286 697 q 67 633 125 660 l 133 451 m 256 221 q 272 260 256 244 q 313 275 288 275 l 390 275 l 390 211 q 301 174 344 174 q 269 187 282 174 q 256 221 256 200 m 432 1079 q 413 1023 432 1044 q 361 1001 394 1001 q 309 1023 328 1001 q 290 1079 290 1044 l 111 1079 q 179 889 111 960 q 361 817 247 818 q 543 889 475 818 q 611 1079 611 960 l 432 1079 z "},"ą":{"ha":707,"x_min":44,"x_max":814,"o":"m 814 -268 q 743 -315 789 -297 q 643 -333 697 -333 q 531 -305 578 -333 q 461 -230 485 -276 q 438 -129 438 -183 q 448 -61 438 -103 q 472 7 458 -19 l 514 7 l 449 69 q 297 -15 382 -15 q 108 47 172 -15 q 44 217 44 110 q 308 414 44 414 l 389 414 q 360 472 383 453 q 301 492 338 492 q 220 480 268 492 q 133 451 172 468 l 67 633 q 206 678 125 660 q 364 697 286 697 q 571 622 499 697 q 643 417 643 547 l 643 7 l 672 7 q 642 -49 657 -12 q 628 -110 628 -85 q 640 -140 628 -126 q 668 -154 651 -154 q 697 -149 683 -154 q 729 -126 711 -143 l 814 -268 m 313 275 q 272 260 288 275 q 256 221 256 244 q 269 187 256 200 q 301 174 282 174 q 390 211 344 174 l 390 275 l 313 275 z "},"ç":{"ha":635,"x_min":28,"x_max":626,"o":"m 626 53 q 482 -8 569 7 l 464 -54 q 535 -112 511 -69 q 558 -197 558 -154 q 500 -319 558 -274 q 363 -364 442 -364 q 279 -349 322 -364 q 201 -307 236 -333 l 254 -187 q 332 -208 308 -208 q 363 -202 350 -208 q 375 -183 375 -196 q 257 -131 375 -143 l 307 -7 q 103 104 178 15 q 28 336 28 193 q 74 529 28 447 q 204 654 121 611 q 396 697 288 697 q 626 629 540 697 l 556 456 q 486 484 515 476 q 421 492 457 492 q 328 449 368 492 q 289 336 289 406 q 328 229 289 268 q 421 190 367 190 q 486 198 456 190 q 556 226 517 206 l 626 53 z "},"ć":{"ha":635,"x_min":28,"x_max":626,"o":"m 626 629 q 396 697 540 697 q 204 654 288 697 q 74 529 121 611 q 28 336 28 447 q 128 77 28 169 q 396 -15 229 -15 q 626 53 540 -15 l 556 226 q 486 198 517 206 q 421 190 456 190 q 328 229 367 190 q 289 336 289 268 q 328 449 289 406 q 421 492 368 492 q 486 484 457 492 q 556 456 515 476 l 626 629 m 326 1093 l 235 847 l 418 817 l 576 1093 l 326 1093 z "},"č":{"ha":635,"x_min":28,"x_max":679,"o":"m 626 629 q 396 697 540 697 q 204 654 288 697 q 74 529 121 611 q 28 336 28 447 q 128 77 28 169 q 396 -15 229 -15 q 626 53 540 -15 l 556 226 q 486 198 517 206 q 421 190 456 190 q 328 229 367 190 q 289 336 289 268 q 328 449 289 406 q 421 492 368 492 q 486 484 457 492 q 556 456 515 476 l 626 629 m 47 1065 l 289 817 l 438 817 l 679 1065 l 439 1093 l 367 1007 l 293 1093 l 47 1065 z "},"ď":{"ha":1106,"x_min":28,"x_max":1064,"o":"m 936 1031 q 1027 989 990 1031 q 1064 882 1064 947 q 1001 724 1064 800 q 846 613 939 647 l 796 724 q 841 757 818 736 q 868 794 864 778 q 825 840 842 811 q 808 903 808 869 q 846 991 808 951 q 936 1031 883 1031 m 726 981 l 726 0 l 599 0 l 561 49 q 472 2 519 19 q 374 -15 424 -15 q 123 74 218 -15 q 28 336 28 163 q 124 605 28 513 q 385 697 221 697 q 474 683 432 697 l 474 965 l 726 981 m 289 338 q 321 220 289 261 q 413 179 353 179 q 474 200 443 179 l 474 485 q 401 503 433 503 q 321 458 353 503 q 289 338 289 414 z "},"è":{"ha":740,"x_min":28,"x_max":713,"o":"m 713 347 q 676 524 713 444 q 567 650 639 603 q 390 697 494 697 q 205 653 288 697 q 75 528 122 610 q 28 336 28 446 q 79 145 28 225 q 222 25 131 65 q 431 -15 313 -15 q 591 6 513 -15 q 711 57 669 26 l 640 228 q 456 182 551 182 q 355 206 393 182 q 303 274 317 231 l 713 274 l 713 347 m 296 399 q 322 465 294 436 q 383 494 349 494 q 449 464 426 494 q 471 399 471 433 l 296 399 m 422 1093 l 172 1093 l 331 817 l 514 847 l 422 1093 z "},"é":{"ha":740,"x_min":28,"x_max":713,"o":"m 713 347 q 676 524 713 444 q 567 650 639 603 q 390 697 494 697 q 205 653 288 697 q 75 528 122 610 q 28 336 28 446 q 79 145 28 225 q 222 25 131 65 q 431 -15 313 -15 q 591 6 513 -15 q 711 57 669 26 l 640 228 q 456 182 551 182 q 355 206 393 182 q 303 274 317 231 l 713 274 l 713 347 m 296 399 q 322 465 294 436 q 383 494 349 494 q 449 464 426 494 q 471 399 471 433 l 296 399 m 356 1093 l 264 847 l 447 817 l 606 1093 l 356 1093 z "},"ê":{"ha":740,"x_min":28,"x_max":713,"o":"m 713 347 q 676 524 713 444 q 567 650 639 603 q 390 697 494 697 q 205 653 288 697 q 75 528 122 610 q 28 336 28 446 q 79 145 28 225 q 222 25 131 65 q 431 -15 313 -15 q 591 6 513 -15 q 711 57 669 26 l 640 228 q 456 182 551 182 q 355 206 393 182 q 303 274 317 231 l 713 274 l 713 347 m 296 399 q 322 465 294 436 q 383 494 349 494 q 449 464 426 494 q 471 399 471 433 l 296 399 m 704 844 l 463 1093 l 314 1093 l 72 844 l 318 817 l 392 903 l 464 817 l 704 844 z "},"ë":{"ha":740,"x_min":28,"x_max":713,"o":"m 713 347 q 676 524 713 444 q 567 650 639 603 q 390 697 494 697 q 205 653 288 697 q 75 528 122 610 q 28 336 28 446 q 79 145 28 225 q 222 25 131 65 q 431 -15 313 -15 q 591 6 513 -15 q 711 57 669 26 l 640 228 q 456 182 551 182 q 355 206 393 182 q 303 274 317 231 l 713 274 l 713 347 m 296 399 q 322 465 294 436 q 383 494 349 494 q 449 464 426 494 q 471 399 471 433 l 296 399 m 239 838 q 322 871 289 838 q 356 953 356 904 q 322 1034 356 1000 q 239 1068 289 1068 q 158 1034 193 1068 q 124 953 124 1000 q 158 871 124 904 q 239 838 192 838 m 532 838 q 615 871 582 838 q 649 953 649 904 q 615 1034 649 1000 q 532 1068 582 1068 q 451 1034 486 1068 q 417 953 417 1000 q 451 871 417 904 q 532 838 485 838 z "},"ē":{"ha":740,"x_min":28,"x_max":713,"o":"m 713 347 q 676 524 713 444 q 567 650 639 603 q 390 697 494 697 q 205 653 288 697 q 75 528 122 610 q 28 336 28 446 q 79 145 28 225 q 222 25 131 65 q 431 -15 313 -15 q 591 6 513 -15 q 711 57 669 26 l 640 228 q 456 182 551 182 q 355 206 393 182 q 303 274 317 231 l 713 274 l 713 347 m 296 399 q 322 465 294 436 q 383 494 349 494 q 449 464 426 494 q 471 399 471 433 l 296 399 m 569 1050 l 181 1050 l 181 851 l 583 851 l 569 1050 z "},"ė":{"ha":740,"x_min":28,"x_max":713,"o":"m 713 347 q 676 524 713 444 q 567 650 639 603 q 390 697 494 697 q 205 653 288 697 q 75 528 122 610 q 28 336 28 446 q 79 145 28 225 q 222 25 131 65 q 431 -15 313 -15 q 591 6 513 -15 q 711 57 669 26 l 640 228 q 456 182 551 182 q 355 206 393 182 q 303 274 317 231 l 713 274 l 713 347 m 296 399 q 322 465 294 436 q 383 494 349 494 q 449 464 426 494 q 471 399 471 433 l 296 399 m 394 825 q 485 861 450 825 q 519 953 519 897 q 484 1044 519 1007 q 394 1081 449 1081 q 304 1043 342 1081 q 267 953 267 1006 q 303 862 267 899 q 394 825 340 825 z "},"ę":{"ha":740,"x_min":28,"x_max":744,"o":"m 744 -268 q 674 -315 719 -297 q 574 -333 628 -333 q 462 -305 508 -333 q 392 -230 415 -276 q 368 -129 368 -183 q 375 -74 368 -107 q 393 -14 382 -42 q 128 87 228 -4 q 28 336 28 178 q 75 528 28 446 q 205 653 122 610 q 390 697 288 697 q 567 650 494 697 q 676 524 639 603 q 713 347 713 444 l 713 274 l 303 274 q 355 206 317 231 q 456 182 393 182 q 640 228 551 182 l 711 57 q 596 7 669 26 l 603 7 q 573 -49 588 -12 q 558 -110 558 -85 q 570 -140 558 -126 q 599 -154 582 -154 q 628 -149 614 -154 q 660 -126 642 -143 l 744 -268 m 383 494 q 322 465 349 494 q 296 399 294 436 l 471 399 q 449 464 471 433 q 383 494 426 494 z "},"ě":{"ha":740,"x_min":28,"x_max":713,"o":"m 713 347 q 676 524 713 444 q 567 650 639 603 q 390 697 494 697 q 205 653 288 697 q 75 528 122 610 q 28 336 28 446 q 79 145 28 225 q 222 25 131 65 q 431 -15 313 -15 q 591 6 513 -15 q 711 57 669 26 l 640 228 q 456 182 551 182 q 355 206 393 182 q 303 274 317 231 l 713 274 l 713 347 m 296 399 q 322 465 294 436 q 383 494 349 494 q 449 464 426 494 q 471 399 471 433 l 296 399 m 76 1065 l 318 817 l 467 817 l 708 1065 l 468 1093 l 396 1007 l 322 1093 l 76 1065 z "},"ğ":{"ha":804,"x_min":28,"x_max":726,"o":"m 726 -22 q 680 -176 726 -108 q 549 -281 633 -243 q 356 -319 465 -319 q 201 -299 297 -319 q 47 -242 106 -279 l 124 -64 q 236 -105 185 -94 q 338 -115 288 -115 q 435 -88 397 -115 q 474 -21 474 -61 l 474 3 q 374 -15 422 -15 q 123 74 218 -15 q 28 336 28 163 q 124 605 28 513 q 385 697 221 697 q 567 631 485 697 l 600 672 l 726 672 l 726 -22 m 413 179 q 474 200 443 179 l 474 485 q 401 503 433 503 q 321 458 353 503 q 289 338 289 414 q 321 220 289 261 q 413 179 353 179 m 456 1079 q 437 1023 456 1044 q 385 1001 418 1001 q 333 1023 351 1001 q 314 1079 314 1044 l 135 1079 q 203 889 135 960 q 385 817 271 818 q 567 889 499 818 q 635 1079 635 960 l 456 1079 z "},"ì":{"ha":392,"x_min":-21,"x_max":322,"o":"m 69 674 l 69 0 l 322 0 l 322 674 l 69 674 m 229 1093 l -21 1093 l 138 817 l 321 847 l 229 1093 z "},"í":{"ha":392,"x_min":69,"x_max":413,"o":"m 69 674 l 69 0 l 322 0 l 322 674 l 69 674 m 163 1093 l 71 847 l 254 817 l 413 1093 l 163 1093 z "},"î":{"ha":392,"x_min":-121,"x_max":511,"o":"m 69 674 l 69 0 l 322 0 l 322 674 l 69 674 m 511 844 l 269 1093 l 121 1093 l -121 844 l 125 817 l 199 903 l 271 817 l 511 844 z "},"ï":{"ha":392,"x_min":-69,"x_max":456,"o":"m 69 674 l 69 0 l 322 0 l 322 674 l 69 674 m 46 838 q 129 871 96 838 q 163 953 163 904 q 129 1034 163 1000 q 46 1068 96 1068 q -35 1034 0 1068 q -69 953 -69 1000 q -35 871 -69 904 q 46 838 -1 838 m 339 838 q 422 871 389 838 q 456 953 456 904 q 422 1034 456 1000 q 339 1068 389 1068 q 258 1034 293 1068 q 224 953 224 1000 q 258 871 224 904 q 339 838 292 838 z "},"ī":{"ha":392,"x_min":-12,"x_max":390,"o":"m 69 674 l 69 0 l 322 0 l 322 674 l 69 674 m 376 1050 l -12 1050 l -12 851 l 390 851 l 376 1050 z "},"į":{"ha":392,"x_min":14,"x_max":390,"o":"m 201 825 q 110 862 147 825 q 74 953 74 899 q 111 1043 74 1006 q 201 1081 149 1081 q 291 1044 256 1081 q 326 953 326 1007 q 292 861 326 897 q 201 825 257 825 m 390 -268 q 319 -315 365 -297 q 219 -333 274 -333 q 108 -305 154 -333 q 38 -230 61 -276 q 14 -129 14 -183 q 24 -61 14 -103 q 49 7 35 -19 l 69 7 l 69 674 l 322 674 l 322 0 l 243 0 q 217 -55 229 -22 q 204 -110 204 -87 q 216 -140 204 -126 q 244 -154 228 -154 q 274 -149 260 -154 q 306 -126 288 -143 l 390 -268 z "},"ľ":{"ha":714,"x_min":83,"x_max":672,"o":"m 544 1031 q 454 991 492 1031 q 417 903 417 951 q 433 840 417 869 q 476 794 450 811 q 449 757 472 778 q 404 724 426 736 l 454 613 q 610 724 547 647 q 672 882 672 800 q 635 989 672 947 q 544 1031 599 1031 m 83 965 l 83 0 l 336 0 l 336 981 l 83 965 z "},"ñ":{"ha":847,"x_min":69,"x_max":783,"o":"m 322 453 q 396 480 356 468 q 458 492 436 492 q 514 469 497 492 q 531 411 531 446 l 531 0 l 783 0 l 783 435 q 722 624 783 553 q 539 696 661 696 q 264 604 411 696 l 219 674 l 69 674 l 69 0 l 322 0 l 322 453 m 567 1049 q 557 1022 567 1036 q 536 1008 547 1008 q 505 1014 518 1008 q 471 1031 492 1019 q 435 1049 451 1043 q 397 1056 419 1056 q 272 1002 324 1056 q 221 833 221 949 l 396 833 q 406 860 396 846 q 426 874 415 874 q 458 868 446 874 q 490 851 471 863 q 526 833 510 839 q 565 826 542 826 q 687 880 638 826 q 736 1049 736 933 l 567 1049 z "},"ń":{"ha":847,"x_min":69,"x_max":783,"o":"m 322 453 q 396 480 356 468 q 458 492 436 492 q 514 469 497 492 q 531 411 531 446 l 531 0 l 783 0 l 783 435 q 722 624 783 553 q 539 696 661 696 q 264 604 411 696 l 219 674 l 69 674 l 69 0 l 322 0 l 322 453 m 458 1093 l 367 847 l 550 817 l 708 1093 l 458 1093 z "},"ň":{"ha":847,"x_min":69,"x_max":811,"o":"m 322 453 q 396 480 356 468 q 458 492 436 492 q 514 469 497 492 q 531 411 531 446 l 531 0 l 783 0 l 783 435 q 722 624 783 553 q 539 696 661 696 q 264 604 411 696 l 219 674 l 69 674 l 69 0 l 322 0 l 322 453 m 179 1065 l 421 817 l 569 817 l 811 1065 l 571 1093 l 499 1007 l 425 1093 l 179 1065 z "},"ò":{"ha":819,"x_min":28,"x_max":792,"o":"m 792 333 q 741 144 792 224 q 602 25 690 65 q 404 -15 514 -15 q 131 76 235 -15 q 28 340 28 167 q 78 531 28 450 q 216 655 129 613 q 410 697 303 697 q 608 656 522 697 q 743 532 694 614 q 792 333 792 450 m 407 190 q 499 226 467 190 q 531 333 531 263 q 499 447 531 403 q 413 492 468 492 q 322 451 354 492 q 289 340 289 411 q 319 231 289 271 q 407 190 350 190 m 440 1093 l 190 1093 l 349 817 l 532 847 l 440 1093 z "},"ó":{"ha":819,"x_min":28,"x_max":792,"o":"m 792 333 q 741 144 792 224 q 602 25 690 65 q 404 -15 514 -15 q 131 76 235 -15 q 28 340 28 167 q 78 531 28 450 q 216 655 129 613 q 410 697 303 697 q 608 656 522 697 q 743 532 694 614 q 792 333 792 450 m 407 190 q 499 226 467 190 q 531 333 531 263 q 499 447 531 403 q 413 492 468 492 q 322 451 354 492 q 289 340 289 411 q 319 231 289 271 q 407 190 350 190 m 374 1093 l 282 847 l 465 817 l 624 1093 l 374 1093 z "},"ô":{"ha":819,"x_min":28,"x_max":792,"o":"m 792 333 q 741 144 792 224 q 602 25 690 65 q 404 -15 514 -15 q 131 76 235 -15 q 28 340 28 167 q 78 531 28 450 q 216 655 129 613 q 410 697 303 697 q 608 656 522 697 q 743 532 694 614 q 792 333 792 450 m 407 190 q 499 226 467 190 q 531 333 531 263 q 499 447 531 403 q 413 492 468 492 q 322 451 354 492 q 289 340 289 411 q 319 231 289 271 q 407 190 350 190 m 722 844 l 481 1093 l 332 1093 l 90 844 l 336 817 l 410 903 l 482 817 l 722 844 z "},"õ":{"ha":819,"x_min":28,"x_max":792,"o":"m 792 333 q 741 144 792 224 q 602 25 690 65 q 404 -15 514 -15 q 131 76 235 -15 q 28 340 28 167 q 78 531 28 450 q 216 655 129 613 q 410 697 303 697 q 608 656 522 697 q 743 532 694 614 q 792 333 792 450 m 407 190 q 499 226 467 190 q 531 333 531 263 q 499 447 531 403 q 413 492 468 492 q 322 451 354 492 q 289 340 289 411 q 319 231 289 271 q 407 190 350 190 m 482 1049 q 472 1022 482 1036 q 451 1008 463 1008 q 420 1014 433 1008 q 386 1031 407 1019 q 351 1049 367 1043 q 313 1056 335 1056 q 188 1002 239 1056 q 136 833 136 949 l 311 833 q 321 860 311 846 q 342 874 331 874 q 374 868 361 874 q 406 851 386 863 q 441 833 425 839 q 481 826 457 826 q 602 880 553 826 q 651 1049 651 933 l 482 1049 z "},"ö":{"ha":819,"x_min":28,"x_max":792,"o":"m 792 333 q 741 144 792 224 q 602 25 690 65 q 404 -15 514 -15 q 131 76 235 -15 q 28 340 28 167 q 78 531 28 450 q 216 655 129 613 q 410 697 303 697 q 608 656 522 697 q 743 532 694 614 q 792 333 792 450 m 407 190 q 499 226 467 190 q 531 333 531 263 q 499 447 531 403 q 413 492 468 492 q 322 451 354 492 q 289 340 289 411 q 319 231 289 271 q 407 190 350 190 m 257 838 q 340 871 307 838 q 374 953 374 904 q 340 1034 374 1000 q 257 1068 307 1068 q 176 1034 211 1068 q 142 953 142 1000 q 176 871 142 904 q 257 838 210 838 m 550 838 q 633 871 600 838 q 667 953 667 904 q 633 1034 667 1000 q 550 1068 600 1068 q 469 1034 504 1068 q 435 953 435 1000 q 469 871 435 904 q 550 838 503 838 z "},"ō":{"ha":819,"x_min":28,"x_max":792,"o":"m 792 333 q 741 144 792 224 q 602 25 690 65 q 404 -15 514 -15 q 131 76 235 -15 q 28 340 28 167 q 78 531 28 450 q 216 655 129 613 q 410 697 303 697 q 608 656 522 697 q 743 532 694 614 q 792 333 792 450 m 407 190 q 499 226 467 190 q 531 333 531 263 q 499 447 531 403 q 413 492 468 492 q 322 451 354 492 q 289 340 289 411 q 319 231 289 271 q 407 190 350 190 m 588 1050 l 199 1050 l 199 851 l 601 851 l 588 1050 z "},"ő":{"ha":819,"x_min":28,"x_max":810,"o":"m 792 333 q 741 144 792 224 q 602 25 690 65 q 404 -15 514 -15 q 131 76 235 -15 q 28 340 28 167 q 78 531 28 450 q 216 655 129 613 q 410 697 303 697 q 608 656 522 697 q 743 532 694 614 q 792 333 792 450 m 407 190 q 499 226 467 190 q 531 333 531 263 q 499 447 531 403 q 413 492 468 492 q 322 451 354 492 q 289 340 289 411 q 319 231 289 271 q 407 190 350 190 m 217 1093 l 125 847 l 308 817 l 467 1093 l 217 1093 m 560 1093 l 468 847 l 651 817 l 810 1093 l 560 1093 z "},"ŕ":{"ha":549,"x_min":69,"x_max":535,"o":"m 322 396 q 425 450 365 429 q 535 471 485 471 l 483 674 q 368 649 431 674 q 257 590 306 624 l 196 672 l 69 672 l 69 0 l 322 0 l 322 396 m 249 1093 l 157 847 l 340 817 l 499 1093 l 249 1093 z "},"ř":{"ha":549,"x_min":-31,"x_max":601,"o":"m 322 396 q 425 450 365 429 q 535 471 485 471 l 483 674 q 368 649 431 674 q 257 590 306 624 l 196 672 l 69 672 l 69 0 l 322 0 l 322 396 m -31 1065 l 211 817 l 360 817 l 601 1065 l 361 1093 l 289 1007 l 215 1093 l -31 1065 z "},"ś":{"ha":626,"x_min":31,"x_max":599,"o":"m 31 64 q 170 4 82 24 q 318 -15 258 -15 q 528 44 457 -15 q 599 210 599 103 q 533 345 599 293 q 363 433 467 397 q 311 456 331 444 q 292 475 292 467 q 311 497 292 489 q 361 506 331 506 q 441 494 397 506 q 526 465 485 483 l 597 625 q 474 681 546 665 q 343 697 403 697 q 124 638 203 697 q 44 472 44 578 q 112 338 44 389 q 285 249 179 286 q 333 227 314 239 q 351 207 351 215 q 335 185 351 193 q 293 176 318 176 q 199 190 257 176 q 101 224 142 204 l 31 64 m 307 1093 l 215 847 l 399 817 l 557 1093 l 307 1093 z "},"š":{"ha":626,"x_min":28,"x_max":660,"o":"m 31 64 q 170 4 82 24 q 318 -15 258 -15 q 528 44 457 -15 q 599 210 599 103 q 533 345 599 293 q 363 433 467 397 q 311 456 331 444 q 292 475 292 467 q 311 497 292 489 q 361 506 331 506 q 441 494 397 506 q 526 465 485 483 l 597 625 q 474 681 546 665 q 343 697 403 697 q 124 638 203 697 q 44 472 44 578 q 112 338 44 389 q 285 249 179 286 q 333 227 314 239 q 351 207 351 215 q 335 185 351 193 q 293 176 318 176 q 199 190 257 176 q 101 224 142 204 l 31 64 m 28 1065 l 269 817 l 418 817 l 660 1065 l 419 1093 l 347 1007 l 274 1093 l 28 1065 z "},"ť":{"ha":890,"x_min":14,"x_max":849,"o":"m 721 1031 q 631 991 668 1031 q 593 903 593 951 q 610 840 593 869 q 653 794 626 811 q 626 757 649 778 q 581 724 603 736 l 631 613 q 786 724 724 647 q 849 882 849 800 q 812 989 849 947 q 721 1031 775 1031 m 371 863 l 118 828 l 118 646 l 14 646 l 14 447 l 118 447 l 118 253 q 162 106 118 167 q 278 15 206 46 q 433 -15 350 -15 q 537 3 481 -15 q 619 44 593 22 l 547 217 q 450 190 500 190 q 392 215 414 190 q 371 281 371 239 l 371 447 l 571 447 l 547 646 l 371 646 l 371 863 z "},"ù":{"ha":847,"x_min":64,"x_max":778,"o":"m 525 219 q 451 192 492 204 q 389 181 411 181 q 333 203 350 181 q 317 261 317 226 l 317 672 l 64 672 l 64 238 q 125 48 64 119 q 308 -24 186 -24 q 583 68 436 -24 l 656 -1 l 778 -1 l 778 672 l 525 672 l 525 219 m 454 1093 l 204 1093 l 363 817 l 546 847 l 454 1093 z "},"ú":{"ha":847,"x_min":64,"x_max":778,"o":"m 525 219 q 451 192 492 204 q 389 181 411 181 q 333 203 350 181 q 317 261 317 226 l 317 672 l 64 672 l 64 238 q 125 48 64 119 q 308 -24 186 -24 q 583 68 436 -24 l 656 -1 l 778 -1 l 778 672 l 525 672 l 525 219 m 388 1093 l 296 847 l 479 817 l 638 1093 l 388 1093 z "},"û":{"ha":847,"x_min":64,"x_max":778,"o":"m 525 219 q 451 192 492 204 q 389 181 411 181 q 333 203 350 181 q 317 261 317 226 l 317 672 l 64 672 l 64 238 q 125 48 64 119 q 308 -24 186 -24 q 583 68 436 -24 l 656 -1 l 778 -1 l 778 672 l 525 672 l 525 219 m 736 844 l 494 1093 l 346 1093 l 104 844 l 350 817 l 424 903 l 496 817 l 736 844 z "},"ü":{"ha":847,"x_min":64,"x_max":778,"o":"m 525 219 q 451 192 492 204 q 389 181 411 181 q 333 203 350 181 q 317 261 317 226 l 317 672 l 64 672 l 64 238 q 125 48 64 119 q 308 -24 186 -24 q 583 68 436 -24 l 656 -1 l 778 -1 l 778 672 l 525 672 l 525 219 m 271 838 q 354 871 321 838 q 388 953 388 904 q 354 1034 388 1000 q 271 1068 321 1068 q 190 1034 225 1068 q 156 953 156 1000 q 190 871 156 904 q 271 838 224 838 m 564 838 q 647 871 614 838 q 681 953 681 904 q 647 1034 681 1000 q 564 1068 614 1068 q 483 1034 518 1068 q 449 953 449 1000 q 483 871 449 904 q 564 838 517 838 z "},"ū":{"ha":847,"x_min":64,"x_max":778,"o":"m 525 219 q 451 192 492 204 q 389 181 411 181 q 333 203 350 181 q 317 261 317 226 l 317 672 l 64 672 l 64 238 q 125 48 64 119 q 308 -24 186 -24 q 583 68 436 -24 l 656 -1 l 778 -1 l 778 672 l 525 672 l 525 219 m 601 1050 l 213 1050 l 213 851 l 615 851 l 601 1050 z "},"ů":{"ha":847,"x_min":64,"x_max":778,"o":"m 525 219 q 451 192 492 204 q 389 181 411 181 q 333 203 350 181 q 317 261 317 226 l 317 672 l 64 672 l 64 238 q 125 48 64 119 q 308 -24 186 -24 q 583 68 436 -24 l 656 -1 l 778 -1 l 778 672 l 525 672 l 525 219 m 422 1147 q 302 1100 353 1147 q 251 985 251 1053 q 301 870 251 915 q 422 825 351 825 q 542 870 492 825 q 593 985 593 915 q 569 1067 593 1029 q 506 1126 546 1104 q 422 1147 467 1147 m 425 943 q 396 956 408 943 q 383 985 383 968 q 396 1013 383 1001 q 425 1024 408 1024 q 453 1013 442 1024 q 464 985 464 1001 q 453 956 464 968 q 425 943 442 943 z "},"ű":{"ha":847,"x_min":64,"x_max":824,"o":"m 525 219 q 451 192 492 204 q 389 181 411 181 q 333 203 350 181 q 317 261 317 226 l 317 672 l 64 672 l 64 238 q 125 48 64 119 q 308 -24 186 -24 q 583 68 436 -24 l 656 -1 l 778 -1 l 778 672 l 525 672 l 525 219 m 231 1093 l 139 847 l 322 817 l 481 1093 l 231 1093 m 574 1093 l 482 847 l 665 817 l 824 1093 l 574 1093 z "},"ų":{"ha":847,"x_min":64,"x_max":950,"o":"m 950 -268 q 879 -315 925 -297 q 779 -333 833 -333 q 667 -305 714 -333 q 597 -230 621 -276 q 574 -129 574 -183 q 584 -61 574 -103 q 608 7 594 -19 l 647 7 l 583 68 q 308 -24 436 -24 q 125 48 186 -24 q 64 238 64 119 l 64 672 l 317 672 l 317 261 q 333 203 317 226 q 389 181 350 181 q 451 192 411 181 q 525 219 492 204 l 525 672 l 778 672 l 778 7 l 808 7 q 778 -49 793 -12 q 764 -110 764 -85 q 776 -140 764 -126 q 804 -154 788 -154 q 833 -149 819 -154 q 865 -126 847 -143 l 950 -268 z "},"ý":{"ha":779,"x_min":14,"x_max":765,"o":"m 250 -3 q 195 -53 240 -29 q 78 -108 150 -78 l 163 -304 q 351 -221 265 -282 q 469 -79 438 -160 l 765 674 l 514 674 l 385 293 l 247 699 l 14 632 l 256 13 l 250 -3 m 349 1093 l 257 847 l 440 817 l 599 1093 l 349 1093 z "},"ÿ":{"ha":779,"x_min":14,"x_max":765,"o":"m 250 -3 q 195 -53 240 -29 q 78 -108 150 -78 l 163 -304 q 351 -221 265 -282 q 469 -79 438 -160 l 765 674 l 514 674 l 385 293 l 247 699 l 14 632 l 256 13 l 250 -3 m 232 838 q 315 871 282 838 q 349 953 349 904 q 315 1034 349 1000 q 232 1068 282 1068 q 151 1034 186 1068 q 117 953 117 1000 q 151 871 117 904 q 232 838 185 838 m 525 838 q 608 871 575 838 q 642 953 642 904 q 608 1034 642 1000 q 525 1068 575 1068 q 444 1034 479 1068 q 410 953 410 1000 q 444 871 410 904 q 525 838 478 838 z "},"ź":{"ha":628,"x_min":11,"x_max":617,"o":"m 65 475 l 288 475 l 11 131 l 42 0 l 617 0 l 593 199 l 319 199 l 592 533 l 579 674 l 42 674 l 65 475 m 275 1093 l 183 847 l 367 817 l 525 1093 l 275 1093 z "},"ż":{"ha":628,"x_min":11,"x_max":617,"o":"m 65 475 l 288 475 l 11 131 l 42 0 l 617 0 l 593 199 l 319 199 l 592 533 l 579 674 l 42 674 l 65 475 m 314 825 q 404 861 369 825 q 439 953 439 897 q 403 1044 439 1007 q 314 1081 368 1081 q 224 1043 261 1081 q 186 953 186 1006 q 223 862 186 899 q 314 825 260 825 z "},"ž":{"ha":628,"x_min":-4,"x_max":628,"o":"m 65 475 l 288 475 l 11 131 l 42 0 l 617 0 l 593 199 l 319 199 l 592 533 l 579 674 l 42 674 l 65 475 m -4 1065 l 238 817 l 386 817 l 628 1065 l 388 1093 l 315 1007 l 242 1093 l -4 1065 z "},"ş":{"ha":626,"x_min":31,"x_max":599,"o":"m 599 210 q 550 65 599 121 q 407 -8 501 10 l 389 -54 q 460 -112 436 -69 q 483 -197 483 -154 q 425 -319 483 -274 q 288 -364 367 -364 q 204 -349 247 -364 q 126 -307 161 -333 l 179 -187 q 257 -208 233 -208 q 288 -202 275 -208 q 300 -183 300 -196 q 182 -131 300 -143 l 232 -7 q 31 64 94 13 l 101 224 q 199 190 142 204 q 293 176 257 176 q 335 185 318 176 q 351 207 351 193 q 333 227 351 215 q 285 249 314 239 q 112 338 179 286 q 44 472 44 389 q 124 638 44 578 q 343 697 203 697 q 474 681 403 697 q 597 625 546 665 l 526 465 q 441 494 485 483 q 361 506 397 506 q 311 497 331 506 q 292 475 292 489 q 311 456 292 467 q 363 433 331 444 q 533 345 467 397 q 599 210 599 293 z "},"ţ":{"ha":633,"x_min":14,"x_max":619,"o":"m 444 -54 q 515 -112 492 -69 q 539 -197 539 -154 q 481 -319 539 -274 q 343 -364 422 -364 q 260 -349 303 -364 q 182 -307 217 -333 l 235 -187 q 313 -208 289 -208 q 343 -202 331 -208 q 356 -183 356 -196 q 238 -131 356 -143 l 293 8 q 166 100 214 38 q 118 253 118 163 l 118 447 l 14 447 l 14 646 l 118 646 l 118 828 l 371 863 l 371 646 l 547 646 l 571 447 l 371 447 l 371 281 q 392 215 371 239 q 450 190 414 190 q 547 217 500 190 l 619 44 q 551 8 597 25 q 460 -14 504 -8 l 444 -54 z "},"ș":{"ha":626,"x_min":31,"x_max":599,"o":"m 31 64 q 170 4 82 24 q 318 -15 258 -15 q 528 44 457 -15 q 599 210 599 103 q 533 345 599 293 q 363 433 467 397 q 311 456 331 444 q 292 475 292 467 q 311 497 292 489 q 361 506 331 506 q 441 494 397 506 q 526 465 485 483 l 597 625 q 474 681 546 665 q 343 697 403 697 q 124 638 203 697 q 44 472 44 578 q 112 338 44 389 q 285 249 179 286 q 333 227 314 239 q 351 207 351 215 q 335 185 351 193 q 293 176 318 176 q 199 190 257 176 q 101 224 142 204 l 31 64 m 321 -29 q 231 -69 268 -29 q 193 -157 193 -108 q 210 -219 193 -190 q 253 -265 226 -249 q 226 -303 249 -282 q 181 -336 203 -324 l 231 -447 q 386 -336 324 -412 q 449 -178 449 -260 q 412 -71 449 -112 q 321 -29 375 -29 z "},"­":{"ha":167,"x_min":0,"x_max":0,"o":""},"µ":{"ha":861,"x_min":78,"x_max":792,"o":"m 792 -1 l 642 -1 l 597 68 q 331 -24 454 -21 l 331 -290 l 78 -304 l 78 672 l 331 672 l 331 261 q 347 203 331 226 q 403 181 364 181 q 465 192 425 181 q 539 219 506 204 l 539 672 l 792 672 l 792 -1 z "},"ˉ":{"ha":431,"x_min":14,"x_max":417,"o":"m 403 1050 l 14 1050 l 14 851 l 417 851 l 403 1050 z "},"ℓ":{"ha":714,"x_min":14,"x_max":672,"o":"m 149 251 l 149 215 q 240 38 149 90 q 478 -15 332 -15 q 581 3 525 -15 q 664 44 638 22 l 592 217 q 542 197 569 204 q 494 190 514 190 q 424 205 446 190 q 401 257 401 219 l 401 382 q 597 559 522 464 q 672 756 672 654 q 601 916 672 857 q 417 975 531 975 q 285 945 347 975 q 186 862 224 915 q 149 739 149 808 l 149 486 q 14 433 35 439 l 71 225 l 149 251 m 449 749 q 393 611 449 681 l 393 732 q 400 765 393 751 q 421 778 407 778 q 441 769 433 778 q 449 749 449 761 z "},"Ω":{"ha":1008,"x_min":42,"x_max":967,"o":"m 707 469 q 677 302 707 382 q 589 199 647 222 l 589 0 l 944 0 l 967 199 l 879 199 q 944 330 921 260 q 967 468 967 400 q 910 725 967 613 q 748 901 853 838 q 504 964 643 964 q 260 901 365 964 q 99 725 156 838 q 42 468 42 613 q 65 330 42 400 q 129 199 88 260 l 42 199 l 64 0 l 419 0 l 419 199 q 331 301 360 222 q 301 469 301 381 q 356 676 301 599 q 504 753 410 753 q 653 676 599 753 q 707 469 707 599 z "},"∆":{"ha":971,"x_min":14,"x_max":957,"o":"m 957 0 l 957 25 l 563 944 l 410 944 l 14 0 l 957 0 m 482 567 l 642 199 l 325 199 l 482 567 z "},"∕":{"ha":703,"x_min":14,"x_max":689,"o":"m 274 0 l 689 981 l 428 981 l 14 0 l 274 0 z "},"∙":{"ha":428,"x_min":42,"x_max":386,"o":"m 213 289 q 299 312 260 289 q 363 374 339 335 q 386 460 386 414 q 363 545 386 506 q 299 608 339 585 q 213 632 258 632 q 92 581 142 632 q 42 460 42 531 q 92 339 42 389 q 213 289 142 289 z "},"₺":{"ha":867,"x_min":0,"x_max":839,"o":"m 363 0 q 621 60 514 0 q 783 233 728 121 q 839 500 839 346 l 578 501 q 517 284 578 360 q 363 207 456 208 l 363 475 l 561 544 l 508 700 l 363 649 l 363 694 l 561 764 l 508 919 l 363 868 l 363 982 l 110 961 l 110 779 l 0 740 l 13 572 l 110 606 l 110 560 l 0 521 l 13 354 l 110 388 l 110 0 l 363 0 z "},"₽":{"ha":925,"x_min":0,"x_max":897,"o":"m 364 231 l 689 231 l 703 60 l 364 60 l 364 0 l 111 0 l 111 60 l 14 60 l 0 231 l 111 231 l 111 301 l 14 301 l 0 472 l 111 472 l 111 944 l 508 944 q 705 907 617 944 q 845 794 793 869 q 897 610 897 719 q 842 429 897 501 q 695 323 786 357 q 497 289 604 289 l 364 289 l 364 231 m 503 488 q 599 522 561 488 q 636 610 636 556 q 600 709 636 672 q 500 746 564 746 l 364 746 l 364 488 l 503 488 z "},"¢":{"ha":635,"x_min":28,"x_max":626,"o":"m 421 190 q 486 198 456 190 q 556 226 517 206 l 626 53 q 503 -4 575 13 l 503 -174 l 294 -174 l 294 -6 q 99 108 171 19 q 28 336 28 197 q 99 567 28 475 q 294 686 171 658 l 294 858 l 503 876 l 503 686 q 626 629 575 669 l 556 456 q 486 484 515 476 q 421 492 457 492 q 328 449 368 492 q 289 336 289 406 q 328 229 289 268 q 421 190 367 190 z "},"£":{"ha":725,"x_min":54,"x_max":711,"o":"m 688 199 l 414 199 q 421 261 421 229 l 421 372 l 629 372 l 606 571 l 421 571 l 421 654 q 445 720 421 696 q 514 744 469 744 q 561 738 533 744 q 611 718 589 731 l 683 890 q 601 931 657 913 q 497 950 544 950 q 333 919 408 950 q 213 828 258 889 q 168 682 168 768 l 168 571 l 56 571 l 56 372 l 168 372 l 168 289 q 142 223 168 246 q 54 199 115 200 l 68 0 l 711 0 l 688 199 z "},"¤":{"ha":1129,"x_min":42,"x_max":1088,"o":"m 908 189 q 944 350 944 264 q 910 508 944 432 l 1071 667 l 897 839 l 742 675 q 658 702 704 693 q 564 711 611 711 q 472 701 518 711 q 388 674 425 692 l 239 832 l 42 668 l 221 507 q 185 346 185 432 q 219 188 185 264 l 58 29 l 232 -143 l 388 21 q 565 -17 463 -14 q 658 -6 611 -15 q 742 22 704 4 l 890 -136 l 1088 28 l 908 189 m 696 349 q 659 258 696 294 q 565 221 622 221 q 472 257 510 221 q 433 347 435 293 q 471 438 435 401 q 564 475 507 475 q 658 439 619 475 q 696 349 696 403 z "},"¥":{"ha":908,"x_min":14,"x_max":894,"o":"m 567 225 l 758 225 l 772 64 l 567 64 l 567 0 l 314 0 l 314 64 l 150 64 l 136 225 l 314 225 l 314 278 l 150 278 l 136 439 l 276 439 l 14 897 l 256 964 l 439 604 l 635 944 l 894 944 l 607 439 l 758 439 l 772 278 l 567 278 l 567 225 z "},"€":{"ha":911,"x_min":0,"x_max":897,"o":"m 897 51 q 766 1 843 19 q 615 -18 689 -18 q 324 62 443 -18 q 156 281 204 142 l 17 281 l 0 442 l 125 442 l 125 468 q 126 506 125 493 l 17 506 l 0 667 l 161 667 q 335 883 215 803 q 610 963 454 963 q 758 942 682 963 q 888 885 833 921 l 813 714 q 699 747 739 739 q 613 756 660 756 q 524 732 567 756 q 449 667 481 708 l 703 667 l 717 506 l 388 506 q 386 469 386 494 l 388 442 l 703 442 l 717 281 l 444 281 q 525 213 478 236 q 622 189 572 189 q 801 240 715 189 l 897 51 z "},"$":{"ha":760,"x_min":42,"x_max":732,"o":"m 600 922 q 671 885 640 906 l 596 714 q 483 747 522 739 q 396 756 443 756 q 328 736 354 756 q 303 689 303 717 q 324 652 303 668 q 396 610 346 636 l 446 582 q 592 490 533 532 q 691 390 650 447 q 732 260 732 332 q 690 122 732 183 q 569 24 647 60 l 569 -169 l 404 -169 l 404 -17 q 356 -18 389 -18 l 338 -18 l 338 -165 l 174 -165 l 174 8 q 46 58 99 28 l 129 249 q 233 208 167 226 q 349 189 299 189 q 438 212 404 189 q 471 263 471 235 q 447 298 471 281 q 368 347 422 315 l 325 372 q 178 465 231 428 q 83 560 125 501 q 42 692 42 618 q 87 832 43 769 q 210 928 131 894 l 210 1096 l 374 1110 l 374 963 l 393 963 q 435 961 421 963 l 435 1096 l 600 1110 l 600 922 z "},",":{"ha":338,"x_min":28,"x_max":296,"o":"m 168 204 q 78 165 115 204 q 40 76 40 125 q 57 14 40 43 q 100 -32 74 -15 q 73 -69 96 -49 q 28 -103 50 -90 l 78 -214 q 233 -103 171 -179 q 296 56 296 -26 q 259 163 296 121 q 168 204 222 204 z "},".":{"ha":338,"x_min":42,"x_max":296,"o":"m 169 0 q 259 36 222 0 q 296 126 296 72 q 259 217 296 181 q 169 254 222 254 q 78 217 115 254 q 42 126 42 181 q 78 36 42 72 q 169 0 115 0 z "},"!":{"ha":338,"x_min":42,"x_max":296,"o":"m 296 992 l 43 992 l 71 344 l 268 289 l 296 992 m 169 254 q 78 217 115 254 q 42 126 42 181 q 78 36 42 72 q 169 0 115 0 q 259 36 222 0 q 296 126 296 72 q 259 217 296 181 q 169 254 222 254 z "},"¡":{"ha":338,"x_min":42,"x_max":296,"o":"m 168 738 q 259 774 222 738 q 296 865 296 811 q 259 956 296 919 q 168 992 222 992 q 78 956 115 992 q 42 865 42 919 q 78 774 42 811 q 168 738 115 738 m 42 0 l 294 0 l 267 647 l 69 703 l 42 0 z "},":":{"ha":338,"x_min":42,"x_max":296,"o":"m 169 407 q 259 443 222 407 q 296 533 296 479 q 259 624 296 588 q 169 661 222 661 q 78 624 115 661 q 42 533 42 588 q 78 443 42 479 q 169 407 115 407 m 169 0 q 259 36 222 0 q 296 126 296 72 q 259 217 296 181 q 169 254 222 254 q 78 217 115 254 q 42 126 42 181 q 78 36 42 72 q 169 0 115 0 z "},";":{"ha":339,"x_min":28,"x_max":297,"o":"m 171 661 q 80 624 117 661 q 43 533 43 588 q 80 443 43 479 q 171 407 117 407 q 260 443 224 407 q 297 533 297 479 q 260 624 297 588 q 171 661 224 661 m 168 254 q 78 215 115 254 q 40 126 40 175 q 57 64 40 93 q 100 18 74 35 q 73 -19 96 1 q 28 -53 50 -40 l 78 -164 q 233 -53 171 -129 q 296 106 296 24 q 259 213 296 171 q 168 254 222 254 z "},"?":{"ha":649,"x_min":14,"x_max":607,"o":"m 279 974 q 14 901 140 974 l 46 694 q 275 768 176 768 q 326 752 306 768 q 346 711 346 736 q 287 631 346 674 q 136 558 228 588 l 146 338 l 344 283 l 361 443 q 549 554 490 489 q 607 707 607 619 q 566 847 607 786 q 450 940 525 907 q 279 974 375 974 m 232 254 q 141 217 178 254 q 104 126 104 181 q 141 36 104 72 q 232 0 178 0 q 322 36 285 0 q 358 126 358 72 q 322 217 358 181 q 232 254 285 254 z "},"¿":{"ha":649,"x_min":42,"x_max":635,"o":"m 417 668 q 508 705 471 668 q 544 796 544 742 q 508 886 544 850 q 417 922 471 922 q 327 886 364 922 q 290 796 290 850 q 327 705 290 742 q 417 668 364 668 m 369 -51 q 635 21 508 -51 l 603 228 q 374 154 472 154 q 323 170 343 154 q 303 211 303 186 q 362 292 303 249 q 513 364 421 335 l 503 585 l 304 639 l 288 479 q 100 368 158 433 q 42 215 42 303 q 83 76 42 136 q 199 -18 124 15 q 369 -51 274 -51 z "},"*":{"ha":589,"x_min":14,"x_max":575,"o":"m 196 953 l 61 992 l 14 813 l 144 789 l 44 663 l 207 560 l 294 689 l 382 560 l 544 663 l 444 789 l 575 813 l 528 992 l 396 953 l 396 1086 l 196 1086 l 196 953 z "},"\"":{"ha":629,"x_min":28,"x_max":588,"o":"m 168 1031 q 78 991 115 1031 q 40 903 40 951 q 57 840 40 869 q 100 794 74 811 q 73 757 96 778 q 28 724 50 736 l 78 613 q 233 724 171 647 q 296 882 296 800 q 259 989 296 947 q 168 1031 222 1031 m 460 1031 q 369 991 407 1031 q 332 903 332 951 q 349 840 332 869 q 392 794 365 811 q 365 757 388 778 q 319 724 342 736 l 369 613 q 525 724 463 647 q 588 882 588 800 q 551 989 588 947 q 460 1031 514 1031 z "},"'":{"ha":338,"x_min":28,"x_max":296,"o":"m 168 1031 q 78 991 115 1031 q 40 903 40 951 q 57 840 40 869 q 100 794 74 811 q 73 757 96 778 q 28 724 50 736 l 78 613 q 233 724 171 647 q 296 882 296 800 q 259 989 296 947 q 168 1031 222 1031 z "},"‘":{"ha":338,"x_min":42,"x_max":310,"o":"m 169 613 q 260 652 222 613 q 297 740 297 692 q 281 803 297 774 q 238 849 264 832 q 265 886 242 865 q 310 919 288 907 l 260 1031 q 104 919 167 996 q 42 761 42 843 q 78 654 42 696 q 169 613 115 613 z "},"’":{"ha":338,"x_min":28,"x_max":296,"o":"m 168 1031 q 78 991 115 1031 q 40 903 40 951 q 57 840 40 869 q 100 794 74 811 q 73 757 96 778 q 28 724 50 736 l 78 613 q 233 724 171 647 q 296 882 296 800 q 259 989 296 947 q 168 1031 222 1031 z "},"‚":{"ha":338,"x_min":28,"x_max":296,"o":"m 168 204 q 78 165 115 204 q 40 76 40 125 q 57 14 40 43 q 100 -32 74 -15 q 73 -69 96 -49 q 28 -103 50 -90 l 78 -214 q 233 -103 171 -179 q 296 56 296 -26 q 259 163 296 121 q 168 204 222 204 z "},"“":{"ha":629,"x_min":42,"x_max":601,"o":"m 169 613 q 260 652 222 613 q 297 740 297 692 q 281 803 297 774 q 238 849 264 832 q 265 886 242 865 q 310 919 288 907 l 260 1031 q 104 919 167 996 q 42 761 42 843 q 78 654 42 696 q 169 613 115 613 m 461 613 q 551 652 514 613 q 589 740 589 692 q 572 803 589 774 q 529 849 556 832 q 556 886 533 865 q 601 919 579 907 l 551 1031 q 396 919 458 996 q 333 761 333 843 q 370 654 333 696 q 461 613 407 613 z "},"”":{"ha":629,"x_min":28,"x_max":588,"o":"m 168 1031 q 78 991 115 1031 q 40 903 40 951 q 57 840 40 869 q 100 794 74 811 q 73 757 96 778 q 28 724 50 736 l 78 613 q 233 724 171 647 q 296 882 296 800 q 259 989 296 947 q 168 1031 222 1031 m 460 1031 q 369 991 407 1031 q 332 903 332 951 q 349 840 332 869 q 392 794 365 811 q 365 757 388 778 q 319 724 342 736 l 369 613 q 525 724 463 647 q 588 882 588 800 q 551 989 588 947 q 460 1031 514 1031 z "},"„":{"ha":629,"x_min":28,"x_max":588,"o":"m 168 204 q 78 165 115 204 q 40 76 40 125 q 57 14 40 43 q 100 -32 74 -15 q 73 -69 96 -49 q 28 -103 50 -90 l 78 -214 q 233 -103 171 -179 q 296 56 296 -26 q 259 163 296 121 q 168 204 222 204 m 460 204 q 369 165 407 204 q 332 76 332 125 q 349 14 332 43 q 392 -32 365 -15 q 365 -69 388 -49 q 319 -103 342 -90 l 369 -214 q 525 -103 463 -179 q 588 56 588 -26 q 551 163 588 121 q 460 204 514 204 z "},"·":{"ha":338,"x_min":42,"x_max":296,"o":"m 169 239 q 259 275 222 239 q 296 365 296 311 q 259 456 296 419 q 169 493 222 493 q 78 456 115 493 q 42 365 42 419 q 78 275 42 311 q 169 239 115 239 z "},"(":{"ha":514,"x_min":69,"x_max":472,"o":"m 471 -1 q 367 206 411 71 q 322 447 322 340 q 367 681 322 550 q 472 896 411 811 l 246 947 q 114 699 158 822 q 69 446 69 576 q 115 184 69 311 q 246 -54 161 57 l 471 -1 z "},")":{"ha":514,"x_min":42,"x_max":444,"o":"m 43 894 q 147 688 103 822 q 192 446 192 553 q 147 213 192 343 q 42 -3 103 82 l 268 -54 q 400 194 356 71 q 444 447 444 317 q 399 709 444 582 q 268 947 353 836 l 43 894 z "},"[":{"ha":664,"x_min":139,"x_max":650,"o":"m 626 78 l 392 78 l 392 768 l 628 768 l 650 967 l 139 967 l 139 -121 l 650 -121 l 626 78 z "},"]":{"ha":664,"x_min":14,"x_max":525,"o":"m 36 768 l 272 768 l 272 78 l 38 78 l 14 -121 l 525 -121 l 525 967 l 14 967 l 36 768 z "},"{":{"ha":485,"x_min":42,"x_max":471,"o":"m 350 431 q 384 464 371 446 q 397 517 397 482 q 391 562 397 544 q 372 599 385 579 q 355 631 361 615 q 349 669 349 646 q 401 718 349 718 l 453 718 l 471 915 l 314 915 q 165 869 214 915 q 117 740 117 822 q 124 692 117 717 q 143 636 131 668 q 163 571 163 593 q 145 533 163 547 q 104 518 128 518 l 42 518 l 42 343 l 104 343 q 145 328 128 343 q 163 290 163 314 q 156 259 163 278 q 143 222 150 240 q 123 166 129 188 q 117 121 117 144 q 165 -8 117 39 q 314 -54 214 -54 l 471 -54 l 453 143 l 401 143 q 349 192 349 143 q 354 231 349 215 q 372 267 360 246 q 391 302 385 286 q 397 344 397 318 q 383 397 397 378 q 350 431 369 417 z "},"}":{"ha":485,"x_min":14,"x_max":443,"o":"m 135 431 q 101 397 114 415 q 88 344 88 379 q 94 302 88 318 q 113 267 100 286 q 130 232 124 247 q 136 192 136 217 q 83 143 136 143 l 32 143 l 14 -54 l 171 -54 q 319 -8 271 -54 q 368 121 368 39 q 361 167 368 144 q 340 228 354 189 q 322 290 322 274 q 340 328 322 314 q 381 343 357 343 l 443 343 l 443 518 l 381 518 q 340 533 357 518 q 322 571 322 547 q 331 610 322 586 q 342 639 340 635 q 361 694 354 672 q 368 740 368 717 q 319 869 368 822 q 171 915 271 915 l 14 915 l 32 718 l 83 718 q 136 669 136 718 q 131 631 136 646 q 113 594 125 615 q 94 559 100 575 q 88 517 88 543 q 101 464 88 483 q 135 431 115 444 z "},"/":{"ha":703,"x_min":14,"x_max":689,"o":"m 274 0 l 689 981 l 428 981 l 14 0 l 274 0 z "},"\\":{"ha":703,"x_min":14,"x_max":689,"o":"m 14 986 l 429 0 l 689 0 l 275 986 l 14 986 z "},"|":{"ha":475,"x_min":111,"x_max":364,"o":"m 364 -22 l 364 968 l 111 990 l 111 0 l 364 -22 z "},"¦":{"ha":475,"x_min":111,"x_max":364,"o":"m 364 547 l 364 968 l 111 990 l 111 569 l 364 547 m 364 -22 l 364 399 l 111 421 l 111 0 l 364 -22 z "},"«":{"ha":585,"x_min":42,"x_max":557,"o":"m 306 249 l 214 343 l 306 436 l 260 585 l 42 374 l 42 311 l 260 101 l 306 249 m 557 249 l 465 343 l 557 436 l 511 585 l 293 374 l 293 311 l 511 101 l 557 249 z "},"»":{"ha":585,"x_min":28,"x_max":543,"o":"m 28 438 l 119 343 l 28 250 l 74 101 l 292 313 l 292 375 l 74 585 l 28 438 m 279 438 l 371 343 l 279 250 l 325 101 l 543 313 l 543 375 l 325 585 l 279 438 z "},"π":{"ha":1003,"x_min":14,"x_max":989,"o":"m 597 475 l 597 0 l 850 0 l 850 475 l 989 475 l 989 674 l 14 674 l 14 475 l 153 475 l 153 0 l 406 0 l 406 475 l 597 475 z "},"†":{"ha":703,"x_min":42,"x_max":661,"o":"m 42 868 l 68 671 l 229 671 l 229 0 l 464 0 l 464 671 l 661 671 l 636 868 l 479 868 l 479 1083 l 229 1083 l 229 868 l 42 868 z "},"‡":{"ha":721,"x_min":42,"x_max":679,"o":"m 679 214 l 654 413 l 490 413 l 490 671 l 679 671 l 654 868 l 490 868 l 490 1083 l 229 1083 l 229 868 l 42 868 l 68 671 l 233 671 l 233 413 l 42 413 l 68 214 l 233 214 l 226 -8 l 493 1 l 486 214 l 679 214 z "},"•":{"ha":428,"x_min":42,"x_max":386,"o":"m 213 289 q 299 312 260 289 q 363 374 339 335 q 386 460 386 414 q 363 545 386 506 q 299 608 339 585 q 213 632 258 632 q 92 581 142 632 q 42 460 42 531 q 92 339 42 389 q 213 289 142 289 z "},"…":{"ha":861,"x_min":42,"x_max":819,"o":"m 157 0 q 239 33 206 0 q 272 115 272 65 q 239 197 272 164 q 157 231 206 231 q 75 197 108 231 q 42 115 42 164 q 75 33 42 65 q 157 0 108 0 m 431 0 q 513 33 479 0 q 546 115 546 65 q 513 197 546 164 q 431 231 479 231 q 349 197 382 231 q 315 115 315 164 q 349 33 315 65 q 431 0 382 0 m 704 0 q 786 33 753 0 q 819 115 819 65 q 786 197 819 164 q 704 231 753 231 q 622 197 656 231 q 589 115 589 164 q 622 33 589 65 q 704 0 656 0 z "},"‹":{"ha":375,"x_min":42,"x_max":347,"o":"m 347 269 l 256 350 l 347 429 l 301 619 l 42 394 l 42 304 l 301 81 l 347 269 z "},"›":{"ha":375,"x_min":28,"x_max":333,"o":"m 28 431 l 119 350 l 28 271 l 74 81 l 333 306 l 333 396 l 74 619 l 28 431 z "},"-":{"ha":489,"x_min":42,"x_max":447,"o":"m 57 281 l 447 281 l 433 479 l 42 479 l 57 281 z "},"_":{"ha":633,"x_min":42,"x_max":592,"o":"m 57 0 l 592 0 l 578 199 l 42 199 l 57 0 z "},"–":{"ha":633,"x_min":42,"x_max":592,"o":"m 57 281 l 592 281 l 578 479 l 42 479 l 57 281 z "},"—":{"ha":796,"x_min":42,"x_max":754,"o":"m 57 281 l 754 281 l 740 479 l 42 479 l 57 281 z "},"#":{"ha":899,"x_min":42,"x_max":857,"o":"m 439 592 l 469 718 l 263 718 l 232 592 l 42 592 l 57 407 l 188 407 l 163 299 l 42 299 l 57 114 l 118 114 l 89 -14 l 293 -21 l 325 114 l 457 114 l 428 -14 l 632 -21 l 664 114 l 857 114 l 843 299 l 708 299 l 733 407 l 857 407 l 843 592 l 778 592 l 808 718 l 601 718 l 571 592 l 439 592 m 369 299 l 394 407 l 526 407 l 501 299 l 369 299 z "},"%":{"ha":1353,"x_min":28,"x_max":1325,"o":"m 599 0 l 1014 981 l 753 981 l 339 0 l 599 0 m 271 468 q 460 535 389 468 q 531 718 531 603 q 464 906 531 836 q 278 975 397 975 q 95 906 163 975 q 28 721 28 838 q 92 535 28 603 q 271 468 156 468 m 339 718 q 324 656 339 676 q 275 636 308 636 q 233 657 246 636 q 219 721 219 678 q 281 803 219 803 q 326 781 313 803 q 339 718 339 760 m 1065 1 q 1254 69 1183 1 q 1325 251 1325 136 q 1258 439 1325 369 q 1072 508 1192 508 q 890 440 957 508 q 822 254 822 371 q 886 69 822 136 q 1065 1 950 1 m 1133 251 q 1118 190 1133 210 q 1069 169 1103 169 q 1027 190 1040 169 q 1014 254 1014 211 q 1075 336 1014 336 q 1120 315 1107 336 q 1133 251 1133 293 z "},"+":{"ha":810,"x_min":42,"x_max":768,"o":"m 522 736 l 289 736 l 289 479 l 42 479 l 57 281 l 289 281 l 289 11 l 522 0 l 522 281 l 768 281 l 754 479 l 522 479 l 522 736 z "},"÷":{"ha":711,"x_min":42,"x_max":669,"o":"m 356 765 q 265 728 301 765 q 228 638 228 692 q 265 547 228 583 q 356 511 301 511 q 445 547 408 511 q 482 638 482 583 q 445 728 482 692 q 356 765 408 765 m 57 288 l 669 288 l 656 472 l 42 472 l 57 288 m 356 254 q 265 217 301 254 q 228 126 228 181 q 265 36 228 72 q 356 0 301 0 q 445 36 408 0 q 482 126 482 72 q 445 217 482 181 q 356 254 408 254 z "},"×":{"ha":843,"x_min":42,"x_max":801,"o":"m 526 40 l 421 188 l 299 40 l 42 40 l 308 365 l 65 672 l 317 672 l 421 525 l 544 672 l 801 672 l 535 347 l 778 40 l 526 40 z "},"±":{"ha":757,"x_min":42,"x_max":715,"o":"m 483 792 l 278 792 l 278 576 l 44 576 l 60 406 l 278 406 l 278 218 l 483 207 l 483 406 l 715 406 l 701 576 l 483 576 l 483 792 m 57 0 l 713 0 l 699 171 l 42 171 l 57 0 z "},"<":{"ha":531,"x_min":42,"x_max":503,"o":"m 503 483 l 457 701 l 42 407 l 42 294 l 457 -3 l 503 218 l 315 351 l 503 483 z "},"=":{"ha":754,"x_min":42,"x_max":713,"o":"m 57 407 l 713 407 l 699 592 l 42 592 l 57 407 m 57 114 l 713 114 l 699 299 l 42 299 l 57 114 z "},">":{"ha":531,"x_min":28,"x_max":489,"o":"m 28 481 l 215 347 l 28 215 l 74 -3 l 489 292 l 489 404 l 74 701 l 28 481 z "},"°":{"ha":410,"x_min":14,"x_max":396,"o":"m 206 1000 q 110 976 154 1000 q 40 909 65 951 q 14 817 14 867 q 40 724 14 765 q 109 658 65 682 q 206 635 153 635 q 299 658 256 635 q 369 724 343 682 q 396 817 396 767 q 369 908 396 867 q 299 975 343 950 q 206 1000 256 1000 m 243 814 q 233 789 243 800 q 207 778 222 778 q 182 790 193 778 q 171 817 171 803 q 182 842 171 831 q 207 853 193 853 q 233 841 222 853 q 243 814 243 829 z "},"¹":{"ha":467,"x_min":14,"x_max":383,"o":"m 257 1061 l 14 949 l 63 786 l 193 844 l 193 468 l 383 468 l 383 1061 l 257 1061 z "},"²":{"ha":533,"x_min":21,"x_max":506,"o":"m 250 1071 q 129 1051 183 1071 q 21 994 75 1031 l 101 869 q 179 906 150 894 q 242 917 208 917 q 295 905 276 917 q 314 875 314 893 q 226 750 311 824 l 49 593 l 49 468 l 506 468 l 489 617 l 318 617 l 350 646 q 451 767 421 710 q 482 893 482 825 q 424 1018 482 965 q 250 1071 367 1071 z "},"³":{"ha":567,"x_min":0,"x_max":532,"o":"m 265 1071 q 22 994 121 1071 l 113 865 q 246 917 188 917 q 305 903 285 917 q 325 869 325 890 q 299 828 325 843 q 226 813 272 813 l 142 813 l 157 663 l 264 663 q 316 646 296 663 q 336 600 336 629 q 313 557 336 574 q 254 540 289 540 q 182 553 218 540 q 101 593 146 565 l 0 467 q 126 408 58 429 q 253 388 194 388 q 399 414 335 388 q 497 487 463 440 q 532 594 532 533 q 506 684 532 639 q 442 751 479 729 q 494 808 469 765 q 519 886 519 850 q 450 1020 519 969 q 265 1071 381 1071 z "},"¼":{"ha":1371,"x_min":14,"x_max":1343,"o":"m 14 949 l 63 786 l 193 844 l 193 468 l 383 468 l 383 1061 l 257 1061 l 14 949 m 1157 972 l 924 972 l 96 -186 l 328 -186 l 1157 972 m 1235 50 l 1235 453 l 1089 453 l 717 39 l 739 -104 l 1039 -104 l 1039 -231 l 1235 -231 l 1235 -104 l 1333 -104 l 1343 50 l 1235 50 m 1039 157 l 1039 50 l 947 50 l 1039 157 z "},"½":{"ha":1361,"x_min":14,"x_max":1333,"o":"m 257 1061 l 14 949 l 63 786 l 193 844 l 193 468 l 383 468 l 383 1061 l 257 1061 m 328 -186 l 1157 972 l 924 972 l 96 -186 l 328 -186 m 1078 451 q 957 431 1011 451 q 849 375 903 411 l 929 250 q 1007 286 978 275 q 1069 297 1036 297 q 1123 285 1104 297 q 1142 256 1142 274 q 1054 131 1139 204 l 876 -26 l 876 -151 l 1333 -151 l 1317 -3 l 1146 -3 l 1178 26 q 1279 148 1249 90 q 1310 274 1310 206 q 1252 399 1310 346 q 1078 451 1194 451 z "},"¾":{"ha":1379,"x_min":0,"x_max":1351,"o":"m 265 1071 q 22 994 121 1071 l 113 865 q 246 917 188 917 q 305 903 285 917 q 325 869 325 890 q 299 828 325 843 q 226 813 272 813 l 142 813 l 157 663 l 264 663 q 316 646 296 663 q 336 600 336 629 q 313 557 336 574 q 254 540 289 540 q 182 553 218 540 q 101 593 146 565 l 0 467 q 126 408 58 429 q 253 388 194 388 q 399 414 335 388 q 497 487 463 440 q 532 594 532 533 q 506 684 532 639 q 442 751 479 729 q 494 808 469 765 q 519 886 519 850 q 450 1020 519 969 q 265 1071 381 1071 m 344 -186 l 1174 972 l 940 972 l 113 -186 l 344 -186 m 725 39 l 747 -104 l 1047 -104 l 1047 -231 l 1243 -231 l 1243 -104 l 1342 -104 l 1351 50 l 1243 50 l 1243 453 l 1097 453 l 725 39 m 1047 50 l 956 50 l 1047 157 l 1047 50 z "},"℮":{"ha":740,"x_min":28,"x_max":713,"o":"m 713 347 q 676 524 713 444 q 567 650 639 603 q 390 697 494 697 q 205 653 288 697 q 75 528 122 610 q 28 336 28 446 q 79 145 28 225 q 222 25 131 65 q 431 -15 313 -15 q 591 6 513 -15 q 711 57 669 26 l 640 228 q 456 182 551 182 q 355 206 393 182 q 303 274 317 231 l 713 274 l 713 347 m 296 399 q 322 465 294 436 q 383 494 349 494 q 449 464 426 494 q 471 399 471 433 l 296 399 z "},"∂":{"ha":819,"x_min":28,"x_max":792,"o":"m 158 1042 q 499 891 356 997 q 717 643 643 785 q 792 353 792 501 q 744 158 792 242 q 613 30 697 75 q 419 -15 528 -15 q 219 24 308 -15 q 79 144 131 64 q 28 340 28 224 q 77 530 28 449 q 208 654 126 611 q 382 697 289 697 l 406 696 q 74 886 289 831 l 158 1042 m 407 190 q 499 226 467 190 q 531 333 531 263 q 517 467 531 406 q 413 492 463 492 q 322 451 354 492 q 289 340 289 411 q 319 231 289 271 q 407 190 350 190 z "},"∏":{"ha":1058,"x_min":111,"x_max":947,"o":"m 363 746 l 694 746 l 694 0 l 947 0 l 947 944 l 111 944 l 111 0 l 363 0 l 363 746 z "},"∑":{"ha":696,"x_min":42,"x_max":668,"o":"m 44 764 l 250 478 l 42 181 l 42 0 l 668 0 l 644 199 l 328 199 l 488 439 l 488 519 l 329 746 l 626 746 l 603 944 l 44 944 l 44 764 z "},"−":{"ha":689,"x_min":42,"x_max":647,"o":"m 57 281 l 647 281 l 633 479 l 42 479 l 57 281 z "},"√":{"ha":1056,"x_min":14,"x_max":1042,"o":"m 299 488 l 14 488 l 278 0 l 628 0 l 1042 981 l 786 981 l 457 193 l 299 488 z "},"∞":{"ha":1214,"x_min":28,"x_max":1186,"o":"m 372 686 q 195 643 274 686 q 72 521 117 600 q 28 336 28 442 q 72 161 28 238 q 196 42 117 85 q 375 0 275 0 q 505 33 439 0 q 600 111 571 67 q 706 32 643 64 q 842 0 768 0 q 1019 44 940 0 q 1142 169 1097 89 q 1186 350 1186 249 q 1144 526 1186 450 q 1024 644 1103 603 q 839 686 946 686 q 709 653 775 686 q 614 575 643 619 q 508 654 571 622 q 372 686 446 686 m 508 388 q 455 279 489 326 q 383 232 421 232 q 306 262 338 232 q 275 332 275 292 q 306 418 275 382 q 383 454 338 454 q 508 388 453 454 m 706 299 q 759 407 725 360 q 831 454 793 454 q 908 424 876 454 q 939 354 939 394 q 908 268 939 304 q 831 232 876 232 q 706 299 761 232 z "},"∫":{"ha":778,"x_min":0,"x_max":778,"o":"m 515 792 q 540 858 515 833 q 608 882 564 882 q 656 875 628 882 q 706 856 683 868 l 778 1028 q 695 1069 751 1050 q 592 1088 639 1088 q 428 1057 503 1088 q 308 966 353 1026 q 263 819 263 906 l 263 47 q 238 -19 263 6 q 169 -43 214 -43 q 122 -36 150 -43 q 72 -17 94 -29 l 0 -189 q 83 -230 26 -211 q 186 -249 139 -249 q 350 -218 275 -249 q 470 -127 425 -187 q 515 19 515 -67 l 515 792 z "},"≈":{"ha":785,"x_min":42,"x_max":743,"o":"m 568 656 q 551 610 568 632 q 510 588 535 588 q 394 611 469 588 q 264 635 319 635 q 98 578 154 635 q 42 413 42 521 l 217 385 q 247 430 217 407 q 303 453 276 453 q 429 429 361 453 q 554 406 496 406 q 699 461 656 406 q 743 628 743 517 l 568 656 m 568 369 q 551 324 568 346 q 510 301 535 301 q 394 325 469 301 q 264 349 319 349 q 42 126 42 349 l 217 99 q 247 144 217 121 q 303 167 276 167 q 429 143 361 167 q 554 119 496 119 q 699 176 656 119 q 743 342 743 233 l 568 369 z "},"≠":{"ha":796,"x_min":42,"x_max":754,"o":"m 42 596 l 57 397 l 299 397 l 256 299 l 42 299 l 57 100 l 167 100 l 117 -14 l 349 -14 l 403 100 l 754 100 l 740 299 l 490 299 l 535 397 l 754 397 l 740 596 l 624 596 l 678 718 l 443 718 l 386 596 l 42 596 z "},"≤":{"ha":550,"x_min":42,"x_max":522,"o":"m 513 594 l 467 785 l 51 560 l 51 447 l 467 219 l 513 413 l 325 504 l 513 594 m 57 0 l 522 0 l 508 171 l 42 171 l 57 0 z "},"≥":{"ha":550,"x_min":28,"x_max":508,"o":"m 38 592 l 225 500 l 38 410 l 83 219 l 499 444 l 499 557 l 83 785 l 38 592 m 43 0 l 508 0 l 494 171 l 28 171 l 43 0 z "},"‰":{"ha":1896,"x_min":28,"x_max":1868,"o":"m 599 0 l 1014 981 l 753 981 l 339 0 l 599 0 m 278 975 q 95 906 163 975 q 28 721 28 838 q 92 535 28 603 q 271 468 156 468 q 460 535 389 468 q 531 718 531 603 q 464 906 531 836 q 278 975 397 975 m 281 803 q 326 781 313 803 q 339 718 339 760 q 324 656 339 676 q 275 636 308 636 q 233 657 246 636 q 219 721 219 678 q 281 803 219 803 m 1072 508 q 890 440 957 508 q 822 254 822 371 q 886 69 822 136 q 1065 1 950 1 q 1254 69 1183 1 q 1325 251 1325 136 q 1258 439 1325 369 q 1072 508 1192 508 m 1615 508 q 1433 440 1500 508 q 1365 254 1365 371 q 1429 69 1365 136 q 1608 1 1493 1 q 1797 69 1726 1 q 1868 251 1868 136 q 1801 439 1868 369 q 1615 508 1735 508 m 1075 336 q 1120 315 1107 336 q 1133 251 1133 293 q 1118 190 1133 210 q 1069 169 1103 169 q 1027 190 1040 169 q 1014 254 1014 211 q 1075 336 1014 336 m 1618 336 q 1663 315 1650 336 q 1676 251 1676 293 q 1661 190 1676 210 q 1613 169 1646 169 q 1570 190 1583 169 q 1557 254 1557 211 q 1618 336 1557 336 z "},"⁄":{"ha":703,"x_min":14,"x_max":689,"o":"m 274 0 l 689 981 l 428 981 l 14 0 l 274 0 z "},"◊":{"ha":850,"x_min":42,"x_max":808,"o":"m 808 451 l 475 833 l 376 833 l 42 451 l 42 381 l 378 0 l 474 0 l 808 381 l 808 451 m 425 226 l 267 413 l 425 600 l 585 413 l 425 226 z "},"©":{"ha":1146,"x_min":28,"x_max":1118,"o":"m 1118 467 q 1049 735 1118 614 q 856 925 981 856 q 572 994 732 994 q 290 925 414 994 q 97 735 165 856 q 28 467 28 614 q 97 202 28 322 q 290 12 165 82 q 572 -58 414 -58 q 856 12 732 -58 q 1049 202 981 82 q 1118 467 1118 322 m 215 468 q 260 649 215 568 q 385 777 304 731 q 572 824 467 824 q 767 778 688 824 q 888 651 847 732 q 928 468 928 571 q 884 288 928 368 q 759 160 840 207 q 572 114 678 114 q 385 160 467 114 q 260 288 304 207 q 215 468 215 368 m 589 160 q 790 219 715 160 l 729 371 q 668 346 696 353 q 611 339 640 339 q 530 373 564 339 q 496 467 496 407 q 530 565 496 528 q 611 603 564 603 q 669 596 643 603 q 729 571 694 589 l 790 722 q 589 782 715 782 q 422 744 494 782 q 308 634 349 706 q 268 467 268 563 q 356 241 268 322 q 589 160 443 160 z "},"®":{"ha":1004,"x_min":28,"x_max":976,"o":"m 976 660 q 918 901 976 793 q 752 1070 860 1008 q 501 1132 644 1132 q 252 1070 360 1132 q 86 901 144 1008 q 28 660 28 793 q 86 422 28 529 q 252 253 144 315 q 501 192 360 192 q 752 253 644 192 q 918 422 860 315 q 976 660 976 529 m 182 661 q 220 829 182 756 q 331 944 258 903 q 501 986 404 986 q 672 944 599 986 q 783 829 744 903 q 822 661 822 756 q 783 494 822 568 q 672 378 744 421 q 501 336 599 336 q 331 378 404 336 q 220 494 258 421 q 182 661 182 568 m 638 606 q 696 663 674 628 q 718 742 718 697 q 656 868 718 825 q 504 911 593 911 l 297 911 l 297 417 l 443 417 l 443 572 l 493 572 l 553 417 l 718 417 l 638 606 m 486 797 q 540 785 522 797 q 557 742 557 774 q 538 699 557 714 q 486 683 518 683 l 443 683 l 443 797 l 486 797 z "},"™":{"ha":1117,"x_min":14,"x_max":1075,"o":"m 14 800 l 163 800 l 163 403 l 336 403 l 336 800 l 499 800 l 482 944 l 14 944 l 14 800 m 900 403 l 1075 403 l 1075 944 l 951 944 l 813 768 l 663 944 l 536 944 l 536 403 l 710 403 l 710 646 l 776 574 l 849 582 l 900 639 l 900 403 z "},"&":{"ha":957,"x_min":42,"x_max":929,"o":"m 710 882 q 429 967 592 967 q 267 928 339 967 q 156 824 196 889 q 115 685 115 760 q 161 538 115 607 q 74 425 107 490 q 42 294 42 360 q 92 114 42 188 q 229 3 143 40 q 424 -33 315 -33 q 678 63 556 -33 l 781 -26 l 929 157 l 824 246 q 901 496 886 368 l 679 585 q 633 407 667 494 l 454 560 q 382 632 401 607 q 363 681 363 657 q 389 735 363 711 q 463 760 415 760 q 642 710 551 760 l 710 882 m 511 208 q 429 175 469 175 q 335 209 368 175 q 303 303 303 243 q 319 375 303 342 l 511 208 z "},"@":{"ha":1128,"x_min":28,"x_max":1100,"o":"m 638 617 q 481 589 556 617 q 356 494 406 561 q 307 318 307 428 q 372 144 307 208 q 567 79 438 79 q 676 106 624 79 q 774 75 713 75 q 927 117 851 75 q 1051 240 1003 160 q 1100 429 1100 321 q 1035 651 1100 549 q 855 814 969 753 q 601 875 740 875 q 295 799 425 875 q 97 599 165 724 q 28 331 28 474 q 103 68 28 178 q 302 -98 178 -42 q 575 -154 426 -154 q 730 -141 658 -154 q 881 -86 801 -128 l 819 54 q 706 31 778 39 q 588 22 633 22 q 419 56 496 22 q 295 158 342 90 q 249 321 249 225 q 295 513 249 429 q 424 641 342 596 q 610 686 506 686 q 769 649 706 686 q 863 553 832 613 q 893 422 893 493 q 874 341 893 376 q 831 285 856 306 q 793 265 807 265 q 786 278 785 265 l 818 532 l 761 617 l 638 617 m 593 313 q 584 288 592 299 q 564 276 576 276 q 524 292 538 276 q 510 329 510 308 q 535 417 510 383 q 611 451 561 451 l 593 313 z "},"^":{"ha":660,"x_min":14,"x_max":646,"o":"m 646 196 l 431 589 l 231 589 l 14 196 l 260 196 l 333 351 l 406 196 l 646 196 z "},"~":{"ha":785,"x_min":42,"x_max":743,"o":"m 240 243 q 259 289 240 267 q 303 311 278 311 q 365 305 336 311 q 429 288 393 299 q 499 269 474 275 q 554 264 524 264 q 699 342 654 264 q 743 556 743 421 l 568 556 q 551 510 568 532 q 510 488 535 488 q 390 511 467 488 q 326 527 360 519 q 264 535 292 535 q 100 453 158 535 q 42 243 42 372 l 240 243 z "},"§":{"ha":986,"x_min":42,"x_max":958,"o":"m 958 381 q 899 220 958 289 q 732 122 839 151 l 732 113 q 686 -31 732 32 q 555 -129 640 -93 q 356 -165 469 -165 q 191 -143 282 -165 q 46 -89 100 -121 l 129 101 q 233 60 167 79 q 349 42 299 42 q 438 65 404 42 q 471 115 471 88 q 447 151 471 133 q 368 200 422 168 l 325 225 q 178 317 231 281 q 83 413 125 354 q 42 544 42 471 q 103 706 43 638 q 268 800 163 774 l 268 813 q 312 952 268 890 q 435 1049 356 1014 q 619 1083 514 1083 q 767 1063 692 1083 q 897 1006 843 1042 l 822 835 q 709 868 749 860 q 622 876 669 876 q 555 857 581 876 q 529 810 529 838 q 551 773 529 789 q 622 731 572 757 l 672 703 q 818 610 760 653 q 917 510 876 568 q 958 381 958 453 m 446 435 q 625 315 567 367 q 678 343 658 324 q 697 383 697 363 q 673 419 697 401 q 594 468 649 436 l 551 493 l 524 510 q 378 607 429 564 q 324 584 344 603 q 303 542 303 565 q 324 505 303 521 q 396 463 346 489 l 446 435 z "},"ª":{"ha":482,"x_min":28,"x_max":454,"o":"m 92 776 q 153 797 119 789 q 211 806 188 806 q 263 783 246 806 l 215 783 q 78 746 128 783 q 28 633 28 708 q 74 512 28 556 q 208 468 119 468 q 284 481 249 468 q 342 515 319 493 l 374 478 l 454 478 l 454 775 q 403 922 454 868 q 256 975 351 975 q 142 962 200 975 q 43 929 85 949 l 92 776 m 192 640 q 201 655 192 650 q 224 660 210 660 l 274 660 l 274 653 q 249 633 264 640 q 219 626 235 626 q 199 631 207 626 q 192 640 192 635 z "},"¬":{"ha":769,"x_min":14,"x_max":728,"o":"m 32 390 l 494 390 l 494 163 l 728 153 l 728 496 l 703 589 l 14 589 l 32 390 z "},"¶":{"ha":1463,"x_min":28,"x_max":1435,"o":"m 990 746 l 990 0 l 1243 0 l 1243 746 l 1435 746 l 1435 944 l 438 944 q 141 863 254 944 q 28 610 28 781 q 86 418 28 496 q 241 303 144 340 q 456 265 338 265 l 490 265 l 490 0 l 742 0 l 742 746 l 990 746 z "},"º":{"ha":558,"x_min":28,"x_max":531,"o":"m 278 975 q 95 906 163 975 q 28 721 28 838 q 92 535 28 603 q 271 468 156 468 q 460 535 389 468 q 531 718 531 603 q 464 906 531 836 q 278 975 397 975 m 281 803 q 326 781 313 803 q 339 718 339 760 q 324 656 339 676 q 275 636 308 636 q 233 657 246 636 q 219 721 219 678 q 281 803 219 803 z "},"Ģ":{"ha":925,"x_min":42,"x_max":869,"o":"m 642 197 q 553 189 594 189 q 432 218 489 189 q 339 310 375 247 q 303 469 303 374 q 341 626 303 561 q 438 723 379 690 q 557 756 497 756 q 663 747 610 756 q 785 714 715 738 l 860 885 q 719 942 807 921 q 554 963 631 963 q 297 903 414 963 q 110 731 179 843 q 42 468 42 618 q 103 207 42 317 q 279 40 165 97 q 546 -18 393 -18 q 722 1 625 -18 q 869 51 818 19 l 869 544 l 501 544 l 479 360 l 642 360 l 642 197 m 549 -29 q 458 -69 496 -29 q 421 -157 421 -108 q 438 -219 421 -190 q 481 -265 454 -249 q 453 -303 476 -282 q 408 -336 431 -324 l 458 -447 q 614 -336 551 -412 q 676 -178 676 -260 q 640 -71 676 -112 q 549 -29 603 -29 z "},"Ķ":{"ha":1014,"x_min":111,"x_max":1000,"o":"m 364 283 l 364 0 l 111 0 l 111 944 l 364 944 l 364 617 l 743 965 l 939 824 l 618 524 l 1000 0 l 679 0 l 438 353 l 364 283 m 525 -29 q 435 -69 472 -29 q 397 -157 397 -108 q 414 -219 397 -190 q 457 -265 431 -249 q 430 -303 453 -282 q 385 -336 407 -324 l 435 -447 q 590 -336 528 -412 q 653 -178 653 -260 q 616 -71 653 -112 q 525 -29 579 -29 z "},"Ļ":{"ha":803,"x_min":111,"x_max":789,"o":"m 364 944 l 111 944 l 111 0 l 789 0 l 765 199 l 364 199 l 364 944 m 465 -29 q 375 -69 413 -29 q 338 -157 338 -108 q 354 -219 338 -190 q 397 -265 371 -249 q 370 -303 393 -282 q 325 -336 347 -324 l 375 -447 q 531 -336 468 -412 q 593 -178 593 -260 q 556 -71 593 -112 q 465 -29 519 -29 z "},"Ņ":{"ha":1074,"x_min":111,"x_max":963,"o":"m 726 0 l 963 0 l 963 944 l 710 944 l 710 432 l 346 944 l 111 944 l 111 0 l 364 0 l 364 497 l 726 0 m 550 -29 q 460 -69 497 -29 q 422 -157 422 -108 q 439 -219 422 -190 q 482 -265 456 -249 q 455 -303 478 -282 q 410 -336 432 -324 l 460 -447 q 615 -336 553 -412 q 678 -178 678 -260 q 641 -71 678 -112 q 550 -29 604 -29 z "},"Ŗ":{"ha":992,"x_min":111,"x_max":978,"o":"m 364 0 l 364 297 l 532 297 l 685 0 l 978 0 l 769 372 q 863 476 829 413 q 897 622 897 539 q 788 864 897 783 q 508 944 678 944 l 111 944 l 111 0 l 364 0 m 500 746 q 601 715 565 746 q 636 622 636 683 q 599 531 636 567 q 503 496 561 496 l 364 496 l 364 746 l 500 746 m 532 -29 q 442 -69 479 -29 q 404 -157 404 -108 q 421 -219 404 -190 q 464 -265 438 -249 q 437 -303 460 -282 q 392 -336 414 -324 l 442 -447 q 597 -336 535 -412 q 660 -178 660 -260 q 623 -71 660 -112 q 532 -29 586 -29 z "},"Ț":{"ha":860,"x_min":14,"x_max":846,"o":"m 14 746 l 292 746 l 292 0 l 544 0 l 544 746 l 846 746 l 822 944 l 14 944 l 14 746 m 428 -29 q 338 -69 375 -29 q 300 -157 300 -108 q 317 -219 300 -190 q 360 -265 333 -249 q 333 -303 356 -282 q 288 -336 310 -324 l 338 -447 q 493 -336 431 -412 q 556 -178 556 -260 q 519 -71 556 -112 q 428 -29 482 -29 z "},"ģ":{"ha":804,"x_min":28,"x_max":726,"o":"m 379 751 q 288 793 325 751 q 251 900 251 835 q 314 1058 251 982 q 469 1169 376 1135 l 519 1058 q 474 1025 497 1046 q 447 988 451 1004 q 490 942 474 971 q 507 879 507 913 q 469 791 507 831 q 379 751 432 751 m 726 -22 q 680 -176 726 -108 q 549 -281 633 -243 q 356 -319 465 -319 q 201 -299 297 -319 q 47 -242 106 -279 l 124 -64 q 236 -105 185 -94 q 338 -115 288 -115 q 435 -88 397 -115 q 474 -21 474 -61 l 474 7 q 374 -15 415 -15 q 123 74 218 -15 q 28 336 28 163 q 124 605 28 513 q 385 697 221 697 q 469 680 419 697 q 565 629 519 663 l 600 672 l 726 672 l 726 -22 m 413 179 q 474 200 443 179 l 474 485 q 401 503 433 503 q 321 458 353 503 q 289 338 289 414 q 321 220 289 261 q 413 179 353 179 z "},"ķ":{"ha":788,"x_min":83,"x_max":788,"o":"m 382 251 l 515 0 l 788 0 l 560 385 l 739 519 l 588 693 l 336 481 l 336 981 l 83 965 l 83 0 l 336 0 l 336 217 l 382 251 m 429 -29 q 339 -69 376 -29 q 301 -157 301 -108 q 318 -219 301 -190 q 361 -265 335 -249 q 334 -303 357 -282 q 289 -336 311 -324 l 339 -447 q 494 -336 432 -412 q 557 -178 557 -260 q 520 -71 557 -112 q 429 -29 483 -29 z "},"ļ":{"ha":419,"x_min":82,"x_max":350,"o":"m 83 965 l 83 0 l 336 0 l 336 981 l 83 965 m 222 -29 q 132 -69 169 -29 q 94 -157 94 -108 q 111 -219 94 -190 q 154 -265 128 -249 q 127 -303 150 -282 q 82 -336 104 -324 l 132 -447 q 288 -336 225 -412 q 350 -178 350 -260 q 313 -71 350 -112 q 222 -29 276 -29 z "},"ņ":{"ha":847,"x_min":69,"x_max":783,"o":"m 322 453 q 396 480 356 468 q 458 492 436 492 q 514 469 497 492 q 531 411 531 446 l 531 0 l 783 0 l 783 435 q 722 624 783 553 q 539 696 661 696 q 264 604 411 696 l 219 674 l 69 674 l 69 0 l 322 0 l 322 453 m 422 -29 q 332 -69 369 -29 q 294 -157 294 -108 q 311 -219 294 -190 q 354 -265 328 -249 q 327 -303 350 -282 q 282 -336 304 -324 l 332 -447 q 488 -336 425 -412 q 550 -178 550 -260 q 513 -71 550 -112 q 422 -29 476 -29 z "},"ŗ":{"ha":549,"x_min":56,"x_max":535,"o":"m 322 396 q 425 450 365 429 q 535 471 485 471 l 483 674 q 368 649 431 674 q 257 590 306 624 l 196 672 l 69 672 l 69 0 l 322 0 l 322 396 m 196 -29 q 106 -69 143 -29 q 68 -157 68 -108 q 85 -219 68 -190 q 128 -265 101 -249 q 101 -303 124 -282 q 56 -336 78 -324 l 106 -447 q 261 -336 199 -412 q 324 -178 324 -260 q 287 -71 324 -112 q 196 -29 250 -29 z "},"ț":{"ha":633,"x_min":14,"x_max":619,"o":"m 371 863 l 118 828 l 118 646 l 14 646 l 14 447 l 118 447 l 118 253 q 162 106 118 167 q 278 15 206 46 q 433 -15 350 -15 q 537 3 481 -15 q 619 44 593 22 l 547 217 q 450 190 500 190 q 392 215 414 190 q 371 281 371 239 l 371 447 l 571 447 l 547 646 l 371 646 l 371 863 m 376 -29 q 286 -69 324 -29 q 249 -157 249 -108 q 265 -219 249 -190 q 308 -265 282 -249 q 281 -303 304 -282 q 236 -336 258 -324 l 286 -447 q 442 -336 379 -412 q 504 -178 504 -260 q 467 -71 504 -112 q 376 -29 431 -29 z "},"அ":{"ha":1578,"x_min":35,"x_max":1460,"o":"m 1460 -175 l 1232 -175 l 1232 57 l 971 57 q 753 -131 896 -62 q 421 -200 611 -200 q 214 -169 301 -200 q 81 -83 126 -137 q 35 40 35 -29 q 96 182 35 129 q 267 235 157 235 l 800 235 q 806 311 806 267 q 759 477 806 414 q 636 550 713 540 q 661 460 661 510 q 604 320 660 375 q 464 265 549 265 q 310 322 371 265 q 250 465 250 378 q 297 605 250 543 q 424 702 343 667 q 608 738 506 738 q 830 683 731 738 q 987 530 929 628 q 1044 311 1044 432 q 1039 235 1044 268 l 1232 235 l 1232 713 l 1460 713 l 1460 -175 m 461 413 q 493 425 481 413 q 506 457 506 438 q 494 487 506 475 q 463 499 482 499 q 430 487 443 499 q 417 457 417 475 q 429 425 417 438 q 461 413 442 413 m 421 -8 q 696 57 601 -8 l 294 57 q 263 51 272 57 q 253 32 253 46 q 295 3 253 15 q 421 -8 338 -8 z "},"ஆ":{"ha":1863,"x_min":35,"x_max":1849,"o":"m 1583 167 q 1728 131 1668 167 q 1818 33 1788 94 q 1849 -99 1849 -28 q 1769 -317 1849 -221 q 1547 -469 1690 -414 q 1219 -524 1404 -524 q 1013 -490 1099 -524 q 885 -399 928 -457 q 842 -269 842 -342 q 874 -163 842 -211 q 965 -88 906 -115 q 1104 -61 1024 -61 l 1133 -61 l 1133 -240 l 1104 -240 q 1072 -249 1085 -240 q 1058 -276 1058 -258 q 1094 -317 1058 -301 q 1207 -332 1129 -332 q 1610 -107 1610 -332 q 1590 -48 1610 -71 q 1540 -25 1569 -25 q 1481 -49 1503 -25 q 1460 -111 1460 -74 l 1460 -175 l 1232 -175 l 1232 57 l 971 57 q 753 -131 896 -62 q 421 -200 611 -200 q 214 -169 301 -200 q 81 -83 126 -137 q 35 40 35 -29 q 96 182 35 129 q 267 235 157 235 l 800 235 q 806 311 806 267 q 759 477 806 414 q 636 550 713 540 q 661 460 661 510 q 604 320 660 375 q 464 265 549 265 q 310 322 371 265 q 250 465 250 378 q 297 605 250 543 q 424 702 343 667 q 608 738 506 738 q 830 683 731 738 q 987 530 929 628 q 1044 311 1044 432 q 1039 235 1044 268 l 1232 235 l 1232 713 l 1460 713 l 1460 138 q 1583 167 1518 167 m 461 413 q 493 425 481 413 q 506 457 506 438 q 494 487 506 475 q 463 499 482 499 q 430 487 443 499 q 417 457 417 475 q 429 425 417 438 q 461 413 442 413 m 421 -8 q 696 57 601 -8 l 294 57 q 263 51 272 57 q 253 32 253 46 q 295 3 253 15 q 421 -8 338 -8 z "},"ஐ":{"ha":1138,"x_min":56,"x_max":1082,"o":"m 1010 140 q 1051 48 1039 85 q 1063 -32 1063 11 q 984 -215 1063 -144 q 768 -285 906 -285 q 663 -265 717 -285 q 568 -212 610 -246 q 466 -265 525 -246 q 343 -285 407 -285 q 193 -251 258 -285 q 92 -156 128 -217 q 56 -19 56 -96 q 147 193 56 107 q 431 306 239 279 l 682 339 q 797 385 753 349 q 843 468 842 421 q 824 524 843 503 q 775 546 806 546 q 722 526 742 546 q 701 476 701 507 l 701 381 l 490 381 l 490 440 q 464 518 490 490 q 392 549 438 546 q 419 451 422 513 q 367 340 418 383 q 239 296 317 296 q 107 348 158 296 q 56 482 56 400 q 96 618 56 560 q 206 707 136 676 q 361 738 275 738 q 596 665 513 738 q 800 738 675 738 q 950 703 886 738 q 1048 607 1014 668 q 1082 468 1082 546 q 983 260 1082 346 q 682 149 885 175 l 431 115 q 330 74 365 107 q 294 -10 294 40 q 316 -69 294 -44 q 371 -94 338 -94 q 440 -75 417 -94 q 464 -24 464 -56 l 464 72 l 675 72 l 675 -24 q 694 -75 675 -56 q 747 -94 713 -94 q 804 -72 785 -94 q 824 -12 824 -50 q 775 132 824 44 l 1010 140 m 242 407 q 279 422 264 407 q 294 458 294 436 q 280 499 294 483 q 242 515 265 515 q 203 499 218 515 q 188 460 188 483 q 203 422 188 436 q 242 407 218 407 z "},"ஔ":{"ha":3025,"x_min":49,"x_max":3011,"o":"m 1199 392 q 1163 262 1199 319 q 1065 172 1128 204 q 922 140 1001 140 q 838 153 878 140 q 878 104 847 119 q 974 89 910 89 l 1114 89 l 1114 -78 l 988 -78 q 925 -196 975 -144 q 797 -276 875 -247 q 625 -304 719 -304 q 436 -269 519 -304 q 306 -168 353 -233 q 258 -18 258 -103 l 258 25 l 474 25 l 474 -6 q 515 -84 474 -56 q 622 -112 556 -112 q 726 -90 683 -112 q 775 -33 768 -68 q 656 210 656 36 l 656 374 l 833 374 q 851 334 835 349 q 897 319 867 319 q 942 340 925 319 q 960 392 960 360 q 913 472 960 436 q 787 529 867 508 q 611 550 707 550 q 434 528 518 550 q 296 471 350 507 q 318 472 303 472 q 456 424 401 472 q 511 299 511 375 q 451 159 511 214 q 299 104 392 104 q 171 135 228 104 q 81 223 114 167 q 49 349 49 279 q 123 551 49 461 q 326 691 197 640 q 611 742 454 742 q 907 697 772 742 q 1120 572 1042 651 q 1199 392 1199 492 m 356 296 q 340 335 356 319 q 299 351 324 351 q 256 335 272 351 q 239 296 239 319 q 256 254 239 271 q 297 238 272 238 q 338 254 321 238 q 356 296 354 271 m 2793 533 l 2793 0 l 2565 0 l 2565 533 l 2332 533 l 2332 0 l 2104 0 l 2104 304 q 2065 429 2104 374 q 1958 515 2025 485 q 1810 546 1890 546 q 1616 485 1688 546 q 1544 329 1544 425 q 1550 275 1544 297 q 1629 399 1565 351 q 1783 446 1693 446 q 1917 417 1858 446 q 2010 339 1976 389 q 2043 226 2043 289 q 2007 97 2043 154 q 1903 7 1971 39 q 1743 -25 1835 -25 q 1517 21 1617 -25 q 1360 147 1417 67 q 1303 329 1303 228 q 1364 540 1303 447 q 1538 685 1425 633 q 1799 738 1650 738 q 2104 640 1981 738 l 2104 713 l 2990 713 l 3011 533 l 2793 533 m 1774 283 q 1726 265 1744 283 q 1708 219 1708 247 q 1726 173 1708 192 q 1774 154 1744 154 q 1818 173 1800 154 q 1836 219 1836 192 q 1819 265 1836 247 q 1774 283 1801 283 z "},"ச":{"ha":1017,"x_min":42,"x_max":989,"o":"m 733 265 q 674 108 728 174 q 534 8 619 42 q 350 -25 449 -25 q 120 42 199 -25 q 42 217 42 108 q 78 338 42 285 q 185 418 114 390 l 185 713 l 968 713 l 989 533 l 733 533 l 733 444 l 968 444 l 989 265 l 733 265 m 404 444 l 518 444 l 518 533 l 404 533 l 404 444 m 361 167 q 460 190 413 167 q 517 265 508 213 l 358 265 q 303 252 322 265 q 283 217 283 239 q 303 181 283 194 q 361 167 324 167 z "},"எ":{"ha":1325,"x_min":56,"x_max":1311,"o":"m 1092 533 l 1092 0 l 864 0 l 864 533 l 556 533 q 363 478 429 533 q 297 329 297 422 q 303 275 297 297 q 382 399 318 351 q 536 446 446 446 q 670 417 611 446 q 763 339 729 389 q 796 226 796 289 q 760 97 796 154 q 656 7 724 39 q 496 -25 588 -25 q 269 21 369 -25 q 113 147 169 67 q 56 329 56 228 q 115 527 56 440 q 286 663 174 614 q 553 713 399 713 l 1289 713 l 1311 533 l 1092 533 m 526 283 q 479 265 497 283 q 461 219 461 247 q 479 173 461 192 q 526 154 497 154 q 571 173 553 154 q 589 219 589 192 q 572 265 589 247 q 526 283 554 283 z "},"ஏ":{"ha":1325,"x_min":56,"x_max":1311,"o":"m 1092 533 l 1092 11 q 1087 -89 1092 -50 q 1061 -158 1082 -128 q 997 -197 1040 -187 l 390 -347 l 329 -181 l 793 -53 q 842 -31 828 -43 q 860 3 857 -18 q 864 76 864 25 l 864 533 l 556 533 q 363 478 429 533 q 297 329 297 422 q 303 275 297 297 q 382 399 318 351 q 536 446 446 446 q 670 417 611 446 q 763 339 729 389 q 796 226 796 289 q 760 97 796 154 q 656 7 724 39 q 496 -25 588 -25 q 269 21 369 -25 q 113 147 169 67 q 56 329 56 228 q 115 527 56 440 q 286 663 174 614 q 553 713 399 713 l 1289 713 l 1311 533 l 1092 533 m 526 283 q 479 265 497 283 q 461 219 461 247 q 479 173 461 192 q 526 154 497 154 q 571 173 553 154 q 589 219 589 192 q 572 265 589 247 q 526 283 554 283 z "},"ஹ":{"ha":2522,"x_min":56,"x_max":2467,"o":"m 2089 738 q 2292 680 2207 738 q 2422 521 2378 622 q 2467 289 2467 419 q 2409 -4 2467 124 q 2238 -203 2351 -132 q 1964 -275 2125 -275 l 421 -275 q 190 -337 231 -275 l 56 -218 q 167 -127 86 -158 q 401 -96 249 -96 l 1964 -96 q 2162 8 2099 -96 q 2225 289 2225 111 q 2092 546 2225 546 q 1997 505 2029 546 q 1965 394 1965 464 l 1965 0 l 1738 0 l 1738 344 q 1704 491 1738 436 q 1604 546 1671 546 q 1515 504 1546 546 q 1483 382 1483 463 l 1483 0 l 842 0 l 842 179 q 872 258 861 219 q 882 342 882 297 q 846 447 882 400 q 744 519 810 493 q 594 546 679 546 q 440 518 507 546 q 335 442 372 490 q 297 329 297 393 q 303 275 297 297 q 382 399 318 351 q 536 446 446 446 q 670 417 611 446 q 763 339 729 389 q 796 226 796 289 q 760 97 796 154 q 656 7 724 39 q 496 -25 588 -25 q 269 21 369 -25 q 113 147 169 67 q 56 329 56 228 q 124 539 56 446 q 315 685 193 632 q 592 738 438 738 q 867 687 746 738 q 1054 546 988 636 q 1121 342 1121 456 q 1081 179 1121 256 l 1256 179 l 1256 393 q 1342 646 1256 554 q 1592 738 1429 738 q 1723 708 1663 738 q 1829 622 1783 678 q 1943 706 1876 675 q 2089 738 2010 738 m 526 283 q 479 265 497 283 q 461 219 461 247 q 479 173 461 192 q 526 154 497 154 q 571 173 553 154 q 589 219 589 192 q 572 265 589 247 q 526 283 554 283 z "},"இ":{"ha":1613,"x_min":28,"x_max":1501,"o":"m 815 988 q 1173 920 1017 988 q 1415 733 1329 853 q 1501 461 1501 613 l 1501 -204 l 1274 -206 l 1274 457 q 1217 635 1274 558 q 1057 753 1161 711 q 815 796 953 796 q 476 702 593 796 q 360 447 360 608 q 421 213 360 324 q 671 236 539 236 q 871 218 782 236 q 918 419 918 313 q 890 510 918 476 q 811 550 863 544 q 836 460 836 511 q 779 320 835 375 q 639 265 724 265 q 484 322 544 265 q 424 465 424 378 q 470 605 424 543 q 599 702 517 667 q 783 738 681 738 q 973 697 890 738 q 1101 583 1056 656 q 1147 419 1147 511 q 1081 147 1147 274 q 1205 44 1161 104 q 1249 -86 1249 -17 q 1180 -224 1249 -174 q 994 -275 1111 -275 q 638 -214 804 -275 q 283 -275 474 -275 q 97 -224 167 -275 q 28 -86 28 -174 q 72 37 28 -21 q 199 138 117 94 q 118 447 118 283 q 203 727 118 604 q 447 919 289 850 q 815 988 604 988 m 636 399 q 678 415 661 399 q 694 457 694 432 q 678 497 694 481 q 636 513 661 513 q 597 500 614 513 q 576 457 576 481 q 593 415 576 432 q 636 399 610 399 m 674 69 q 540 61 603 69 q 644 -17 590 15 q 757 65 703 18 q 674 69 717 69 m 1021 -76 q 972 -3 1021 -37 q 861 -99 924 -53 q 967 -108 910 -108 q 1006 -99 990 -108 q 1021 -76 1021 -90 m 308 -108 q 415 -99 367 -108 q 308 -8 357 -58 q 257 -76 257 -40 q 272 -99 257 -90 q 308 -108 286 -108 z "},"ஈ":{"ha":1307,"x_min":111,"x_max":1293,"o":"m 339 533 l 339 0 l 111 0 l 111 713 l 1272 713 l 1293 533 l 938 533 l 938 0 l 710 0 l 710 533 l 339 533 m 524 144 q 618 181 581 144 q 656 272 656 217 q 618 367 656 329 q 524 404 581 404 q 431 367 468 404 q 394 272 394 329 q 431 181 394 217 q 524 144 467 144 m 1122 144 q 1217 181 1179 144 q 1254 272 1254 217 q 1217 367 1254 329 q 1122 404 1179 404 q 1030 367 1067 404 q 993 272 993 329 q 1029 181 993 217 q 1122 144 1065 144 z "},"ஜ":{"ha":1138,"x_min":56,"x_max":1082,"o":"m 829 143 q 959 114 901 143 q 1049 33 1017 85 q 1082 -82 1082 -18 q 1014 -228 1082 -172 q 831 -285 946 -285 l 743 -285 l 743 -119 l 797 -119 q 840 -108 824 -119 q 856 -78 856 -96 q 844 -47 856 -58 q 813 -36 833 -36 q 765 -53 788 -36 q 704 -112 743 -71 q 613 -199 656 -164 q 506 -259 571 -233 q 356 -285 442 -285 q 196 -251 264 -285 q 92 -156 128 -217 q 56 -19 56 -96 q 147 193 56 107 q 431 306 239 279 l 682 339 q 797 385 753 349 q 843 468 842 421 q 824 524 843 503 q 775 546 806 546 q 722 526 742 546 q 701 476 701 507 l 701 381 l 490 381 l 490 440 q 464 518 490 490 q 392 549 438 546 q 419 451 422 513 q 367 340 418 383 q 239 296 317 296 q 107 348 158 296 q 56 482 56 400 q 96 618 56 560 q 206 707 136 676 q 361 738 275 738 q 596 665 513 738 q 800 738 675 738 q 950 703 886 738 q 1048 607 1014 668 q 1082 468 1082 546 q 983 260 1082 346 q 682 149 885 175 l 431 115 q 330 74 365 107 q 294 -10 294 40 q 318 -70 294 -46 q 383 -94 342 -94 q 458 -72 424 -94 q 544 1 492 -49 q 631 75 594 47 q 717 123 667 103 q 829 143 767 143 m 242 407 q 279 422 264 407 q 294 458 294 436 q 280 499 294 483 q 242 515 265 515 q 203 499 218 515 q 188 460 188 483 q 203 422 188 436 q 242 407 218 407 z "},"க":{"ha":1064,"x_min":42,"x_max":1036,"o":"m 749 444 q 901 414 836 444 q 1001 329 967 383 q 1036 208 1036 275 q 1001 89 1036 142 q 901 6 967 36 q 746 -25 835 -25 l 746 154 q 785 169 771 154 q 799 208 799 183 q 786 250 799 235 q 750 265 774 265 l 733 265 q 674 108 728 174 q 534 8 619 42 q 350 -25 449 -25 q 120 42 199 -25 q 42 217 42 108 q 78 338 42 285 q 185 418 114 390 l 185 713 l 968 713 l 989 533 l 733 533 l 733 444 l 749 444 m 404 444 l 518 444 l 518 533 l 404 533 l 404 444 m 361 167 q 460 190 413 167 q 517 265 508 213 l 358 265 q 303 252 322 265 q 283 217 283 239 q 303 181 283 194 q 361 167 324 167 z "},"ல":{"ha":1626,"x_min":56,"x_max":1571,"o":"m 1453 732 q 1540 530 1510 635 q 1571 349 1571 425 q 1528 156 1571 240 q 1402 23 1485 71 q 1206 -25 1319 -25 q 1019 19 1099 -25 q 899 140 940 63 q 857 315 857 217 l 857 342 q 822 447 857 400 q 724 519 786 493 q 582 546 661 546 q 435 518 500 546 q 334 441 371 490 q 297 329 297 392 q 303 275 297 297 q 382 399 318 351 q 536 446 446 446 q 670 417 611 446 q 763 339 729 389 q 796 226 796 289 q 760 97 796 154 q 656 7 724 39 q 496 -25 588 -25 q 269 21 369 -25 q 113 147 169 67 q 56 329 56 228 q 123 539 56 446 q 310 685 190 632 q 579 738 429 738 q 839 686 724 738 q 1019 544 954 635 q 1085 342 1085 454 l 1085 315 q 1115 207 1085 247 q 1206 167 1144 167 q 1297 217 1265 167 q 1329 349 1329 267 q 1297 526 1329 421 q 1215 713 1265 631 l 1453 732 m 526 283 q 479 265 497 283 q 461 219 461 247 q 479 173 461 192 q 526 154 497 154 q 571 173 553 154 q 589 219 589 192 q 572 265 589 247 q 526 283 554 283 z "},"ள":{"ha":1778,"x_min":56,"x_max":1764,"o":"m 1546 533 l 1546 0 l 1318 0 l 1318 533 l 1085 533 l 1085 0 l 857 0 l 857 304 q 817 429 857 374 q 710 515 778 485 q 563 546 643 546 q 369 485 440 546 q 297 329 297 425 q 303 275 297 297 q 382 399 318 351 q 536 446 446 446 q 670 417 611 446 q 763 339 729 389 q 796 226 796 289 q 760 97 796 154 q 656 7 724 39 q 496 -25 588 -25 q 269 21 369 -25 q 113 147 169 67 q 56 329 56 228 q 117 540 56 447 q 290 685 178 633 q 551 738 403 738 q 857 640 733 738 l 857 713 l 1743 713 l 1764 533 l 1546 533 m 526 283 q 479 265 497 283 q 461 219 461 247 q 479 173 461 192 q 526 154 497 154 q 571 173 553 154 q 589 219 589 192 q 572 265 589 247 q 526 283 554 283 z "},"ழ":{"ha":1333,"x_min":111,"x_max":1278,"o":"m 789 -36 q 813 -111 789 -90 q 882 -132 836 -132 l 1078 -132 l 1099 -311 l 788 -311 q 662 -392 738 -365 q 493 -419 586 -419 q 306 -378 388 -419 q 178 -266 224 -337 q 133 -107 133 -194 l 361 -107 q 396 -192 361 -157 q 490 -228 431 -228 q 579 -214 546 -228 q 619 -178 613 -200 q 576 -131 592 -164 q 561 -56 561 -99 l 561 0 l 111 0 l 111 713 l 339 719 l 339 179 l 561 179 l 561 406 q 601 578 561 503 q 717 695 640 653 q 901 738 793 738 q 1099 686 1014 738 q 1231 544 1185 635 q 1278 339 1278 454 q 1233 163 1278 240 q 1101 43 1188 86 q 893 0 1014 0 l 789 0 l 789 -36 m 893 179 q 1036 339 1036 179 q 1002 489 1036 432 q 904 546 968 546 q 815 506 840 546 q 789 394 789 467 l 789 179 l 893 179 z "},"ம":{"ha":1333,"x_min":111,"x_max":1278,"o":"m 901 738 q 1099 686 1014 738 q 1231 544 1185 635 q 1278 339 1278 454 q 1233 163 1278 240 q 1101 43 1188 86 q 893 0 1014 0 l 111 0 l 111 713 l 339 719 l 339 179 l 561 179 l 561 406 q 601 578 561 503 q 717 695 640 653 q 901 738 793 738 m 893 179 q 1036 339 1036 179 q 1002 489 1036 432 q 904 546 968 546 q 815 506 840 546 q 789 394 789 467 l 789 179 l 893 179 z "},"ந":{"ha":1175,"x_min":111,"x_max":1119,"o":"m 836 468 q 1045 374 971 468 q 1119 129 1119 281 q 1074 -79 1119 13 q 943 -223 1029 -171 q 739 -275 857 -275 l 476 -275 q 246 -337 286 -275 l 111 -218 q 223 -127 142 -158 q 457 -96 304 -96 l 739 -96 q 847 -37 814 -96 q 881 121 881 22 q 856 233 881 189 q 793 276 832 276 q 734 252 756 276 q 713 190 713 228 l 713 0 l 485 0 l 485 533 l 339 533 l 339 0 l 111 0 l 111 713 l 910 713 l 931 533 l 713 533 l 713 439 q 836 468 771 468 z "},"ங":{"ha":1503,"x_min":111,"x_max":1392,"o":"m 1392 0 l 472 0 l 472 179 l 706 179 q 795 197 765 179 q 825 247 825 215 q 808 290 825 274 q 765 306 792 306 q 719 288 738 306 q 700 247 700 269 l 700 232 l 472 232 l 472 533 l 339 533 l 339 0 l 111 0 l 111 713 l 897 713 l 918 533 l 700 533 l 700 479 q 806 496 747 496 q 938 464 879 496 q 1031 376 997 432 q 1064 251 1064 319 q 1051 179 1064 213 l 1164 179 l 1164 713 l 1392 713 l 1392 0 z "},"ண":{"ha":2582,"x_min":56,"x_max":2568,"o":"m 2350 533 l 2350 0 l 2122 0 l 2122 533 l 2013 533 q 1924 525 1965 533 q 2021 249 2021 404 q 1985 105 2021 167 q 1883 9 1949 43 q 1731 -25 1817 -25 q 1575 9 1643 -25 q 1470 105 1507 43 q 1433 249 1433 167 q 1464 399 1433 328 q 1551 529 1494 471 q 1425 546 1493 546 q 1283 525 1349 546 q 1377 395 1344 465 q 1410 249 1410 325 q 1374 105 1410 167 q 1272 9 1338 43 q 1119 -25 1206 -25 q 964 9 1032 -25 q 859 105 896 43 q 822 249 822 167 q 910 511 822 393 q 675 546 797 546 q 470 517 556 546 q 341 435 385 488 q 297 317 297 383 q 301 268 297 292 q 380 397 315 347 q 536 446 444 446 q 670 417 611 446 q 763 339 729 389 q 796 226 796 289 q 760 97 796 154 q 656 7 724 39 q 496 -25 588 -25 q 270 20 371 -25 q 113 143 169 65 q 56 317 56 221 q 131 534 56 439 q 345 683 206 629 q 674 738 485 738 q 1081 657 897 738 q 1422 738 1231 738 q 1751 663 1604 738 q 2013 713 1875 713 l 2547 713 l 2568 533 l 2350 533 m 1728 154 q 1774 178 1756 154 q 1792 238 1792 201 q 1729 417 1792 342 q 1663 238 1663 342 q 1681 178 1663 201 q 1728 154 1699 154 m 1117 154 q 1163 178 1144 154 q 1181 238 1181 201 q 1103 403 1181 329 q 1050 238 1050 331 q 1069 178 1050 201 q 1117 154 1088 154 m 526 283 q 479 265 497 283 q 461 219 461 247 q 479 173 461 192 q 526 154 497 154 q 571 173 553 154 q 589 219 589 192 q 572 265 589 247 q 526 283 554 283 z "},"ன":{"ha":1971,"x_min":56,"x_max":1957,"o":"m 1738 533 l 1738 0 l 1511 0 l 1511 533 l 1400 533 q 1290 519 1340 533 q 1410 250 1410 397 q 1374 106 1410 168 q 1272 9 1338 43 q 1119 -25 1206 -25 q 965 9 1032 -25 q 860 106 897 43 q 822 250 822 168 q 919 508 822 392 q 675 546 803 546 q 470 517 556 546 q 341 435 385 488 q 297 317 297 383 q 301 268 297 292 q 380 397 315 347 q 536 446 444 446 q 670 417 611 446 q 763 339 729 389 q 796 226 796 289 q 760 97 796 154 q 656 7 724 39 q 496 -25 588 -25 q 270 20 371 -25 q 113 143 169 65 q 56 317 56 221 q 131 534 56 439 q 345 683 206 629 q 674 738 485 738 q 901 714 792 738 q 1104 647 1011 690 q 1400 713 1242 713 l 1936 713 l 1957 533 l 1738 533 m 1117 154 q 1163 178 1144 154 q 1181 238 1181 201 q 1104 401 1181 329 q 1050 238 1050 329 q 1069 178 1050 201 q 1117 154 1088 154 m 526 283 q 479 265 497 283 q 461 219 461 247 q 479 173 461 192 q 526 154 497 154 q 571 173 553 154 q 589 219 589 192 q 572 265 589 247 q 526 283 554 283 z "},"ஞ":{"ha":1929,"x_min":83,"x_max":1874,"o":"m 1586 468 q 1798 379 1722 468 q 1874 142 1874 290 q 1766 -151 1874 -22 q 1463 -352 1658 -279 q 1013 -425 1267 -425 q 524 -340 735 -425 q 199 -101 314 -254 q 83 249 83 51 q 139 505 83 376 q 286 726 194 633 l 521 713 q 377 503 432 628 q 322 246 322 378 q 403 -5 322 103 q 638 -173 483 -112 q 1010 -233 793 -233 q 1347 -187 1206 -233 q 1561 -57 1488 -140 q 1635 133 1635 26 q 1609 238 1635 200 q 1542 276 1583 276 q 1478 252 1504 276 q 1453 190 1453 228 l 1453 0 l 1226 0 l 1226 533 l 942 533 q 749 478 815 533 q 683 329 683 422 q 689 275 683 297 q 768 399 704 351 q 922 446 832 446 q 1056 417 997 446 q 1149 339 1115 389 q 1182 226 1182 289 q 1146 97 1182 154 q 1042 7 1110 39 q 882 -25 974 -25 q 656 21 757 -25 q 499 147 556 67 q 442 329 442 228 q 501 527 442 440 q 674 663 561 614 q 940 713 786 713 l 1651 713 l 1672 533 l 1453 533 l 1453 435 q 1586 468 1515 468 m 914 283 q 866 265 885 283 q 847 219 847 247 q 866 173 847 192 q 914 154 885 154 q 958 173 940 154 q 976 219 976 192 q 959 265 976 247 q 914 283 942 283 z "},"ஒ":{"ha":1247,"x_min":49,"x_max":1199,"o":"m 1199 392 q 1163 262 1199 319 q 1065 172 1128 204 q 922 140 1001 140 q 838 153 878 140 q 878 104 847 119 q 974 89 910 89 l 1114 89 l 1114 -78 l 988 -78 q 925 -196 975 -144 q 797 -276 875 -247 q 625 -304 719 -304 q 436 -269 519 -304 q 306 -168 353 -233 q 258 -18 258 -103 l 258 25 l 474 25 l 474 -6 q 515 -84 474 -56 q 622 -112 556 -112 q 726 -90 683 -112 q 775 -33 768 -68 q 656 210 656 36 l 656 374 l 833 374 q 851 334 835 349 q 897 319 867 319 q 942 340 925 319 q 960 392 960 360 q 913 472 960 436 q 787 529 867 508 q 611 550 707 550 q 434 528 518 550 q 296 471 350 507 q 318 472 303 472 q 456 424 401 472 q 511 299 511 375 q 451 159 511 214 q 299 104 392 104 q 171 135 228 104 q 81 223 114 167 q 49 349 49 279 q 123 551 49 461 q 326 691 197 640 q 611 742 454 742 q 907 697 772 742 q 1120 572 1042 651 q 1199 392 1199 492 m 356 296 q 340 335 356 319 q 299 351 324 351 q 256 335 272 351 q 239 296 239 319 q 256 254 239 271 q 297 238 272 238 q 338 254 321 238 q 356 296 354 271 z "},"ௐ":{"ha":1219,"x_min":49,"x_max":1199,"o":"m 1199 392 q 1163 262 1199 319 q 1065 172 1128 204 q 922 140 1001 140 q 838 153 878 140 q 878 104 847 119 q 974 89 910 89 l 1114 89 l 1114 -78 l 988 -78 q 925 -196 975 -144 q 797 -276 875 -247 q 625 -304 719 -304 q 436 -269 519 -304 q 306 -168 353 -233 q 258 -18 258 -103 l 258 25 l 474 25 l 474 -6 q 515 -84 474 -56 q 622 -112 556 -112 q 726 -90 683 -112 q 775 -33 768 -68 q 656 210 656 36 l 656 374 l 833 374 q 851 334 835 349 q 897 319 867 319 q 942 340 925 319 q 960 392 960 360 q 913 472 960 436 q 787 529 867 508 q 611 550 707 550 q 434 528 518 550 q 296 471 350 507 q 318 472 303 472 q 456 424 401 472 q 511 299 511 375 q 451 159 511 214 q 299 104 392 104 q 171 135 228 104 q 81 223 114 167 q 49 349 49 279 q 123 551 49 461 q 326 691 197 640 q 611 742 454 742 q 907 697 772 742 q 1120 572 1042 651 q 1199 392 1199 492 m 356 296 q 340 335 356 319 q 299 351 324 351 q 256 335 272 351 q 239 296 239 319 q 256 254 239 271 q 297 238 272 238 q 338 254 321 238 q 356 296 354 271 m 635 76 q 628 63 635 68 q 615 57 622 57 q 594 76 594 57 q 615 100 594 100 q 628 93 622 100 q 635 76 635 86 m 585 -24 l 600 -24 l 600 4 q 611 35 600 24 q 642 47 622 47 q 677 33 664 47 q 690 -6 690 18 q 677 -42 690 -28 q 640 -56 664 -56 l 547 -56 l 547 46 l 585 46 l 585 -24 m 642 -24 q 653 -18 650 -24 q 657 -6 657 -12 q 654 10 657 4 q 646 17 651 17 q 635 4 635 17 l 635 -24 l 642 -24 z "},"ஓ":{"ha":1247,"x_min":49,"x_max":1199,"o":"m 1199 392 q 1163 262 1199 319 q 1065 172 1128 204 q 922 140 1001 140 q 838 153 878 140 q 878 104 847 119 q 974 89 910 89 l 1114 89 l 1114 -78 l 988 -78 q 922 -196 974 -144 q 788 -276 869 -247 q 607 -304 706 -304 q 424 -276 501 -304 q 303 -199 346 -249 q 261 -86 261 -149 q 324 55 261 1 q 507 108 388 108 l 524 108 l 524 -57 l 507 -57 q 486 -65 493 -57 q 479 -85 479 -72 q 511 -114 479 -103 q 607 -125 543 -125 q 726 -100 679 -125 q 776 -35 774 -75 q 656 210 656 35 l 656 374 l 833 374 q 851 334 835 349 q 897 319 867 319 q 942 340 925 319 q 960 392 960 360 q 913 472 960 436 q 787 529 867 508 q 611 550 707 550 q 434 528 518 550 q 296 471 350 507 q 318 472 303 472 q 456 424 401 472 q 511 299 511 375 q 451 159 511 214 q 299 104 392 104 q 171 135 228 104 q 81 223 114 167 q 49 349 49 279 q 123 551 49 461 q 326 691 197 640 q 611 742 454 742 q 907 697 772 742 q 1120 572 1042 651 q 1199 392 1199 492 m 356 296 q 340 335 356 319 q 299 351 324 351 q 256 335 272 351 q 239 296 239 319 q 256 254 239 271 q 297 238 272 238 q 338 254 321 238 q 356 296 354 271 z "},"ப":{"ha":1092,"x_min":111,"x_max":981,"o":"m 111 0 l 111 713 l 339 719 l 339 179 l 753 179 l 753 713 l 981 713 l 981 0 l 111 0 z "},"ர":{"ha":1032,"x_min":111,"x_max":1018,"o":"m 800 11 q 795 -87 800 -49 q 769 -155 790 -125 q 706 -197 749 -185 l 224 -347 l 163 -161 l 501 -53 q 551 -29 536 -42 q 569 5 565 -17 q 572 76 572 26 l 572 533 l 339 533 l 339 0 l 111 0 l 111 713 l 997 713 l 1018 533 l 800 533 l 800 11 z "},"ற":{"ha":1364,"x_min":97,"x_max":1308,"o":"m 931 738 q 1134 680 1049 738 q 1264 521 1219 622 q 1308 289 1308 419 q 1251 -4 1308 124 q 1080 -203 1193 -132 q 806 -275 967 -275 l 463 -275 q 306 -292 360 -275 q 232 -337 253 -308 l 97 -218 q 210 -127 128 -158 q 444 -96 292 -96 l 806 -96 q 1003 8 940 -96 q 1067 289 1067 111 q 933 546 1067 546 q 839 505 871 546 q 807 394 807 464 l 807 0 l 579 0 l 579 344 q 546 491 579 436 q 446 546 513 546 q 356 504 388 546 q 325 382 325 463 l 325 0 l 97 0 l 97 393 q 184 646 97 554 q 433 738 271 738 q 564 708 503 738 q 671 622 625 678 q 785 706 719 675 q 931 738 851 738 z "},"ஸ":{"ha":2083,"x_min":56,"x_max":2028,"o":"m 1911 732 q 1997 530 1967 635 q 2028 349 2028 425 q 1985 155 2028 239 q 1860 23 1942 71 q 1663 -25 1778 -25 q 1478 19 1557 -25 q 1356 140 1399 63 q 1314 315 1314 217 l 1314 381 q 1288 504 1314 464 q 1206 544 1263 544 q 1114 490 1143 544 q 1085 342 1085 436 l 1085 0 l 857 0 l 857 342 q 822 447 857 400 q 724 519 786 493 q 582 546 661 546 q 435 518 500 546 q 334 441 371 490 q 297 329 297 392 q 303 275 297 297 q 382 399 318 351 q 536 446 446 446 q 670 417 611 446 q 763 339 729 389 q 796 226 796 289 q 760 97 796 154 q 656 7 724 39 q 496 -25 588 -25 q 269 21 369 -25 q 113 147 169 67 q 56 329 56 228 q 123 539 56 446 q 310 685 190 632 q 579 738 429 738 q 790 706 693 738 q 956 614 888 674 q 1065 704 1000 672 q 1210 736 1129 736 q 1457 645 1372 736 q 1542 392 1542 554 l 1542 315 q 1572 207 1542 247 q 1663 167 1601 167 q 1755 217 1722 167 q 1788 349 1788 267 q 1756 526 1788 421 q 1674 713 1724 631 l 1911 732 m 526 283 q 479 265 497 283 q 461 219 461 247 q 479 173 461 192 q 526 154 497 154 q 571 173 553 154 q 589 219 589 192 q 572 265 589 247 q 526 283 554 283 z "},"ஶ":{"ha":1703,"x_min":97,"x_max":1647,"o":"m 1264 713 q 1471 669 1385 713 q 1602 549 1557 626 q 1647 374 1647 472 q 1601 168 1647 258 q 1470 26 1556 78 q 1271 -25 1385 -25 q 1086 17 1163 -25 q 970 135 1010 60 q 931 307 931 210 l 931 533 l 788 533 l 788 307 q 747 135 788 210 q 629 17 707 60 q 442 -25 551 -25 q 255 17 332 -25 q 138 135 178 60 q 97 307 97 210 l 97 713 l 325 719 l 325 319 q 353 208 325 249 q 442 167 382 167 q 531 208 503 167 q 560 319 560 249 l 560 713 l 1264 713 m 1274 167 q 1372 224 1338 167 q 1406 374 1406 281 q 1264 533 1406 533 l 1158 533 l 1158 319 q 1184 206 1158 246 q 1274 167 1210 167 z "},"ஷ":{"ha":2236,"x_min":56,"x_max":2125,"o":"m 1749 0 l 1749 -337 l 1521 -337 l 1521 0 l 842 0 l 842 179 q 872 258 861 219 q 882 342 882 297 q 846 447 882 400 q 744 519 810 493 q 594 546 679 546 q 441 518 508 546 q 335 441 374 490 q 297 329 297 392 q 303 275 297 297 q 382 399 318 351 q 536 446 446 446 q 670 417 611 446 q 763 339 729 389 q 796 226 796 289 q 760 97 796 154 q 656 7 724 39 q 496 -25 588 -25 q 269 21 369 -25 q 113 147 169 67 q 56 329 56 228 q 124 539 56 446 q 315 685 193 632 q 592 738 438 738 q 867 687 746 738 q 1054 546 988 636 q 1121 342 1121 456 q 1081 179 1121 256 l 1521 179 l 1521 226 l 1513 226 q 1328 260 1407 226 q 1206 353 1249 293 q 1163 489 1163 413 q 1201 617 1163 560 q 1308 706 1240 674 q 1461 738 1376 738 q 1608 707 1543 738 q 1711 622 1674 676 q 1749 500 1749 568 l 1749 453 q 1897 533 1833 481 l 2125 533 l 2125 0 l 1749 0 m 1521 418 l 1521 493 q 1505 531 1521 517 q 1463 546 1489 546 q 1419 529 1436 546 q 1403 486 1403 513 q 1431 433 1403 449 q 1511 418 1460 418 l 1521 418 m 1897 325 q 1749 257 1829 282 l 1749 179 l 1897 179 l 1897 325 m 526 283 q 479 265 497 283 q 461 219 461 247 q 479 173 461 192 q 526 154 497 154 q 571 173 553 154 q 589 219 589 192 q 572 265 589 247 q 526 283 554 283 z "},"த":{"ha":1140,"x_min":42,"x_max":1099,"o":"m 736 444 q 923 400 840 444 q 1052 278 1006 356 q 1099 101 1099 200 q 1046 -92 1099 -7 q 899 -226 993 -178 q 688 -275 806 -275 l 407 -275 q 176 -337 217 -275 l 42 -218 q 153 -127 72 -158 q 388 -96 235 -96 l 688 -96 q 810 -40 761 -96 q 858 101 858 15 q 824 219 858 172 q 738 265 790 265 l 733 265 q 674 108 728 174 q 534 8 619 42 q 350 -25 449 -25 q 120 42 199 -25 q 42 217 42 108 q 78 338 42 285 q 185 418 114 390 l 185 713 l 968 713 l 989 533 l 733 533 l 733 444 l 736 444 m 404 444 l 518 444 l 518 533 l 404 533 l 404 444 m 361 167 q 460 190 413 167 q 517 265 508 213 l 358 265 q 303 252 322 265 q 283 217 283 239 q 303 181 283 194 q 361 167 324 167 z "},"ட":{"ha":1026,"x_min":111,"x_max":1013,"o":"m 339 719 l 111 713 l 111 0 l 1013 0 l 992 179 l 339 179 l 339 719 z "},"உ":{"ha":1474,"x_min":28,"x_max":1460,"o":"m 1460 0 l 93 0 l 93 179 l 399 179 q 556 231 499 179 q 613 367 613 282 q 565 496 613 446 q 435 546 517 546 q 396 544 408 546 q 458 483 436 522 q 481 394 481 444 q 451 301 481 343 q 372 235 422 258 q 258 211 321 211 q 92 267 157 211 q 28 411 28 324 q 80 581 28 507 q 224 697 132 656 q 432 738 315 738 q 649 690 553 738 q 798 558 744 642 q 851 367 851 474 q 792 179 851 260 l 1460 179 l 1460 0 m 263 351 q 300 366 285 351 q 315 403 315 381 q 300 442 315 426 q 261 457 285 457 q 223 442 238 457 q 208 403 208 426 q 224 366 208 381 q 263 351 239 351 z "},"ஊ":{"ha":2224,"x_min":28,"x_max":2210,"o":"m 2210 0 l 93 0 l 93 179 l 399 179 q 556 231 499 179 q 613 367 613 282 q 565 496 613 446 q 435 546 517 546 q 396 544 408 546 q 458 483 436 521 q 481 394 481 444 q 451 301 481 343 q 372 235 422 258 q 258 211 321 211 q 92 267 157 211 q 28 411 28 324 q 80 581 28 507 q 224 697 132 656 q 432 738 315 738 q 649 690 553 738 q 798 558 744 642 q 851 367 851 474 q 792 179 851 260 l 2210 179 l 2210 0 m 1222 213 q 1059 244 1129 213 q 951 332 989 276 q 914 454 914 388 q 956 601 914 538 q 1078 701 997 665 q 1271 738 1158 738 q 1468 685 1388 738 l 1468 713 l 2151 713 l 2172 546 l 2024 546 l 2025 240 l 1810 240 l 1810 547 l 1682 547 l 1683 240 l 1468 240 l 1468 450 q 1443 507 1468 479 q 1376 553 1418 535 q 1285 571 1335 571 q 1160 538 1206 571 q 1115 454 1115 506 l 1115 443 q 1168 498 1133 478 q 1249 518 1203 518 q 1369 478 1322 518 q 1417 375 1417 438 q 1362 259 1417 306 q 1222 213 1307 213 m 263 351 q 300 366 285 351 q 315 403 315 381 q 300 442 315 426 q 261 457 285 457 q 223 442 238 457 q 208 403 208 426 q 224 366 208 381 q 263 351 239 351 m 1243 413 q 1210 400 1224 413 q 1197 369 1197 388 q 1210 340 1197 351 q 1243 328 1224 328 q 1274 340 1261 328 q 1286 369 1286 351 q 1274 400 1286 388 q 1243 413 1261 413 z "},"வ":{"ha":1619,"x_min":56,"x_max":1508,"o":"m 1508 0 l 842 0 l 842 179 q 872 258 861 219 q 882 342 882 297 q 846 447 882 400 q 744 519 810 493 q 594 546 679 546 q 441 518 508 546 q 335 441 374 490 q 297 329 297 392 q 303 275 297 297 q 382 399 318 351 q 536 446 446 446 q 670 417 611 446 q 763 339 729 389 q 796 226 796 289 q 760 97 796 154 q 656 7 724 39 q 496 -25 588 -25 q 269 21 369 -25 q 113 147 169 67 q 56 329 56 228 q 124 539 56 446 q 315 685 193 632 q 592 738 438 738 q 867 687 746 738 q 1054 546 988 636 q 1121 342 1121 456 q 1081 179 1121 254 l 1281 179 l 1281 713 l 1508 713 l 1508 0 m 526 283 q 479 265 497 283 q 461 219 461 247 q 479 173 461 192 q 526 154 497 154 q 571 173 553 154 q 589 219 589 192 q 572 265 589 247 q 526 283 554 283 z "},"ஃ":{"ha":1051,"x_min":56,"x_max":996,"o":"m 525 369 q 674 426 615 369 q 733 568 733 482 q 674 712 733 654 q 525 769 615 769 q 376 713 435 769 q 318 568 318 656 q 376 426 318 482 q 525 369 435 369 m 525 514 q 487 529 501 514 q 472 568 472 544 q 487 607 472 592 q 525 622 501 622 q 565 607 549 622 q 581 568 581 592 q 565 529 581 544 q 525 514 549 514 m 263 -19 q 412 38 353 -19 q 471 181 471 94 q 412 324 471 267 q 263 382 353 382 q 114 325 172 382 q 56 181 56 268 q 114 38 56 94 q 263 -19 172 -19 m 788 -19 q 937 38 878 -19 q 996 181 996 94 q 937 324 996 267 q 788 382 878 382 q 639 325 697 382 q 581 181 581 268 q 639 38 581 94 q 788 -19 697 -19 m 263 126 q 224 142 239 126 q 210 181 210 157 q 224 219 210 204 q 263 235 239 235 q 302 219 286 235 q 318 181 318 204 q 302 142 318 157 q 263 126 286 126 m 788 126 q 749 142 764 126 q 735 181 735 157 q 749 219 735 204 q 788 235 764 235 q 827 219 811 235 q 843 181 843 204 q 827 142 843 157 q 788 126 811 126 z "},"ய":{"ha":1469,"x_min":97,"x_max":1358,"o":"m 1358 0 l 604 0 l 604 35 q 429 -25 525 -25 q 186 67 275 -25 q 97 319 97 160 l 97 713 l 325 719 l 325 332 q 356 208 325 250 q 446 167 388 167 q 563 222 522 167 q 604 369 604 278 l 604 713 l 832 713 l 832 179 l 1131 179 l 1131 713 l 1358 713 l 1358 0 z "},"௮":{"ha":1564,"x_min":28,"x_max":1453,"o":"m 1453 -175 l 1225 -175 l 1225 57 l 964 57 q 747 -131 889 -62 q 414 -200 604 -200 q 207 -169 294 -200 q 74 -83 119 -137 q 28 40 28 -29 q 89 182 28 129 q 260 235 150 235 l 281 235 q 226 401 226 308 q 276 574 226 497 q 413 694 325 651 q 614 738 501 738 q 826 682 729 738 q 981 529 924 626 q 1038 311 1038 432 q 1032 235 1038 268 l 1225 235 l 1225 713 l 1453 713 l 1453 -175 m 793 235 q 799 311 799 267 q 746 483 799 421 q 614 546 693 546 q 506 503 546 546 q 465 394 465 461 q 508 278 465 321 q 617 235 550 235 l 793 235 m 414 -8 q 689 57 594 -8 l 288 57 q 256 51 265 57 q 246 32 246 46 q 288 3 246 15 q 414 -8 331 -8 z "},"௫":{"ha":2035,"x_min":83,"x_max":1924,"o":"m 1697 383 q 1624 672 1697 542 q 1398 880 1551 801 q 1015 958 1244 958 q 626 878 782 958 q 397 658 471 797 q 322 343 322 519 q 377 59 322 189 q 558 -152 432 -71 q 890 -233 685 -233 q 1260 -135 1142 -233 q 1379 133 1379 -36 q 1353 238 1379 200 q 1286 276 1328 276 q 1223 252 1249 276 q 1197 190 1197 228 l 1197 0 l 971 0 l 971 533 l 786 533 l 786 0 l 560 0 l 560 713 l 1396 713 l 1417 533 l 1197 533 l 1197 435 q 1331 468 1260 468 q 1542 379 1467 468 q 1618 142 1618 290 q 1533 -153 1618 -25 q 1285 -353 1449 -281 q 893 -425 1122 -425 q 450 -318 633 -425 q 175 -35 267 -211 q 83 346 83 142 q 188 758 83 576 q 502 1045 293 940 q 1013 1150 711 1150 q 1513 1047 1307 1150 q 1821 771 1718 944 q 1924 386 1924 597 l 1924 0 l 1697 0 l 1697 383 z "},"௪":{"ha":1324,"x_min":42,"x_max":1282,"o":"m 733 265 q 674 108 728 174 q 534 8 619 42 q 350 -25 449 -25 q 120 42 199 -25 q 42 217 42 108 q 78 338 42 285 q 185 418 114 390 l 185 713 l 968 713 l 989 533 l 733 533 l 733 444 l 1072 444 l 1072 713 l 1282 713 l 1282 265 l 733 265 m 404 444 l 518 444 l 518 533 l 404 533 l 404 444 m 361 167 q 460 190 413 167 q 517 265 508 213 l 358 265 q 303 252 322 265 q 283 217 283 239 q 303 181 283 194 q 361 167 324 167 z "},"௯":{"ha":1550,"x_min":42,"x_max":1522,"o":"m 1188 469 q 1365 433 1289 469 q 1481 333 1440 397 q 1522 189 1522 269 q 1510 96 1522 140 q 1469 -8 1497 51 l 1256 0 q 1291 98 1278 43 q 1304 189 1304 153 q 1274 282 1304 247 q 1186 317 1244 317 l 1176 317 q 1222 169 1222 251 q 1161 30 1222 85 q 1007 -25 1100 -25 q 853 30 914 -25 q 792 169 792 85 q 811 265 792 219 l 733 265 q 674 108 728 174 q 534 8 619 42 q 350 -25 449 -25 q 120 42 199 -25 q 42 217 42 108 q 78 338 42 285 q 185 418 114 390 l 185 713 l 968 713 l 989 533 l 733 533 l 733 444 l 935 444 q 1004 436 968 444 q 1188 469 1093 469 m 404 444 l 518 444 l 518 533 l 404 533 l 404 444 m 361 167 q 460 190 413 167 q 517 265 508 213 l 358 265 q 303 252 322 265 q 283 217 283 239 q 303 181 283 194 q 361 167 324 167 m 1007 129 q 1032 140 1022 129 q 1042 169 1042 151 q 1001 247 1042 218 q 972 169 972 214 q 982 140 972 151 q 1007 129 992 129 z "},"௧":{"ha":1064,"x_min":42,"x_max":1036,"o":"m 749 444 q 901 414 836 444 q 1001 329 967 383 q 1036 208 1036 275 q 1001 89 1036 142 q 901 6 967 36 q 746 -25 835 -25 l 746 154 q 785 169 771 154 q 799 208 799 183 q 786 250 799 235 q 750 265 774 265 l 733 265 q 674 108 728 174 q 534 8 619 42 q 350 -25 449 -25 q 120 42 199 -25 q 42 217 42 108 q 78 338 42 285 q 185 418 114 390 l 185 713 l 968 713 l 989 533 l 733 533 l 733 444 l 749 444 m 404 444 l 518 444 l 518 533 l 404 533 l 404 444 m 361 167 q 460 190 413 167 q 517 265 508 213 l 358 265 q 303 252 322 265 q 283 217 283 239 q 303 181 283 194 q 361 167 324 167 z "},"௭":{"ha":1203,"x_min":56,"x_max":1092,"o":"m 1092 0 l 864 0 l 864 533 l 556 533 q 363 478 429 533 q 297 329 297 422 q 303 275 297 297 q 382 399 318 351 q 536 446 446 446 q 670 417 611 446 q 763 339 729 389 q 796 226 796 289 q 760 97 796 154 q 656 7 724 39 q 496 -25 588 -25 q 269 21 369 -25 q 113 147 169 67 q 56 329 56 228 q 115 527 56 440 q 286 663 174 614 q 553 713 399 713 l 1092 713 l 1092 0 m 526 283 q 479 265 497 283 q 461 219 461 247 q 479 173 461 192 q 526 154 497 154 q 571 173 553 154 q 589 219 589 192 q 572 265 589 247 q 526 283 554 283 z "},"௬":{"ha":1606,"x_min":42,"x_max":1592,"o":"m 1592 0 l 1150 0 l 1150 179 q 1208 195 1189 179 q 1226 238 1226 211 q 1205 283 1226 265 q 1150 301 1183 301 q 1068 269 1097 301 q 1039 183 1039 236 l 1039 0 l 819 0 l 819 208 q 806 249 819 233 q 769 265 793 265 l 733 265 q 674 108 728 174 q 534 8 619 42 q 350 -25 449 -25 q 120 42 199 -25 q 42 217 42 108 q 78 338 42 285 q 185 418 114 390 l 185 713 l 968 713 l 989 533 l 733 533 l 733 444 l 749 444 q 933 397 857 444 q 1038 468 976 443 q 1174 493 1099 493 q 1327 462 1260 493 q 1431 376 1394 431 q 1468 250 1468 321 q 1456 179 1468 213 l 1592 179 l 1592 0 m 404 444 l 518 444 l 518 533 l 404 533 l 404 444 m 361 167 q 460 190 413 167 q 517 265 508 213 l 358 265 q 303 252 322 265 q 283 217 283 239 q 303 181 283 194 q 361 167 324 167 z "},"௩":{"ha":1179,"x_min":111,"x_max":1165,"o":"m 1165 0 l 472 0 l 472 179 l 706 179 q 795 197 765 179 q 825 247 825 215 q 808 290 825 274 q 765 306 792 306 q 719 288 738 306 q 700 247 700 269 l 700 232 l 472 232 l 472 533 l 339 533 l 339 0 l 111 0 l 111 713 l 897 713 l 918 533 l 700 533 l 700 479 q 806 496 749 496 q 938 464 879 496 q 1031 376 997 432 q 1064 251 1064 319 q 1051 179 1064 211 l 1165 179 l 1165 0 z "},"௨":{"ha":1086,"x_min":28,"x_max":1072,"o":"m 1072 0 l 93 0 l 93 179 l 399 179 q 556 231 499 179 q 613 367 613 282 q 565 496 613 446 q 435 546 517 546 q 396 544 408 546 q 458 483 436 522 q 481 394 481 444 q 451 301 481 343 q 372 235 422 258 q 258 211 321 211 q 92 267 157 211 q 28 411 28 324 q 80 581 28 507 q 224 697 132 656 q 432 738 315 738 q 649 690 553 738 q 798 558 744 642 q 851 367 851 474 q 792 179 851 260 l 1072 179 l 1072 0 m 263 351 q 300 366 285 351 q 315 403 315 381 q 300 442 315 426 q 261 457 285 457 q 223 442 238 457 q 208 403 208 426 q 224 366 208 381 q 263 351 239 351 z "},"௦":{"ha":1004,"x_min":56,"x_max":949,"o":"m 501 738 q 731 688 629 738 q 890 552 832 639 q 949 357 949 465 q 891 160 949 247 q 731 24 833 74 q 501 -25 629 -25 q 274 24 375 -25 q 114 160 172 74 q 56 357 56 247 q 113 552 56 465 q 272 688 171 639 q 501 738 374 738 m 501 167 q 651 221 593 167 q 710 360 710 275 q 651 493 710 440 q 501 546 592 546 q 353 492 411 546 q 294 354 294 438 q 353 219 294 272 q 501 167 411 167 z "},"௱":{"ha":1526,"x_min":97,"x_max":1513,"o":"m 1293 0 l 1067 0 l 1067 533 l 832 533 l 832 0 l 604 0 l 604 344 q 563 490 604 435 q 446 546 522 546 q 356 504 388 546 q 325 382 325 463 l 325 0 l 97 0 l 97 393 q 186 645 97 553 q 429 738 275 738 q 604 678 526 738 l 604 713 l 1492 713 l 1513 533 l 1293 533 l 1293 0 z "},"௰":{"ha":1311,"x_min":56,"x_max":1256,"o":"m 1138 732 q 1225 530 1194 635 q 1256 349 1256 425 q 1213 155 1256 239 q 1088 23 1169 71 q 890 -25 1006 -25 q 656 51 747 -25 q 421 -25 564 -25 q 224 23 307 -25 q 99 156 142 71 q 56 349 56 240 q 86 530 56 425 q 174 732 117 635 l 411 713 q 329 526 361 631 q 297 349 297 421 q 329 217 297 267 q 421 167 361 167 q 512 207 482 167 q 542 315 542 247 l 542 528 l 769 528 l 769 315 q 799 207 769 247 q 890 167 829 167 q 982 217 950 167 q 1014 349 1014 267 q 982 526 1014 421 q 900 713 950 631 l 1138 732 z "},"௲":{"ha":1594,"x_min":42,"x_max":1567,"o":"m 1281 215 q 1425 181 1360 215 q 1528 85 1490 146 q 1567 -53 1567 24 q 1526 -205 1567 -137 q 1408 -310 1485 -272 q 1232 -347 1332 -347 l 1024 -347 q 844 -396 876 -347 l 725 -303 q 997 -194 785 -194 l 1232 -194 q 1326 -155 1292 -194 q 1361 -53 1361 -115 q 1335 26 1361 -6 q 1265 63 1310 58 q 1215 -57 1257 -7 q 1107 -133 1172 -107 q 968 -160 1042 -160 q 830 -133 888 -160 q 742 -63 772 -107 q 713 35 713 -19 q 778 165 713 114 q 961 215 843 215 l 1064 215 l 1064 265 l 733 265 q 674 108 728 174 q 534 8 619 42 q 350 -25 449 -25 q 120 42 199 -25 q 42 217 42 108 q 78 338 42 285 q 185 418 114 390 l 185 713 l 968 713 l 989 533 l 733 533 l 733 444 l 1506 444 l 1526 265 l 1267 265 l 1267 215 l 1281 215 m 404 444 l 518 444 l 518 533 l 404 533 l 404 444 m 361 167 q 460 190 413 167 q 517 265 508 213 l 358 265 q 285 251 311 265 q 260 217 260 238 q 286 181 260 196 q 361 167 313 167 m 975 -1 q 1061 63 1049 -1 l 974 63 q 908 33 908 63 q 927 8 908 18 q 975 -1 946 -1 z "},"௹":{"ha":1729,"x_min":83,"x_max":1674,"o":"m 1386 468 q 1598 379 1522 468 q 1674 142 1674 290 q 1585 -152 1674 -24 q 1328 -353 1496 -281 q 931 -425 1160 -425 q 474 -322 665 -425 q 183 -35 283 -219 q 83 389 83 150 q 201 815 83 625 q 525 1112 318 1004 q 990 1219 732 1219 q 1284 1181 1160 1219 q 1474 1076 1408 1142 q 1540 932 1540 1011 q 1490 793 1540 844 q 1340 742 1439 742 q 1194 797 1251 742 q 1138 936 1138 851 q 1157 1019 1138 981 q 1007 1028 1090 1028 q 635 945 790 1028 q 401 717 481 863 q 322 386 322 572 q 391 62 322 201 q 596 -156 460 -78 q 928 -233 732 -233 q 1308 -134 1181 -233 q 1435 133 1435 -35 q 1409 238 1435 200 q 1342 276 1383 276 q 1278 252 1304 276 q 1253 190 1253 228 l 1253 0 l 1026 0 l 1026 533 l 842 533 l 842 0 l 615 0 l 615 713 l 1451 713 l 1472 533 l 1253 533 l 1253 435 q 1386 468 1311 468 m 1340 872 q 1383 889 1367 872 q 1400 932 1400 906 q 1383 974 1400 957 q 1340 990 1367 990 q 1297 974 1314 990 q 1281 932 1281 957 q 1297 889 1281 906 q 1340 872 1314 872 z "},"௺":{"ha":1564,"x_min":111,"x_max":1564,"o":"m 1564 775 l 1142 775 l 1142 954 q 1174 967 1161 954 q 1186 1003 1186 981 q 1154 1065 1186 1039 q 1057 1092 1122 1092 l 1051 1092 q 1093 944 1093 1024 q 1032 805 1093 860 q 878 750 971 750 q 724 805 785 750 q 663 944 663 860 q 690 1057 663 1006 q 603 994 633 1040 q 572 883 572 947 q 613 760 572 807 q 729 713 654 713 l 910 713 l 931 533 l 713 533 l 713 439 q 836 468 771 468 q 1045 374 971 468 q 1119 129 1119 281 q 1074 -79 1119 13 q 943 -223 1029 -171 q 739 -275 857 -275 l 476 -275 q 246 -337 286 -275 l 111 -218 q 223 -127 142 -158 q 457 -96 304 -96 l 739 -96 q 847 -37 814 -96 q 881 121 881 22 q 856 233 881 189 q 793 276 832 276 q 734 252 756 276 q 713 190 713 228 l 713 0 l 485 0 l 485 533 l 339 533 l 339 0 l 111 0 l 111 713 l 389 713 q 344 883 344 786 q 395 1071 344 989 q 540 1199 446 1153 q 757 1244 633 1244 q 896 1218 828 1244 q 1058 1244 975 1244 q 1238 1213 1161 1244 q 1354 1125 1314 1181 q 1394 1003 1394 1069 q 1389 954 1394 985 l 1564 954 l 1564 775 m 878 904 q 903 915 893 904 q 913 944 913 926 q 874 1024 913 989 q 843 944 843 989 q 853 915 843 926 q 878 904 863 904 z "},"௴":{"ha":1890,"x_min":111,"x_max":1890,"o":"m 1890 775 l 1468 775 l 1468 954 q 1500 967 1488 954 q 1513 1003 1513 981 q 1481 1065 1513 1039 q 1383 1092 1449 1092 l 1378 1092 q 1419 944 1419 1024 q 1358 805 1419 860 q 1204 750 1297 750 q 1050 805 1111 750 q 989 944 989 860 q 1017 1058 989 1006 q 929 994 960 1040 q 899 883 899 947 q 917 792 899 832 q 974 732 936 753 q 1196 601 1114 708 q 1278 339 1278 494 q 1233 163 1278 240 q 1101 43 1188 86 q 893 0 1014 0 l 111 0 l 111 713 l 339 719 l 339 179 l 561 179 l 561 406 q 603 582 561 506 q 724 699 644 658 q 671 883 671 779 q 722 1071 671 989 q 865 1199 772 1153 q 1082 1244 958 1244 q 1222 1218 1154 1244 q 1385 1244 1301 1244 q 1563 1213 1488 1244 q 1679 1126 1639 1181 q 1719 1003 1719 1071 q 1715 954 1719 969 l 1890 954 l 1890 775 m 1204 904 q 1229 915 1219 904 q 1239 944 1239 926 q 1200 1024 1239 989 q 1169 944 1169 989 q 1179 915 1169 926 q 1204 904 1189 904 m 893 179 q 1036 339 1036 179 q 1002 489 1036 432 q 904 546 968 546 q 815 506 840 546 q 789 394 789 467 l 789 179 l 893 179 z "},"௸":{"ha":2903,"x_min":56,"x_max":2792,"o":"m 2415 0 l 2415 -337 l 2188 -337 l 2188 0 l 1510 0 l 1510 174 q 1546 364 1546 289 q 1388 546 1546 546 q 1278 531 1331 546 q 1410 249 1410 406 q 1374 105 1410 167 q 1272 9 1338 43 q 1119 -25 1206 -25 q 964 9 1032 -25 q 859 105 896 43 q 822 249 822 167 q 906 513 822 394 q 675 546 792 546 q 470 517 556 546 q 341 435 385 488 q 297 317 297 383 q 301 268 297 290 q 380 397 315 347 q 536 446 444 446 q 670 417 611 446 q 763 339 729 389 q 796 226 796 289 q 760 97 796 154 q 656 7 724 39 q 496 -25 588 -25 q 270 20 371 -25 q 113 143 169 65 q 56 317 56 221 q 131 534 56 439 q 345 683 206 629 q 674 738 485 738 q 1072 660 893 738 q 1385 738 1211 738 q 1685 635 1582 738 q 1788 364 1788 533 q 1754 174 1788 283 l 2188 174 l 2188 226 l 2181 226 q 1995 260 2075 226 q 1872 353 1915 293 q 1829 489 1829 413 q 1868 617 1829 560 q 1975 706 1907 674 q 2128 738 2043 738 q 2276 707 2210 738 q 2378 622 2342 676 q 2415 500 2415 568 l 2415 451 q 2564 533 2501 482 l 2792 533 l 2792 0 l 2415 0 m 2188 418 l 2188 493 q 2172 531 2188 517 q 2131 546 2156 546 q 2088 529 2104 546 q 2071 486 2071 513 q 2099 433 2071 449 q 2178 418 2126 418 l 2188 418 m 1117 154 q 1163 178 1144 154 q 1181 238 1181 201 q 1100 406 1181 332 q 1050 238 1050 332 q 1069 178 1050 201 q 1117 154 1088 154 m 2564 324 q 2415 257 2494 279 l 2415 174 l 2564 174 l 2564 324 m 526 283 q 479 265 497 283 q 461 219 461 247 q 479 173 461 192 q 526 154 497 154 q 571 173 553 154 q 589 219 589 192 q 572 265 589 247 q 526 283 554 283 z "},"௳":{"ha":1269,"x_min":56,"x_max":1256,"o":"m 1256 0 l 842 0 l 842 179 q 872 258 861 219 q 882 342 882 297 q 846 447 882 400 q 744 519 810 493 q 594 546 679 546 q 441 518 508 546 q 335 441 374 490 q 297 329 297 392 q 303 275 297 297 q 382 399 318 351 q 536 446 446 446 q 670 417 611 446 q 763 339 729 389 q 796 226 796 289 q 760 97 796 154 q 656 7 724 39 q 496 -25 588 -25 q 269 21 369 -25 q 113 147 169 67 q 56 329 56 228 q 124 539 56 446 q 315 685 193 632 q 592 738 438 738 q 867 687 746 738 q 1054 546 988 636 q 1121 342 1121 456 q 1081 179 1121 256 l 1256 179 l 1256 0 m 526 283 q 479 265 497 283 q 461 219 461 247 q 479 173 461 192 q 526 154 497 154 q 571 173 553 154 q 589 219 589 192 q 572 265 589 247 q 526 283 554 283 z "},"௶":{"ha":1557,"x_min":111,"x_max":1446,"o":"m 951 -236 q 772 -435 901 -364 q 453 -506 642 -506 q 272 -476 350 -506 q 153 -392 194 -446 q 111 -269 111 -337 q 178 -115 111 -172 q 372 -57 244 -57 l 753 -57 l 753 0 l 111 0 l 111 713 l 339 719 l 339 179 l 753 179 l 753 713 l 981 713 l 981 -57 l 1218 -57 l 1218 713 l 1446 713 l 1446 -236 l 951 -236 m 450 -314 q 704 -236 633 -314 l 401 -236 q 366 -244 379 -236 q 353 -269 353 -253 q 379 -303 353 -292 q 450 -314 406 -314 z "},"௷":{"ha":2097,"x_min":56,"x_max":2083,"o":"m 2083 0 l 1661 0 l 1661 179 q 1693 192 1681 179 q 1706 228 1706 206 q 1674 290 1706 264 q 1576 317 1642 317 l 1567 317 q 1613 169 1613 251 q 1551 30 1613 85 q 1397 -25 1490 -25 q 1243 30 1304 -25 q 1182 169 1182 85 q 1201 265 1182 219 l 1092 265 l 1092 0 l 864 0 l 864 533 l 556 533 q 363 478 429 533 q 297 329 297 422 q 303 275 297 297 q 382 399 318 351 q 536 446 446 446 q 670 417 611 446 q 763 339 729 389 q 796 226 796 289 q 760 97 796 154 q 656 7 724 39 q 496 -25 588 -25 q 269 21 369 -25 q 113 147 169 67 q 56 329 56 228 q 115 527 56 440 q 286 663 174 614 q 553 713 399 713 l 1289 713 l 1311 533 l 1092 533 l 1092 444 l 1325 444 q 1394 436 1358 444 q 1578 469 1483 469 q 1756 438 1681 469 q 1872 351 1832 406 q 1913 228 1913 296 q 1908 179 1913 203 l 2083 179 l 2083 0 m 526 283 q 479 265 497 283 q 461 219 461 247 q 479 173 461 192 q 526 154 497 154 q 571 173 553 154 q 589 219 589 192 q 572 265 589 247 q 526 283 554 283 m 1397 129 q 1422 140 1413 129 q 1432 169 1432 151 q 1392 246 1432 219 q 1363 169 1363 215 q 1372 140 1363 151 q 1397 129 1382 129 z "},"௵":{"ha":2719,"x_min":83,"x_max":2664,"o":"m 2376 468 q 2588 379 2513 468 q 2664 142 2664 290 q 2556 -151 2664 -22 q 2253 -352 2449 -279 q 1803 -425 2057 -425 l 1013 -425 q 524 -340 735 -425 q 199 -101 314 -254 q 83 249 83 51 q 139 505 83 376 q 286 726 194 633 l 521 713 q 377 503 432 628 q 322 246 322 378 q 403 -8 322 103 q 638 -183 483 -119 q 1010 -246 793 -246 l 1800 -246 q 2135 -197 1994 -246 q 2351 -61 2276 -147 q 2425 133 2425 25 q 2399 238 2425 200 q 2332 276 2374 276 q 2269 252 2294 276 q 2243 190 2243 228 l 2243 0 l 2015 0 l 2015 533 l 1857 533 l 1857 0 l 1228 0 l 1228 179 q 1268 342 1268 260 q 1232 447 1268 400 q 1131 519 1196 493 q 981 546 1065 546 q 827 518 894 546 q 722 441 760 490 q 683 329 683 392 q 689 275 683 297 q 768 399 704 351 q 922 446 832 446 q 1056 417 997 446 q 1149 339 1115 389 q 1182 226 1182 289 q 1146 97 1182 154 q 1042 7 1110 39 q 882 -25 974 -25 q 656 21 757 -25 q 499 147 556 67 q 442 329 442 228 q 510 539 442 446 q 701 685 579 632 q 978 738 824 738 q 1253 687 1132 738 q 1440 546 1374 636 q 1507 342 1507 456 q 1468 179 1507 257 l 1629 179 l 1629 713 l 2440 713 l 2463 533 l 2243 533 l 2243 435 q 2376 468 2306 468 m 914 283 q 866 265 885 283 q 847 219 847 247 q 866 173 847 192 q 914 154 885 154 q 958 173 940 154 q 976 219 976 192 q 959 265 976 247 q 914 283 942 283 z "},"ௗ":{"ha":1778,"x_min":56,"x_max":1764,"o":"m 1546 533 l 1546 0 l 1318 0 l 1318 533 l 1085 533 l 1085 0 l 857 0 l 857 304 q 817 429 857 374 q 710 515 778 485 q 563 546 643 546 q 369 485 440 546 q 297 329 297 425 q 303 275 297 297 q 382 399 318 351 q 536 446 446 446 q 670 417 611 446 q 763 339 729 389 q 796 226 796 289 q 760 97 796 154 q 656 7 724 39 q 496 -25 588 -25 q 269 21 369 -25 q 113 147 169 67 q 56 329 56 228 q 117 540 56 447 q 290 685 178 633 q 551 738 403 738 q 857 640 733 738 l 857 713 l 1743 713 l 1764 533 l 1546 533 m 526 283 q 479 265 497 283 q 461 219 461 247 q 479 173 461 192 q 526 154 497 154 q 571 173 553 154 q 589 219 589 192 q 572 265 589 247 q 526 283 554 283 z "},"ா":{"ha":1004,"x_min":111,"x_max":990,"o":"m 544 0 l 544 533 l 339 533 l 339 0 l 111 0 l 111 713 l 969 713 l 990 533 l 772 533 l 772 0 l 544 0 z "},"ை":{"ha":1843,"x_min":56,"x_max":1788,"o":"m 1385 738 q 1685 635 1582 738 q 1788 364 1788 533 q 1757 183 1788 288 q 1669 -19 1726 78 l 1432 0 q 1514 187 1482 82 q 1546 364 1546 292 q 1388 546 1546 546 q 1278 531 1331 546 q 1410 249 1410 406 q 1374 105 1410 167 q 1272 9 1338 43 q 1119 -25 1206 -25 q 964 9 1032 -25 q 859 105 896 43 q 822 249 822 167 q 906 513 822 394 q 675 546 792 546 q 470 517 556 546 q 341 435 385 488 q 297 317 297 383 q 301 268 297 290 q 380 397 315 347 q 536 446 444 446 q 670 417 611 446 q 763 339 729 389 q 796 226 796 289 q 760 97 796 154 q 656 7 724 39 q 496 -25 588 -25 q 270 20 371 -25 q 113 143 169 65 q 56 317 56 221 q 131 534 56 439 q 345 683 206 629 q 674 738 485 738 q 1072 660 893 738 q 1385 738 1211 738 m 1117 154 q 1163 178 1144 154 q 1181 238 1181 201 q 1100 406 1181 332 q 1050 238 1050 332 q 1069 178 1050 201 q 1117 154 1088 154 m 526 283 q 479 265 497 283 q 461 219 461 247 q 479 173 461 192 q 526 154 497 154 q 571 173 553 154 q 589 219 589 192 q 572 265 589 247 q 526 283 554 283 z "},"ௌ":{"ha":3761,"x_min":61,"x_max":3747,"o":"m 593 938 q 869 880 751 938 q 1051 715 988 822 q 1115 467 1115 608 l 1115 0 l 888 0 l 888 467 q 811 672 888 599 q 596 746 735 746 q 442 707 508 746 q 339 599 375 668 q 303 442 303 531 q 317 333 303 381 q 406 423 346 390 q 542 456 465 456 q 676 426 617 456 q 768 344 735 396 q 801 226 801 292 q 765 97 801 154 q 661 7 729 39 q 501 -25 593 -25 q 275 35 375 -25 q 118 202 175 96 q 61 442 61 308 q 128 697 61 585 q 317 874 196 810 q 593 938 438 938 m 532 283 q 485 265 503 283 q 467 219 467 247 q 485 173 467 192 q 532 154 503 154 q 576 173 558 154 q 594 219 594 192 q 577 265 594 247 q 532 283 560 283 m 3529 533 l 3529 0 l 3301 0 l 3301 533 l 3068 533 l 3068 0 l 2840 0 l 2840 304 q 2801 429 2840 374 q 2694 515 2761 485 q 2546 546 2626 546 q 2352 485 2424 546 q 2281 329 2281 425 q 2286 275 2281 297 q 2365 399 2301 351 q 2519 446 2429 446 q 2653 417 2594 446 q 2746 339 2713 389 q 2779 226 2779 289 q 2743 97 2779 154 q 2639 7 2707 39 q 2479 -25 2571 -25 q 2253 21 2353 -25 q 2096 147 2153 67 q 2039 329 2039 228 q 2100 540 2039 447 q 2274 685 2161 633 q 2535 738 2386 738 q 2840 640 2717 738 l 2840 713 l 3726 713 l 3747 533 l 3529 533 m 2510 283 q 2463 265 2481 283 q 2444 219 2444 247 q 2463 173 2444 192 q 2510 154 2481 154 q 2554 173 2536 154 q 2572 219 2572 192 q 2555 265 2572 247 q 2510 283 2538 283 m 1583 638 q 1613 649 1601 638 q 1624 678 1624 660 q 1613 708 1624 696 q 1583 719 1601 719 q 1554 708 1565 719 q 1543 678 1543 696 q 1554 649 1543 660 q 1583 638 1565 638 m 1460 697 q 1431 686 1442 697 q 1419 657 1419 675 q 1431 628 1419 639 q 1460 617 1442 617 q 1489 628 1478 617 q 1500 657 1500 639 q 1489 686 1500 675 q 1460 697 1478 697 m 1708 617 q 1738 628 1726 617 q 1749 657 1749 639 q 1738 686 1749 675 q 1708 697 1726 697 q 1679 686 1690 697 q 1668 657 1668 675 q 1679 628 1668 639 q 1708 617 1690 617 m 1354 628 q 1324 616 1336 628 q 1313 586 1313 604 q 1324 557 1313 568 q 1354 546 1336 546 q 1383 557 1372 546 q 1394 586 1394 568 q 1383 616 1394 604 q 1354 628 1372 628 m 1814 546 q 1844 557 1832 546 q 1856 586 1856 568 q 1844 616 1856 604 q 1814 628 1832 628 q 1785 616 1796 628 q 1774 586 1774 604 q 1785 557 1774 568 q 1814 546 1796 546 m 1288 518 q 1258 506 1269 518 q 1246 476 1246 494 q 1258 447 1246 458 q 1288 436 1269 436 q 1317 447 1306 436 q 1328 476 1328 458 q 1317 506 1328 494 q 1288 518 1306 518 m 1881 436 q 1910 447 1899 436 q 1921 476 1921 458 q 1910 506 1921 494 q 1881 518 1899 518 q 1851 506 1863 518 q 1840 476 1840 494 q 1851 447 1840 458 q 1881 436 1863 436 m 1268 399 q 1238 387 1250 399 q 1226 357 1226 375 q 1238 328 1226 339 q 1268 318 1250 318 q 1297 328 1286 318 q 1308 357 1308 339 q 1297 387 1308 375 q 1268 399 1286 399 m 1900 318 q 1930 328 1918 318 q 1942 357 1942 339 q 1930 387 1942 375 q 1900 399 1918 399 q 1871 387 1882 399 q 1860 357 1860 375 q 1871 328 1860 339 q 1900 318 1882 318 m 1288 282 q 1258 271 1269 282 q 1246 242 1246 260 q 1258 213 1246 224 q 1288 201 1269 201 q 1317 213 1306 201 q 1328 242 1328 224 q 1317 271 1328 260 q 1288 282 1306 282 m 1881 201 q 1910 213 1899 201 q 1921 242 1921 224 q 1910 271 1921 260 q 1881 282 1899 282 q 1851 271 1863 282 q 1840 242 1840 260 q 1851 213 1840 224 q 1881 201 1863 201 m 1353 171 q 1323 160 1335 171 q 1311 131 1311 149 q 1323 101 1311 113 q 1353 90 1335 90 q 1382 101 1371 90 q 1393 131 1393 113 q 1382 160 1393 149 q 1353 171 1371 171 m 1815 90 q 1845 101 1833 90 q 1857 131 1857 113 q 1845 160 1857 149 q 1815 171 1833 171 q 1786 160 1797 171 q 1775 131 1775 149 q 1786 101 1775 113 q 1815 90 1797 90 m 1460 103 q 1431 91 1442 103 q 1419 61 1419 79 q 1431 32 1419 43 q 1460 21 1442 21 q 1489 32 1478 21 q 1500 61 1500 43 q 1489 91 1500 79 q 1460 103 1478 103 m 1708 21 q 1738 32 1726 21 q 1749 61 1749 43 q 1738 91 1749 79 q 1708 103 1726 103 q 1679 91 1690 103 q 1668 61 1668 79 q 1679 32 1668 43 q 1708 21 1690 21 m 1583 0 q 1613 11 1601 0 q 1624 40 1624 22 q 1613 70 1624 58 q 1583 82 1601 82 q 1554 70 1565 82 q 1543 40 1543 58 q 1554 11 1543 22 q 1583 0 1565 0 z "},"ெ":{"ha":1221,"x_min":56,"x_max":1110,"o":"m 588 938 q 864 880 746 938 q 1046 715 982 822 q 1110 467 1110 608 l 1110 0 l 882 0 l 882 467 q 806 672 882 599 q 590 746 729 746 q 436 707 503 746 q 333 599 369 668 q 297 442 297 531 q 311 333 297 381 q 400 423 340 390 q 536 456 460 456 q 670 426 611 456 q 763 344 729 396 q 796 226 796 292 q 760 97 796 154 q 656 7 724 39 q 496 -25 588 -25 q 269 35 369 -25 q 113 202 169 96 q 56 442 56 308 q 123 697 56 585 q 311 874 190 810 q 588 938 432 938 m 526 283 q 479 265 497 283 q 461 219 461 247 q 479 173 461 192 q 526 154 497 154 q 571 173 553 154 q 589 219 589 192 q 572 265 589 247 q 526 283 554 283 z "},"ே":{"ha":974,"x_min":56,"x_max":918,"o":"m 689 438 q 807 410 754 438 q 889 335 860 383 q 918 226 918 286 q 874 97 918 154 q 753 8 831 40 q 576 -25 675 -25 q 295 39 413 -25 q 117 213 178 103 q 56 457 56 322 q 117 701 56 592 q 295 874 178 810 q 576 938 413 938 q 753 905 675 938 q 874 815 831 872 q 918 686 918 758 q 889 578 918 626 q 807 502 860 529 q 689 475 754 475 q 577 502 626 475 q 499 577 528 529 q 471 685 471 625 q 483 750 471 721 q 347 654 394 729 q 297 457 300 579 q 347 259 300 335 q 483 163 394 183 q 471 228 471 192 q 499 335 471 288 q 577 410 528 383 q 689 438 626 438 m 689 642 q 721 654 708 642 q 733 686 733 667 q 722 720 733 707 q 692 733 710 733 q 656 721 669 733 q 643 689 643 708 q 656 655 643 668 q 689 642 669 642 m 689 271 q 656 258 669 271 q 643 224 643 244 q 656 192 643 204 q 692 179 669 179 q 722 192 710 179 q 733 226 733 206 q 721 258 733 246 q 689 271 708 271 z "},"ி":{"ha":450,"x_min":-532,"x_max":339,"o":"m -147 1107 q 108 1055 -3 1107 q 278 910 218 1003 q 339 699 339 817 l 339 0 l 111 0 l 111 699 q 44 858 111 800 q -146 917 -24 917 q -260 886 -215 917 q -306 807 -306 856 q -285 738 -306 763 q -229 713 -264 713 l -229 563 q -389 595 -321 563 q -494 685 -457 628 q -532 817 -532 743 q -485 966 -532 900 q -350 1069 -437 1032 q -147 1107 -262 1107 z "},"ொ":{"ha":2915,"x_min":56,"x_max":2885,"o":"m 588 938 q 864 880 746 938 q 1046 715 982 822 q 1110 467 1110 608 l 1110 0 l 882 0 l 882 467 q 806 672 882 599 q 590 746 729 746 q 436 707 503 746 q 333 599 369 668 q 297 442 297 531 q 311 333 297 381 q 400 423 340 390 q 536 456 460 456 q 670 426 611 456 q 763 344 729 396 q 796 226 796 292 q 760 97 796 154 q 656 7 724 39 q 496 -25 588 -25 q 269 35 369 -25 q 113 202 169 96 q 56 442 56 308 q 123 697 56 585 q 311 874 190 810 q 588 938 432 938 m 526 283 q 479 265 497 283 q 461 219 461 247 q 479 173 461 192 q 526 154 497 154 q 571 173 553 154 q 589 219 589 192 q 572 265 589 247 q 526 283 554 283 m 2439 0 l 2439 533 l 2233 533 l 2233 0 l 2006 0 l 2006 713 l 2864 713 l 2885 533 l 2667 533 l 2667 0 l 2439 0 m 1538 638 q 1567 649 1556 638 q 1578 678 1578 660 q 1567 708 1578 696 q 1538 719 1556 719 q 1508 708 1519 719 q 1497 678 1497 696 q 1508 649 1497 660 q 1538 638 1519 638 m 1414 697 q 1385 686 1396 697 q 1374 657 1374 675 q 1385 628 1374 639 q 1414 617 1396 617 q 1443 628 1432 617 q 1454 657 1454 639 q 1443 686 1454 675 q 1414 697 1432 697 m 1663 617 q 1692 628 1681 617 q 1703 657 1703 639 q 1692 686 1703 675 q 1663 697 1681 697 q 1633 686 1644 697 q 1622 657 1622 675 q 1633 628 1622 639 q 1663 617 1644 617 m 1308 628 q 1278 616 1290 628 q 1267 586 1267 604 q 1278 557 1267 568 q 1308 546 1290 546 q 1338 557 1326 546 q 1349 586 1349 568 q 1338 616 1349 604 q 1308 628 1326 628 m 1768 546 q 1798 557 1786 546 q 1810 586 1810 568 q 1798 616 1810 604 q 1768 628 1786 628 q 1739 616 1750 628 q 1728 586 1728 604 q 1739 557 1728 568 q 1768 546 1750 546 m 1242 518 q 1212 506 1224 518 q 1200 476 1200 494 q 1212 447 1200 458 q 1242 436 1224 436 q 1271 447 1260 436 q 1282 476 1282 458 q 1271 506 1282 494 q 1242 518 1260 518 m 1835 436 q 1864 447 1853 436 q 1875 476 1875 458 q 1864 506 1875 494 q 1835 518 1853 518 q 1806 506 1817 518 q 1794 476 1794 494 q 1806 447 1794 458 q 1835 436 1817 436 m 1222 399 q 1192 387 1204 399 q 1181 357 1181 375 q 1192 328 1181 339 q 1222 318 1204 318 q 1251 328 1240 318 q 1263 357 1263 339 q 1251 387 1263 375 q 1222 399 1240 399 m 1854 318 q 1884 328 1872 318 q 1896 357 1896 339 q 1884 387 1896 375 q 1854 399 1872 399 q 1825 387 1836 399 q 1814 357 1814 375 q 1825 328 1814 339 q 1854 318 1836 318 m 1242 282 q 1212 271 1224 282 q 1200 242 1200 260 q 1212 213 1200 224 q 1242 201 1224 201 q 1271 213 1260 201 q 1282 242 1282 224 q 1271 271 1282 260 q 1242 282 1260 282 m 1835 201 q 1864 213 1853 201 q 1875 242 1875 224 q 1864 271 1875 260 q 1835 282 1853 282 q 1806 271 1817 282 q 1794 242 1794 260 q 1806 213 1794 224 q 1835 201 1817 201 m 1307 171 q 1277 160 1289 171 q 1265 131 1265 149 q 1277 101 1265 113 q 1307 90 1289 90 q 1336 101 1325 90 q 1347 131 1347 113 q 1336 160 1347 149 q 1307 171 1325 171 m 1769 90 q 1799 101 1788 90 q 1811 131 1811 113 q 1799 160 1811 149 q 1769 171 1788 171 q 1740 160 1751 171 q 1729 131 1729 149 q 1740 101 1729 113 q 1769 90 1751 90 m 1414 103 q 1385 91 1396 103 q 1374 61 1374 79 q 1385 32 1374 43 q 1414 21 1396 21 q 1443 32 1432 21 q 1454 61 1454 43 q 1443 91 1454 79 q 1414 103 1432 103 m 1663 21 q 1692 32 1681 21 q 1703 61 1703 43 q 1692 91 1703 79 q 1663 103 1681 103 q 1633 91 1644 103 q 1622 61 1622 79 q 1633 32 1622 43 q 1663 21 1644 21 m 1538 0 q 1567 11 1556 0 q 1578 40 1578 22 q 1567 70 1578 58 q 1538 82 1556 82 q 1508 70 1519 82 q 1497 40 1497 58 q 1508 11 1497 22 q 1538 0 1519 0 z "},"ோ":{"ha":2726,"x_min":56,"x_max":2685,"o":"m 689 438 q 807 410 754 438 q 889 335 860 383 q 918 226 918 286 q 874 97 918 154 q 753 8 831 40 q 576 -25 675 -25 q 295 39 413 -25 q 117 213 178 103 q 56 457 56 322 q 117 701 56 592 q 295 874 178 810 q 576 938 413 938 q 753 905 675 938 q 874 815 831 872 q 918 686 918 758 q 889 578 918 626 q 807 502 860 529 q 689 475 754 475 q 577 502 626 475 q 499 577 528 529 q 471 685 471 625 q 483 750 471 721 q 347 654 394 729 q 297 457 300 579 q 347 259 300 335 q 483 163 394 183 q 471 228 471 192 q 499 335 471 288 q 577 410 528 383 q 689 438 626 438 m 689 642 q 721 654 708 642 q 733 686 733 667 q 722 720 733 707 q 692 733 710 733 q 656 721 669 733 q 643 689 643 708 q 656 655 643 668 q 689 642 669 642 m 689 271 q 656 258 669 271 q 643 224 643 244 q 656 192 643 204 q 692 179 669 179 q 722 192 710 179 q 733 226 733 206 q 721 258 733 246 q 689 271 708 271 m 2239 0 l 2239 533 l 2033 533 l 2033 0 l 1806 0 l 1806 713 l 2664 713 l 2685 533 l 2467 533 l 2467 0 l 2239 0 m 1360 638 q 1389 649 1378 638 q 1400 678 1400 660 q 1389 708 1400 696 q 1360 719 1378 719 q 1331 708 1342 719 q 1319 678 1319 696 q 1331 649 1319 660 q 1360 638 1342 638 m 1236 697 q 1207 686 1218 697 q 1196 657 1196 675 q 1207 628 1196 639 q 1236 617 1218 617 q 1265 628 1254 617 q 1276 657 1276 639 q 1265 686 1276 675 q 1236 697 1254 697 m 1485 617 q 1514 628 1503 617 q 1525 657 1525 639 q 1514 686 1525 675 q 1485 697 1503 697 q 1456 686 1467 697 q 1444 657 1444 675 q 1456 628 1444 639 q 1485 617 1467 617 m 1131 628 q 1101 616 1113 628 q 1089 586 1089 604 q 1101 557 1089 568 q 1131 546 1113 546 q 1160 557 1149 546 q 1171 586 1171 568 q 1160 616 1171 604 q 1131 628 1149 628 m 1590 546 q 1620 557 1608 546 q 1632 586 1632 568 q 1620 616 1632 604 q 1590 628 1608 628 q 1561 616 1572 628 q 1550 586 1550 604 q 1561 557 1550 568 q 1590 546 1572 546 m 1064 518 q 1034 506 1046 518 q 1022 476 1022 494 q 1034 447 1022 458 q 1064 436 1046 436 q 1093 447 1082 436 q 1104 476 1104 458 q 1093 506 1104 494 q 1064 518 1082 518 m 1657 436 q 1686 447 1675 436 q 1697 476 1697 458 q 1686 506 1697 494 q 1657 518 1675 518 q 1628 506 1639 518 q 1617 476 1617 494 q 1628 447 1617 458 q 1657 436 1639 436 m 1044 399 q 1015 387 1026 399 q 1003 357 1003 375 q 1015 328 1003 339 q 1044 318 1026 318 q 1074 328 1063 318 q 1085 357 1085 339 q 1074 387 1085 375 q 1044 399 1063 399 m 1676 318 q 1706 328 1694 318 q 1718 357 1718 339 q 1706 387 1718 375 q 1676 399 1694 399 q 1647 387 1658 399 q 1636 357 1636 375 q 1647 328 1636 339 q 1676 318 1658 318 m 1064 282 q 1034 271 1046 282 q 1022 242 1022 260 q 1034 213 1022 224 q 1064 201 1046 201 q 1093 213 1082 201 q 1104 242 1104 224 q 1093 271 1104 260 q 1064 282 1082 282 m 1657 201 q 1686 213 1675 201 q 1697 242 1697 224 q 1686 271 1697 260 q 1657 282 1675 282 q 1628 271 1639 282 q 1617 242 1617 260 q 1628 213 1617 224 q 1657 201 1639 201 m 1129 171 q 1099 160 1111 171 q 1088 131 1088 149 q 1099 101 1088 113 q 1129 90 1111 90 q 1158 101 1147 90 q 1169 131 1169 113 q 1158 160 1169 149 q 1129 171 1147 171 m 1592 90 q 1622 101 1610 90 q 1633 131 1633 113 q 1622 160 1633 149 q 1592 171 1610 171 q 1563 160 1574 171 q 1551 131 1551 149 q 1563 101 1551 113 q 1592 90 1574 90 m 1236 103 q 1207 91 1218 103 q 1196 61 1196 79 q 1207 32 1196 43 q 1236 21 1218 21 q 1265 32 1254 21 q 1276 61 1276 43 q 1265 91 1276 79 q 1236 103 1254 103 m 1485 21 q 1514 32 1503 21 q 1525 61 1525 43 q 1514 91 1525 79 q 1485 103 1503 103 q 1456 91 1467 103 q 1444 61 1444 79 q 1456 32 1444 43 q 1485 21 1467 21 m 1360 0 q 1389 11 1378 0 q 1400 40 1400 22 q 1389 70 1400 58 q 1360 82 1378 82 q 1331 70 1342 82 q 1319 40 1319 58 q 1331 11 1319 22 q 1360 0 1342 0 z "},"ு":{"ha":663,"x_min":-328,"x_max":638,"o":"m 333 713 q 490 680 421 713 q 599 590 560 647 q 638 458 638 532 q 603 338 638 392 q 509 254 569 285 q 374 224 449 224 q 237 253 297 224 q 142 335 176 283 q 107 454 107 388 q 122 533 107 494 l -328 533 l -328 713 l 333 713 m 365 399 q 413 417 394 399 q 432 465 432 436 q 413 515 432 496 q 365 533 394 533 q 315 515 335 533 q 294 465 294 496 q 315 417 294 436 q 365 399 335 399 z "},"ூ":{"ha":1046,"x_min":-328,"x_max":1021,"o":"m 557 850 q 796 799 690 850 q 961 655 901 747 q 1021 447 1021 563 q 957 226 1021 324 q 774 74 893 129 q 494 19 654 19 l 407 19 l 407 199 l 494 199 q 706 267 631 199 q 782 447 782 336 q 719 608 782 544 q 557 671 656 671 q 513 668 540 671 q 605 580 572 635 q 638 458 638 525 q 603 338 638 392 q 509 254 569 285 q 374 224 449 224 q 237 253 297 224 q 142 335 176 283 q 107 454 107 388 q 115 533 107 496 l -328 533 l -328 713 l 208 713 q 358 814 268 778 q 557 850 449 850 m 365 399 q 413 417 394 399 q 432 465 432 436 q 413 515 432 496 q 365 533 394 533 l 307 533 q 294 465 294 503 q 315 417 294 436 q 365 399 335 399 z "},"ஂ":{"ha":0,"x_min":-207,"x_max":208,"o":"m 0 886 q 149 942 90 886 q 208 1085 208 999 q 149 1229 208 1172 q 0 1286 90 1286 q -149 1229 -90 1286 q -207 1085 -207 1172 q -149 942 -207 999 q 0 886 -90 886 m 0 1032 q -38 1047 -24 1032 q -53 1085 -53 1063 q -38 1125 -53 1110 q 0 1140 -24 1140 q 41 1125 25 1140 q 57 1085 57 1110 q 40 1047 57 1063 q 0 1032 24 1032 z "},"்":{"ha":0,"x_min":-129,"x_max":132,"o":"m 0 886 q 94 923 57 886 q 132 1015 132 960 q 94 1109 132 1072 q 0 1146 57 1146 q -93 1109 -57 1146 q -129 1015 -129 1072 q -93 923 -129 960 q 0 886 -57 886 z "},"ீ":{"ha":0,"x_min":-607,"x_max":165,"o":"m -185 1219 q -5 1185 -85 1219 q 120 1088 75 1150 q 165 949 165 1026 q 109 809 165 864 q -35 754 53 754 q -181 809 -124 754 q -237 949 -237 864 q -214 1039 -237 999 q -337 990 -293 1032 q -381 883 -381 947 q -340 760 -381 807 q -224 713 -299 713 l -224 544 q -426 588 -339 544 q -560 708 -512 631 q -607 883 -607 785 q -555 1057 -607 981 q -407 1176 -503 1133 q -185 1219 -311 1219 m -35 899 q -2 912 -15 899 q 11 944 11 925 q -2 976 11 964 q -35 989 -15 989 q -67 976 -54 989 q -81 944 -81 964 q -67 912 -81 925 q -35 899 -54 899 z "}}}
